<svg width="357" height="334" viewBox="0 0 357 334" fill="none" xmlns="http://www.w3.org/2000/svg">
<path d="M63.7932 333.9H5.49321C1.42988 333.9 -1.39679 329.66 0.723209 325.42L172.973 3.17999C174.033 1.05999 176.153 0 178.273 0C180.393 0 182.513 1.05999 183.573 3.17999L355.823 325.42C357.767 329.13 355.293 333.9 351.053 333.9H292.753C290.103 333.9 288.513 332.84 287.453 330.72L239.223 239.56C238.163 237.44 234.453 233.2 229.153 233.2H127.393C122.093 233.2 118.383 237.44 117.323 239.56L69.0932 330.72C68.0332 332.84 66.4432 333.9 63.7932 333.9ZM153.893 169.6H202.653L181.983 130.38C180.923 128.26 179.863 127.2 178.273 127.2C176.683 127.2 175.623 128.26 174.563 130.38L153.893 169.6Z" fill="#FCC3C3"/>
</svg>
