<svg width="62" height="86" viewBox="0 0 62 86" fill="none" xmlns="http://www.w3.org/2000/svg">
<path d="M1.3863 60.4806C0.150376 61.0961 -0.352574 62.597 0.262931 63.8329L10.2932 83.9735C10.9087 85.2095 12.4096 85.7124 13.6455 85.0969C14.8815 84.4814 15.3844 82.9805 14.7689 81.7446L5.8531 63.8418L23.7558 54.926C24.9918 54.3105 25.4947 52.8096 24.8792 51.5737C24.2637 50.3378 22.7628 49.8348 21.5269 50.4503L1.3863 60.4806ZM27.5703 63.4411L26.9138 61.0288V61.0288L27.5703 63.4411ZM48.8163 50.1141L46.9303 48.473V48.473L48.8163 50.1141ZM59.0777 27.2294L61.5575 27.546L59.0777 27.2294ZM57.1334 1.38607C56.5179 0.150148 55.017 -0.352801 53.7811 0.262707C52.5452 0.878215 52.0422 2.3791 52.6577 3.61503L54.8956 2.50055L57.1334 1.38607ZM2.50078 62.7185L1.70644 65.0889C10.2764 67.9607 19.5056 68.2268 28.2268 65.8534L27.5703 63.4411L26.9138 61.0288C19.1468 63.1426 10.9275 62.9056 3.29512 60.348L2.50078 62.7185ZM27.5703 63.4411L28.2268 65.8534C36.948 63.48 44.7695 58.5737 50.7024 51.7551L48.8163 50.1141L46.9303 48.473C41.6466 54.5457 34.6808 58.9151 26.9138 61.0288L27.5703 63.4411ZM48.8163 50.1141L50.7024 51.7551C56.6352 44.9364 60.4128 36.5116 61.5575 27.546L59.0777 27.2294L56.5978 26.9127C55.5783 34.8974 52.214 42.4004 46.9303 48.473L48.8163 50.1141ZM59.0777 27.2294L61.5575 27.546C62.7022 18.5804 61.1626 9.47667 57.1334 1.38607L54.8956 2.50055L52.6577 3.61503C56.2461 10.8204 57.6173 18.9281 56.5978 26.9127L59.0777 27.2294Z" fill="#ff1935"/>
</svg>
