<svg width="1150" height="1195" viewBox="0 0 1150 1195" fill="none" xmlns="http://www.w3.org/2000/svg">
<g opacity="0.1">
<line y1="1.08434" x2="1149.47" y2="1.08434" stroke="black" stroke-width="2.16872"/>
<line y1="52.0919" x2="1149.47" y2="52.0919" stroke="black" stroke-width="2.16872"/>
<line y1="103.099" x2="1149.47" y2="103.099" stroke="black" stroke-width="2.16872"/>
<line y1="154.107" x2="1149.47" y2="154.107" stroke="black" stroke-width="2.16872"/>
<line y1="205.115" x2="1149.47" y2="205.115" stroke="black" stroke-width="2.16872"/>
</g>
<g opacity="0.1">
<line y1="248.125" x2="1149.47" y2="248.125" stroke="black" stroke-width="2.16872"/>
<line y1="299.133" x2="1149.47" y2="299.133" stroke="black" stroke-width="2.16872"/>
<line y1="350.14" x2="1149.47" y2="350.14" stroke="black" stroke-width="2.16872"/>
<line y1="401.148" x2="1149.47" y2="401.148" stroke="black" stroke-width="2.16872"/>
<line y1="452.155" x2="1149.47" y2="452.155" stroke="black" stroke-width="2.16872"/>
</g>
<g opacity="0.1">
<line y1="495.166" x2="1149.47" y2="495.166" stroke="black" stroke-width="2.16872"/>
<line y1="546.173" x2="1149.47" y2="546.173" stroke="black" stroke-width="2.16872"/>
<line y1="597.181" x2="1149.47" y2="597.181" stroke="black" stroke-width="2.16872"/>
<line y1="648.189" x2="1149.47" y2="648.189" stroke="black" stroke-width="2.16872"/>
<line y1="699.196" x2="1149.47" y2="699.196" stroke="black" stroke-width="2.16872"/>
</g>
<g opacity="0.1">
<line y1="742.207" x2="1149.47" y2="742.207" stroke="black" stroke-width="2.16872"/>
<line y1="793.214" x2="1149.47" y2="793.214" stroke="black" stroke-width="2.16872"/>
<line y1="844.222" x2="1149.47" y2="844.222" stroke="black" stroke-width="2.16872"/>
<line y1="895.229" x2="1149.47" y2="895.229" stroke="black" stroke-width="2.16872"/>
<line y1="946.237" x2="1149.47" y2="946.237" stroke="black" stroke-width="2.16872"/>
</g>
<g opacity="0.1">
<line y1="989.247" x2="1149.47" y2="989.247" stroke="black" stroke-width="2.16872"/>
<line y1="1040.25" x2="1149.47" y2="1040.26" stroke="black" stroke-width="2.16872"/>
<line y1="1091.26" x2="1149.47" y2="1091.26" stroke="black" stroke-width="2.16872"/>
<line y1="1142.27" x2="1149.47" y2="1142.27" stroke="black" stroke-width="2.16872"/>
<line y1="1193.28" x2="1149.47" y2="1193.28" stroke="black" stroke-width="2.16872"/>
</g>
</svg>
