<svg width="1078" height="4924" viewBox="0 0 1078 4924" fill="none" xmlns="http://www.w3.org/2000/svg">
<g opacity="0.1">
<line y1="1.08434" x2="1077.73" y2="1.08434" stroke="black" stroke-width="2.16872"/>
<line y1="52.0919" x2="1077.73" y2="52.0919" stroke="black" stroke-width="2.16872"/>
<line y1="103.099" x2="1077.73" y2="103.099" stroke="black" stroke-width="2.16872"/>
<line y1="154.107" x2="1077.73" y2="154.107" stroke="black" stroke-width="2.16872"/>
<line y1="205.115" x2="1077.73" y2="205.115" stroke="black" stroke-width="2.16872"/>
</g>
<g opacity="0.1">
<line y1="248.125" x2="1077.73" y2="248.125" stroke="black" stroke-width="2.16872"/>
<line y1="299.133" x2="1077.73" y2="299.133" stroke="black" stroke-width="2.16872"/>
<line y1="350.14" x2="1077.73" y2="350.14" stroke="black" stroke-width="2.16872"/>
<line y1="401.148" x2="1077.73" y2="401.148" stroke="black" stroke-width="2.16872"/>
<line y1="452.155" x2="1077.73" y2="452.155" stroke="black" stroke-width="2.16872"/>
</g>
<g opacity="0.1">
<line y1="495.166" x2="1077.73" y2="495.166" stroke="black" stroke-width="2.16872"/>
<line y1="546.173" x2="1077.73" y2="546.173" stroke="black" stroke-width="2.16872"/>
<line y1="597.181" x2="1077.73" y2="597.181" stroke="black" stroke-width="2.16872"/>
<line y1="648.189" x2="1077.73" y2="648.189" stroke="black" stroke-width="2.16872"/>
<line y1="699.196" x2="1077.73" y2="699.196" stroke="black" stroke-width="2.16872"/>
</g>
<g opacity="0.1">
<line y1="742.207" x2="1077.73" y2="742.207" stroke="black" stroke-width="2.16872"/>
<line y1="793.214" x2="1077.73" y2="793.214" stroke="black" stroke-width="2.16872"/>
<line y1="844.222" x2="1077.73" y2="844.222" stroke="black" stroke-width="2.16872"/>
<line y1="895.229" x2="1077.73" y2="895.229" stroke="black" stroke-width="2.16872"/>
<line y1="946.237" x2="1077.73" y2="946.237" stroke="black" stroke-width="2.16872"/>
</g>
<g opacity="0.1">
<line y1="989.247" x2="1077.73" y2="989.247" stroke="black" stroke-width="2.16872"/>
<line y1="1040.25" x2="1077.73" y2="1040.26" stroke="black" stroke-width="2.16872"/>
<line y1="1091.26" x2="1077.73" y2="1091.26" stroke="black" stroke-width="2.16872"/>
<line y1="1142.27" x2="1077.73" y2="1142.27" stroke="black" stroke-width="2.16872"/>
<line y1="1193.28" x2="1077.73" y2="1193.28" stroke="black" stroke-width="2.16872"/>
</g>
<g opacity="0.1">
<line y1="1244.28" x2="1077.73" y2="1244.28" stroke="black" stroke-width="2.16872"/>
<line y1="1295.29" x2="1077.73" y2="1295.29" stroke="black" stroke-width="2.16872"/>
<line y1="1346.29" x2="1077.73" y2="1346.29" stroke="black" stroke-width="2.16872"/>
<line y1="1397.3" x2="1077.73" y2="1397.3" stroke="black" stroke-width="2.16872"/>
<line y1="1448.31" x2="1077.73" y2="1448.31" stroke="black" stroke-width="2.16872"/>
</g>
<g opacity="0.1">
<line y1="1491.32" x2="1077.73" y2="1491.32" stroke="black" stroke-width="2.16872"/>
<line y1="1542.33" x2="1077.73" y2="1542.33" stroke="black" stroke-width="2.16872"/>
<line y1="1593.33" x2="1077.73" y2="1593.33" stroke="black" stroke-width="2.16872"/>
<line y1="1644.34" x2="1077.73" y2="1644.34" stroke="black" stroke-width="2.16872"/>
<line y1="1695.35" x2="1077.73" y2="1695.35" stroke="black" stroke-width="2.16872"/>
</g>
<g opacity="0.1">
<line y1="1738.36" x2="1077.73" y2="1738.36" stroke="black" stroke-width="2.16872"/>
<line y1="1789.37" x2="1077.73" y2="1789.37" stroke="black" stroke-width="2.16872"/>
<line y1="1840.37" x2="1077.73" y2="1840.37" stroke="black" stroke-width="2.16872"/>
<line y1="1891.38" x2="1077.73" y2="1891.38" stroke="black" stroke-width="2.16872"/>
<line y1="1942.39" x2="1077.73" y2="1942.39" stroke="black" stroke-width="2.16872"/>
</g>
<g opacity="0.1">
<line y1="1985.4" x2="1077.73" y2="1985.4" stroke="black" stroke-width="2.16872"/>
<line y1="2036.41" x2="1077.73" y2="2036.41" stroke="black" stroke-width="2.16872"/>
<line y1="2087.41" x2="1077.73" y2="2087.41" stroke="black" stroke-width="2.16872"/>
<line y1="2138.42" x2="1077.73" y2="2138.42" stroke="black" stroke-width="2.16872"/>
<line y1="2189.43" x2="1077.73" y2="2189.43" stroke="black" stroke-width="2.16872"/>
</g>
<g opacity="0.1">
<line y1="2232.44" x2="1077.73" y2="2232.44" stroke="black" stroke-width="2.16872"/>
<line y1="2283.45" x2="1077.73" y2="2283.45" stroke="black" stroke-width="2.16872"/>
<line y1="2334.46" x2="1077.73" y2="2334.46" stroke="black" stroke-width="2.16872"/>
<line y1="2385.46" x2="1077.73" y2="2385.46" stroke="black" stroke-width="2.16872"/>
<line y1="2436.47" x2="1077.73" y2="2436.47" stroke="black" stroke-width="2.16872"/>
</g>
<g opacity="0.1">
<line y1="2487.47" x2="1077.73" y2="2487.47" stroke="black" stroke-width="2.16872"/>
<line y1="2538.48" x2="1077.73" y2="2538.48" stroke="black" stroke-width="2.16872"/>
<line y1="2589.49" x2="1077.73" y2="2589.49" stroke="black" stroke-width="2.16872"/>
<line y1="2640.49" x2="1077.73" y2="2640.49" stroke="black" stroke-width="2.16872"/>
<line y1="2691.5" x2="1077.73" y2="2691.5" stroke="black" stroke-width="2.16872"/>
</g>
<g opacity="0.1">
<line y1="2734.51" x2="1077.73" y2="2734.51" stroke="black" stroke-width="2.16872"/>
<line y1="2785.52" x2="1077.73" y2="2785.52" stroke="black" stroke-width="2.16872"/>
<line y1="2836.53" x2="1077.73" y2="2836.53" stroke="black" stroke-width="2.16872"/>
<line y1="2887.54" x2="1077.73" y2="2887.53" stroke="black" stroke-width="2.16872"/>
<line y1="2938.54" x2="1077.73" y2="2938.54" stroke="black" stroke-width="2.16872"/>
</g>
<g opacity="0.1">
<line y1="2981.55" x2="1077.73" y2="2981.55" stroke="black" stroke-width="2.16872"/>
<line y1="3032.56" x2="1077.73" y2="3032.56" stroke="black" stroke-width="2.16872"/>
<line y1="3083.57" x2="1077.73" y2="3083.57" stroke="black" stroke-width="2.16872"/>
<line y1="3134.58" x2="1077.73" y2="3134.58" stroke="black" stroke-width="2.16872"/>
<line y1="3185.58" x2="1077.73" y2="3185.58" stroke="black" stroke-width="2.16872"/>
</g>
<g opacity="0.1">
<line y1="3228.59" x2="1077.73" y2="3228.59" stroke="black" stroke-width="2.16872"/>
<line y1="3279.6" x2="1077.73" y2="3279.6" stroke="black" stroke-width="2.16872"/>
<line y1="3330.61" x2="1077.73" y2="3330.61" stroke="black" stroke-width="2.16872"/>
<line y1="3381.62" x2="1077.73" y2="3381.62" stroke="black" stroke-width="2.16872"/>
<line y1="3432.62" x2="1077.73" y2="3432.62" stroke="black" stroke-width="2.16872"/>
</g>
<g opacity="0.1">
<line y1="3475.63" x2="1077.73" y2="3475.63" stroke="black" stroke-width="2.16872"/>
<line y1="3526.64" x2="1077.73" y2="3526.64" stroke="black" stroke-width="2.16872"/>
<line y1="3577.65" x2="1077.73" y2="3577.65" stroke="black" stroke-width="2.16872"/>
<line y1="3628.66" x2="1077.73" y2="3628.66" stroke="black" stroke-width="2.16872"/>
<line y1="3679.66" x2="1077.73" y2="3679.66" stroke="black" stroke-width="2.16872"/>
</g>
<g opacity="0.1">
<line y1="3730.66" x2="1077.73" y2="3730.66" stroke="black" stroke-width="2.16872"/>
<line y1="3781.67" x2="1077.73" y2="3781.67" stroke="black" stroke-width="2.16872"/>
<line y1="3832.68" x2="1077.73" y2="3832.68" stroke="black" stroke-width="2.16872"/>
<line y1="3883.69" x2="1077.73" y2="3883.69" stroke="black" stroke-width="2.16872"/>
<line y1="3934.69" x2="1077.73" y2="3934.69" stroke="black" stroke-width="2.16872"/>
</g>
<g opacity="0.1">
<line y1="3977.71" x2="1077.73" y2="3977.71" stroke="black" stroke-width="2.16872"/>
<line y1="4028.71" x2="1077.73" y2="4028.71" stroke="black" stroke-width="2.16872"/>
<line y1="4079.72" x2="1077.73" y2="4079.72" stroke="black" stroke-width="2.16872"/>
<line y1="4130.73" x2="1077.73" y2="4130.73" stroke="black" stroke-width="2.16872"/>
<line y1="4181.74" x2="1077.73" y2="4181.74" stroke="black" stroke-width="2.16872"/>
</g>
<g opacity="0.1">
<line y1="4224.75" x2="1077.73" y2="4224.75" stroke="black" stroke-width="2.16872"/>
<line y1="4275.75" x2="1077.73" y2="4275.75" stroke="black" stroke-width="2.16872"/>
<line y1="4326.76" x2="1077.73" y2="4326.76" stroke="black" stroke-width="2.16872"/>
<line y1="4377.77" x2="1077.73" y2="4377.77" stroke="black" stroke-width="2.16872"/>
<line y1="4428.78" x2="1077.73" y2="4428.78" stroke="black" stroke-width="2.16872"/>
</g>
<g opacity="0.1">
<line y1="4471.79" x2="1077.73" y2="4471.79" stroke="black" stroke-width="2.16872"/>
<line y1="4522.79" x2="1077.73" y2="4522.79" stroke="black" stroke-width="2.16872"/>
<line y1="4573.8" x2="1077.73" y2="4573.8" stroke="black" stroke-width="2.16872"/>
<line y1="4624.81" x2="1077.73" y2="4624.81" stroke="black" stroke-width="2.16872"/>
<line y1="4675.82" x2="1077.73" y2="4675.82" stroke="black" stroke-width="2.16872"/>
</g>
<g opacity="0.1">
<line y1="4718.83" x2="1077.73" y2="4718.83" stroke="black" stroke-width="2.16872"/>
<line y1="4769.83" x2="1077.73" y2="4769.83" stroke="black" stroke-width="2.16872"/>
<line y1="4820.84" x2="1077.73" y2="4820.84" stroke="black" stroke-width="2.16872"/>
<line y1="4871.85" x2="1077.73" y2="4871.85" stroke="black" stroke-width="2.16872"/>
<line y1="4922.86" x2="1077.73" y2="4922.86" stroke="black" stroke-width="2.16872"/>
</g>
</svg>
