<svg width="1078" height="2440" viewBox="0 0 1078 2440" fill="none" xmlns="http://www.w3.org/2000/svg">
<g opacity="0.1">
<line y1="1.08434" x2="1077.73" y2="1.08434" stroke="black" stroke-width="2.16872"/>
<line y1="52.0919" x2="1077.73" y2="52.0919" stroke="black" stroke-width="2.16872"/>
<line y1="103.099" x2="1077.73" y2="103.099" stroke="black" stroke-width="2.16872"/>
<line y1="154.107" x2="1077.73" y2="154.107" stroke="black" stroke-width="2.16872"/>
<line y1="205.115" x2="1077.73" y2="205.115" stroke="black" stroke-width="2.16872"/>
</g>
<g opacity="0.1">
<line y1="248.125" x2="1077.73" y2="248.125" stroke="black" stroke-width="2.16872"/>
<line y1="299.133" x2="1077.73" y2="299.133" stroke="black" stroke-width="2.16872"/>
<line y1="350.14" x2="1077.73" y2="350.14" stroke="black" stroke-width="2.16872"/>
<line y1="401.148" x2="1077.73" y2="401.148" stroke="black" stroke-width="2.16872"/>
<line y1="452.155" x2="1077.73" y2="452.155" stroke="black" stroke-width="2.16872"/>
</g>
<g opacity="0.1">
<line y1="495.166" x2="1077.73" y2="495.166" stroke="black" stroke-width="2.16872"/>
<line y1="546.173" x2="1077.73" y2="546.173" stroke="black" stroke-width="2.16872"/>
<line y1="597.181" x2="1077.73" y2="597.181" stroke="black" stroke-width="2.16872"/>
<line y1="648.189" x2="1077.73" y2="648.189" stroke="black" stroke-width="2.16872"/>
<line y1="699.196" x2="1077.73" y2="699.196" stroke="black" stroke-width="2.16872"/>
</g>
<g opacity="0.1">
<line y1="742.207" x2="1077.73" y2="742.207" stroke="black" stroke-width="2.16872"/>
<line y1="793.214" x2="1077.73" y2="793.214" stroke="black" stroke-width="2.16872"/>
<line y1="844.222" x2="1077.73" y2="844.222" stroke="black" stroke-width="2.16872"/>
<line y1="895.229" x2="1077.73" y2="895.229" stroke="black" stroke-width="2.16872"/>
<line y1="946.237" x2="1077.73" y2="946.237" stroke="black" stroke-width="2.16872"/>
</g>
<g opacity="0.1">
<line y1="989.247" x2="1077.73" y2="989.247" stroke="black" stroke-width="2.16872"/>
<line y1="1040.25" x2="1077.73" y2="1040.26" stroke="black" stroke-width="2.16872"/>
<line y1="1091.26" x2="1077.73" y2="1091.26" stroke="black" stroke-width="2.16872"/>
<line y1="1142.27" x2="1077.73" y2="1142.27" stroke="black" stroke-width="2.16872"/>
<line y1="1193.28" x2="1077.73" y2="1193.28" stroke="black" stroke-width="2.16872"/>
</g>
<g opacity="0.1">
<line y1="1246.7" x2="1077.73" y2="1246.7" stroke="black" stroke-width="2.16872"/>
<line y1="1297.71" x2="1077.73" y2="1297.71" stroke="black" stroke-width="2.16872"/>
<line y1="1348.71" x2="1077.73" y2="1348.71" stroke="black" stroke-width="2.16872"/>
<line y1="1399.72" x2="1077.73" y2="1399.72" stroke="black" stroke-width="2.16872"/>
<line y1="1450.73" x2="1077.73" y2="1450.73" stroke="black" stroke-width="2.16872"/>
</g>
<g opacity="0.1">
<line y1="1493.74" x2="1077.73" y2="1493.74" stroke="black" stroke-width="2.16872"/>
<line y1="1544.75" x2="1077.73" y2="1544.75" stroke="black" stroke-width="2.16872"/>
<line y1="1595.76" x2="1077.73" y2="1595.76" stroke="black" stroke-width="2.16872"/>
<line y1="1646.76" x2="1077.73" y2="1646.76" stroke="black" stroke-width="2.16872"/>
<line y1="1697.77" x2="1077.73" y2="1697.77" stroke="black" stroke-width="2.16872"/>
</g>
<g opacity="0.1">
<line y1="1740.78" x2="1077.73" y2="1740.78" stroke="black" stroke-width="2.16872"/>
<line y1="1791.79" x2="1077.73" y2="1791.79" stroke="black" stroke-width="2.16872"/>
<line y1="1842.8" x2="1077.73" y2="1842.8" stroke="black" stroke-width="2.16872"/>
<line y1="1893.8" x2="1077.73" y2="1893.8" stroke="black" stroke-width="2.16872"/>
<line y1="1944.81" x2="1077.73" y2="1944.81" stroke="black" stroke-width="2.16872"/>
</g>
<g opacity="0.1">
<line y1="1987.82" x2="1077.73" y2="1987.82" stroke="black" stroke-width="2.16872"/>
<line y1="2038.83" x2="1077.73" y2="2038.83" stroke="black" stroke-width="2.16872"/>
<line y1="2089.84" x2="1077.73" y2="2089.84" stroke="black" stroke-width="2.16872"/>
<line y1="2140.84" x2="1077.73" y2="2140.84" stroke="black" stroke-width="2.16872"/>
<line y1="2191.85" x2="1077.73" y2="2191.85" stroke="black" stroke-width="2.16872"/>
</g>
<g opacity="0.1">
<line y1="2234.86" x2="1077.73" y2="2234.86" stroke="black" stroke-width="2.16872"/>
<line y1="2285.87" x2="1077.73" y2="2285.87" stroke="black" stroke-width="2.16872"/>
<line y1="2336.88" x2="1077.73" y2="2336.88" stroke="black" stroke-width="2.16872"/>
<line y1="2387.89" x2="1077.73" y2="2387.89" stroke="black" stroke-width="2.16872"/>
<line y1="2438.89" x2="1077.73" y2="2438.89" stroke="black" stroke-width="2.16872"/>
</g>
</svg>
