<svg width="113" height="333" viewBox="0 0 113 333" fill="none" xmlns="http://www.w3.org/2000/svg">
<path d="M107.06 332.84H5.83C2.12 332.84 0 330.72 0 327.01V5.83002C0 2.12 2.12 0 5.83 0H107.06C110.77 0 112.89 2.65003 112.89 6.36001V58.3C112.89 63.4233 109.887 65.72 106 65.72H78.44C69.7833 65.72 65.72 70.6667 65.72 79.1467V117.13C65.72 122.43 67.84 129.32 80.56 129.32H95.4C98.58 129.32 101.23 131.97 101.23 135.15V197.16C101.23 200.34 98.58 202.99 95.4 202.99H80.56C67.84 202.99 65.72 209.88 65.72 215.18V252.28C65.72 259.17 67.84 267.12 78.44 267.12H107.06C110.77 267.12 112.89 269.24 112.89 272.95V327.01C112.89 330.19 110.77 332.84 107.06 332.84Z" fill="#6DBB87"/>
</svg>
