<svg width="240" height="100" viewBox="0 0 240 100" fill="none" xmlns="http://www.w3.org/2000/svg">
<ellipse cx="119.756" cy="49.6862" rx="119.756" ry="49.686" fill="#471207"/>
<path d="M64.9863 36.7925L53.0908 36.7915V45.1997L61.4355 45.2007L61.4365 50.3013L53.0908 50.3003V58.7544L64.4326 58.7554L64.4336 63.856H47.9902V31.6919H64.9863V36.7925ZM74.3135 42.5269C78.2355 42.5269 81.5356 44.6407 82.4297 48.0483L82.791 49.4243L77.4756 49.4253L77.2627 48.603C77.2057 48.3834 76.9825 48.0617 76.4316 47.7729C75.8955 47.4919 75.1526 47.3032 74.3135 47.3032C73.3593 47.3033 72.5927 47.5491 72.0986 47.8823C71.6107 48.2115 71.4463 48.5731 71.4463 48.8804C71.4463 49.1169 71.4756 49.326 71.7852 49.5923C72.1802 49.9317 73.0786 50.394 75.0615 50.7505C77.6206 51.2011 79.5733 51.9137 80.8975 53.0239C82.2849 54.1874 82.8808 55.7002 82.8809 57.4556C82.8809 59.5656 81.8468 61.212 80.2773 62.2905C78.7406 63.3465 76.7093 63.8559 74.5908 63.856C70.5285 63.8559 66.9428 61.9069 65.9736 58.5435L65.5703 57.1421L71.0576 57.1411L71.3027 57.9048C71.3543 58.0656 71.5915 58.3906 72.2344 58.6929C72.8435 58.9791 73.6726 59.1694 74.5908 59.1694C77.0272 59.1693 77.6416 58.0455 77.6416 57.4556C77.6416 57.1302 77.554 56.9354 77.4434 56.7925C77.3186 56.6314 77.1086 56.4661 76.7676 56.3101C76.042 55.9781 75.088 55.8288 74.0215 55.6304L74.0146 55.6294C72.309 55.3023 70.4263 54.8094 68.957 53.8188C67.4154 52.7794 66.3468 51.1983 66.3467 48.8804C66.3468 46.7465 67.3919 45.1122 68.9229 44.0522C70.4213 43.015 72.3716 42.5269 74.3135 42.5269ZM95.1006 39.8901C95.1006 40.9053 94.9665 41.755 94.6885 42.5259L95.7549 42.5269H96.8535L96.8525 47.6274L92.334 47.6255V57.5483C92.3341 57.9472 92.4606 58.2568 92.627 58.4497C92.7784 58.6252 93.0032 58.7552 93.3564 58.7554H96.8525V63.856H93.3574C90.1102 63.856 87.2336 61.0912 87.2334 57.9165L87.2344 47.6265L83.2227 47.6274V42.5259H88.0547C88.7993 42.5259 89.2193 42.2628 89.4893 41.8989C89.7953 41.4861 90 40.8139 90 39.8901V36.1177H95.1006V39.8901ZM117.835 42.5269L117.836 63.855L112.735 63.856L112.734 62.8237C112.507 62.9607 112.273 63.0855 112.03 63.1968C111.046 63.6475 109.975 63.856 108.761 63.856C103.607 63.8557 99.5488 59.9219 99.5488 54.7349V42.5269L104.649 42.5259V54.7358C104.65 57.0542 106.392 58.7544 108.762 58.7544C110.896 58.7541 112.734 57.0147 112.734 55.0122V42.5259L117.835 42.5269ZM142.027 63.856H136.927V62.145C135.432 63.2075 133.554 63.856 131.57 63.856C125.609 63.8559 120.975 59.0692 120.975 53.3062C120.975 47.3301 125.592 42.526 131.57 42.5259C133.553 42.5259 135.432 43.1731 136.926 44.2349L136.928 31.6919L142.027 31.6909V63.856ZM152.165 63.856H147.064V47.6255L145.221 47.6265L145.22 42.5269H152.165V63.856ZM165.922 42.5269C171.738 42.527 176.517 47.2593 176.518 53.1675C176.518 59.1185 171.741 63.8558 165.922 63.856C160.102 63.8558 155.326 59.1185 155.326 53.1675C155.326 47.2594 160.106 42.527 165.922 42.5269ZM186.373 42.5269C190.295 42.5269 193.595 44.6406 194.489 48.0483L194.85 49.4253L189.535 49.4243L189.321 48.6021C189.264 48.3824 189.042 48.0605 188.491 47.772C187.955 47.491 187.212 47.3042 186.373 47.3042C185.419 47.3043 184.651 47.549 184.157 47.8823C183.67 48.2115 183.506 48.5732 183.506 48.8804C183.506 49.117 183.535 49.326 183.845 49.5923C184.24 49.9317 185.138 50.393 187.121 50.7495C189.68 51.2001 191.633 51.9136 192.957 53.0239C194.344 54.1873 194.94 55.7003 194.94 57.4556C194.94 59.5654 193.907 61.213 192.338 62.2915C190.801 63.3477 188.768 63.856 186.649 63.856C182.587 63.8558 179.003 61.9068 178.034 58.5435L177.629 57.1411L183.118 57.1421L183.361 57.9048C183.413 58.0654 183.65 58.3895 184.293 58.6919C184.902 58.9782 185.731 59.1703 186.649 59.1704C189.085 59.1704 189.701 58.0456 189.701 57.4556C189.701 57.1306 189.614 56.9353 189.504 56.7925C189.379 56.6313 189.168 56.4661 188.827 56.3101C188.101 55.9781 187.147 55.8288 186.08 55.6304L186.074 55.6294C184.369 55.3023 182.486 54.8094 181.017 53.8188C179.475 52.7794 178.405 51.1985 178.405 48.8804C178.405 46.7467 179.451 45.1132 180.981 44.0532C182.48 43.0158 184.431 42.5269 186.373 42.5269ZM74.5908 62.7573L74.5898 62.7583L74.5908 62.7573ZM93.3564 62.7573H93.3574H93.3564ZM132.562 62.6968C132.236 62.7371 131.905 62.7573 131.57 62.7573L131.571 62.7583C131.738 62.7583 131.904 62.7529 132.069 62.7427C132.235 62.7324 132.399 62.7169 132.562 62.6968ZM138.024 62.7583H140.93V62.7573H138.025L138.024 62.7583ZM165.922 62.7573V62.7583C166.084 62.7583 166.245 62.7537 166.404 62.7456C166.244 62.7537 166.084 62.7573 165.922 62.7573ZM185.617 62.7114C185.841 62.7316 186.068 62.7456 186.298 62.7524L186.65 62.7583V62.7573C186.299 62.7573 185.954 62.7418 185.617 62.7114ZM148.163 46.5288H148.162H148.163ZM73.8125 62.731C73.9442 62.7398 74.077 62.7462 74.2109 62.7505C74.077 62.7462 73.9442 62.7398 73.8125 62.731ZM187.713 62.7095C187.522 62.7269 187.328 62.7387 187.133 62.7466C187.328 62.7387 187.522 62.7269 187.713 62.7095ZM107.512 62.6685C107.774 62.7061 108.04 62.732 108.311 62.7456C108.04 62.732 107.774 62.7061 107.512 62.6685ZM166.481 62.7397C166.612 62.7321 166.742 62.7224 166.871 62.7095C166.742 62.7224 166.612 62.7321 166.481 62.7397ZM92.8301 62.7271C92.846 62.7289 92.862 62.7303 92.8779 62.7319C92.862 62.7303 92.846 62.7289 92.8301 62.7271ZM164.488 62.6479C164.718 62.683 164.95 62.7069 165.184 62.7251C164.949 62.7069 164.718 62.683 164.488 62.6479ZM75.5596 62.7173C75.5896 62.7148 75.6195 62.7122 75.6494 62.7095C75.6195 62.7122 75.5896 62.7148 75.5596 62.7173ZM185.281 62.6763C185.355 62.6852 185.429 62.6922 185.503 62.6997C185.429 62.6922 185.355 62.6852 185.281 62.6763ZM188.133 62.6616C188.227 62.6493 188.322 62.6373 188.415 62.6226C188.322 62.6373 188.227 62.6493 188.133 62.6616ZM75.8018 62.6938C75.8744 62.6862 75.9467 62.6784 76.0186 62.6694C75.9467 62.6784 75.8744 62.6862 75.8018 62.6938ZM167.041 62.688C167.142 62.676 167.243 62.665 167.343 62.6499C167.243 62.665 167.142 62.676 167.041 62.688ZM73.2285 62.6763C73.261 62.6802 73.2936 62.6834 73.3262 62.687C73.2936 62.6834 73.261 62.6802 73.2285 62.6763ZM130.105 62.647C130.195 62.6605 130.285 62.671 130.376 62.6821C130.285 62.671 130.195 62.6605 130.105 62.647ZM184.948 62.6304C185.036 62.6439 185.125 62.656 185.215 62.6675C185.125 62.656 185.036 62.6439 184.948 62.6304ZM76.0801 62.6616C76.1722 62.6496 76.2637 62.6369 76.3545 62.6226C76.2637 62.6369 76.1722 62.6496 76.0801 62.6616ZM107.106 62.6001C107.221 62.6222 107.337 62.6411 107.453 62.6587C107.337 62.6411 107.221 62.6222 107.106 62.6001ZM164.038 62.5679C164.16 62.5925 164.282 62.6134 164.405 62.6333C164.282 62.6134 164.16 62.5925 164.038 62.5679ZM129.648 62.5669C129.765 62.5904 129.883 62.6102 130.001 62.6294C129.883 62.6102 129.765 62.5904 129.648 62.5669ZM167.509 62.6216C167.606 62.605 167.703 62.5884 167.8 62.5688C167.703 62.5884 167.606 62.605 167.509 62.6216ZM72.5674 62.5757C72.6269 62.5868 72.6869 62.5959 72.7471 62.606C72.6869 62.5959 72.6269 62.5868 72.5674 62.5757ZM188.531 62.6021C188.599 62.5906 188.666 62.5796 188.733 62.5669C188.666 62.5796 188.599 62.5906 188.531 62.6021ZM76.5127 62.5952C76.5617 62.5867 76.6106 62.579 76.6592 62.5698C76.6106 62.579 76.5617 62.5867 76.5127 62.5952ZM106.73 62.5181C106.828 62.5417 106.927 62.5633 107.026 62.5835C106.927 62.5633 106.828 62.5417 106.73 62.5181ZM72.2568 62.5122C72.3395 62.5303 72.4229 62.5468 72.5068 62.563C72.4229 62.5468 72.3395 62.5303 72.2568 62.5122ZM184.003 62.438C184.186 62.4845 184.373 62.5264 184.562 62.563C184.373 62.5264 184.186 62.4845 184.003 62.438ZM189.4 62.4146C189.22 62.4626 189.035 62.5055 188.848 62.5435C189.035 62.5054 189.22 62.4626 189.4 62.4146ZM76.8594 62.5288C76.9101 62.5181 76.9605 62.507 77.0107 62.4956C76.9605 62.507 76.9101 62.5181 76.8594 62.5288ZM163.584 62.4634C163.675 62.4866 163.767 62.5073 163.858 62.5278C163.767 62.5073 163.675 62.4866 163.584 62.4634ZM167.986 62.5278C168.078 62.5074 168.168 62.4864 168.259 62.4634C168.168 62.4864 168.078 62.5074 167.986 62.5278ZM129.188 62.4624C129.276 62.4845 129.364 62.5032 129.452 62.5229C129.364 62.5032 129.276 62.4845 129.188 62.4624ZM106.35 62.4165C106.416 62.4359 106.483 62.4534 106.55 62.4712C106.483 62.4534 106.416 62.4359 106.35 62.4165ZM77.1396 62.4653C77.2042 62.4497 77.2683 62.4334 77.332 62.4165C77.2683 62.4334 77.2042 62.4497 77.1396 62.4653ZM168.395 62.4263C168.499 62.3979 168.603 62.3692 168.706 62.3374C168.603 62.3692 168.499 62.3979 168.395 62.4263ZM71.6367 62.355C71.719 62.3788 71.802 62.4015 71.8857 62.4233C71.802 62.4015 71.719 62.3788 71.6367 62.355ZM163.142 62.3394C163.232 62.3673 163.324 62.3912 163.416 62.4165C163.324 62.3912 163.232 62.3673 163.142 62.3394ZM183.695 62.355C183.77 62.3765 183.844 62.3966 183.92 62.4165C183.844 62.3966 183.77 62.3765 183.695 62.355ZM128.743 62.3374C128.824 62.362 128.905 62.3832 128.986 62.4058C128.905 62.3832 128.824 62.362 128.743 62.3374ZM189.496 62.3882C189.571 62.3675 189.645 62.3461 189.718 62.3237C189.645 62.3461 189.571 62.3675 189.496 62.3882ZM77.4482 62.3843C77.5181 62.3648 77.5876 62.3457 77.6562 62.3247C77.5876 62.3457 77.5181 62.3648 77.4482 62.3843ZM105.97 62.2954C106.033 62.3173 106.097 62.3375 106.161 62.3579C106.097 62.3375 106.033 62.3173 105.97 62.2954ZM183.401 62.2642C183.476 62.2886 183.552 62.3118 183.628 62.3345C183.552 62.3118 183.476 62.2886 183.401 62.2642ZM71.3525 62.2671C71.4165 62.2879 71.4809 62.3081 71.5459 62.3276C71.4809 62.3081 71.4165 62.2879 71.3525 62.2671ZM189.808 62.2954C189.878 62.273 189.948 62.251 190.018 62.2271C189.948 62.251 189.878 62.273 189.808 62.2954ZM168.852 62.2905C168.951 62.2581 169.05 62.2246 169.147 62.189C169.05 62.2246 168.951 62.2581 168.852 62.2905ZM77.7842 62.2847C77.8393 62.2669 77.8939 62.2487 77.9482 62.23C77.8939 62.2487 77.8393 62.2669 77.7842 62.2847ZM162.71 62.1938C162.79 62.2228 162.871 62.249 162.952 62.2759C162.871 62.249 162.79 62.2228 162.71 62.1938ZM128.308 62.1929C128.383 62.2201 128.46 62.2447 128.536 62.27C128.46 62.2447 128.383 62.2201 128.308 62.1929ZM105.608 62.1606C105.673 62.1864 105.738 62.2106 105.804 62.2349C105.738 62.2106 105.673 62.1864 105.608 62.1606ZM183.119 62.1665C183.184 62.19 183.249 62.2127 183.314 62.2349C183.249 62.2127 183.184 62.19 183.119 62.1665ZM71.0615 62.1675C71.1238 62.1901 71.1867 62.2115 71.25 62.2329C71.1867 62.2115 71.1238 62.1901 71.0615 62.1675ZM190.146 62.1812C190.2 62.1616 190.253 62.1411 190.306 62.1206C190.253 62.1411 190.2 62.1616 190.146 62.1812ZM78.0947 62.1782C78.1456 62.1596 78.196 62.1401 78.2461 62.1206C78.196 62.1401 78.1456 62.1596 78.0947 62.1782ZM169.27 62.1431C169.368 62.1056 169.466 62.0666 169.563 62.0259C169.466 62.0666 169.368 62.1056 169.27 62.1431ZM182.843 62.0601C182.9 62.0833 182.958 62.1063 183.017 62.1284C182.958 62.1063 182.9 62.0833 182.843 62.0601ZM162.28 62.0269C162.364 62.0618 162.449 62.0939 162.533 62.1265C162.449 62.0939 162.364 62.0618 162.28 62.0269ZM70.7979 62.0659C70.8448 62.0848 70.8919 62.1035 70.9395 62.1216C70.8919 62.1035 70.8448 62.0848 70.7979 62.0659ZM127.875 62.0249C127.948 62.0554 128.023 62.0831 128.097 62.1118C128.023 62.0831 127.948 62.0554 127.875 62.0249ZM105.248 62.0073C105.31 62.0355 105.372 62.0617 105.435 62.0884C105.372 62.0617 105.31 62.0355 105.248 62.0073ZM78.4072 62.0562C78.4449 62.0405 78.4823 62.0245 78.5195 62.0083C78.4823 62.0245 78.4449 62.0405 78.4072 62.0562ZM190.467 62.0562C190.505 62.0401 190.544 62.0239 190.582 62.0073C190.544 62.0239 190.505 62.0401 190.467 62.0562ZM182.568 61.9438C182.623 61.9683 182.679 61.9926 182.734 62.0161C182.679 61.9927 182.623 61.9683 182.568 61.9438ZM70.5244 61.9507C70.5658 61.969 70.6075 61.9866 70.6494 62.0044C70.6075 61.9866 70.5658 61.969 70.5244 61.9507ZM169.723 61.9565C169.804 61.9205 169.886 61.8845 169.967 61.8462C169.886 61.8845 169.804 61.9205 169.723 61.9565ZM190.725 61.9429C190.779 61.918 190.833 61.8927 190.886 61.8667C190.833 61.8927 190.779 61.918 190.725 61.9429ZM127.458 61.8384C127.531 61.8732 127.605 61.906 127.68 61.939C127.605 61.906 127.531 61.8732 127.458 61.8384ZM161.879 61.8472C161.946 61.8789 162.013 61.9088 162.081 61.939C162.013 61.9088 161.946 61.8789 161.879 61.8472ZM78.6787 61.936C78.7278 61.9133 78.777 61.8913 78.8252 61.8677C78.777 61.8913 78.7278 61.9133 78.6787 61.936ZM104.897 61.8364C104.961 61.8694 105.026 61.9008 105.091 61.9321C105.026 61.9008 104.961 61.8694 104.897 61.8364ZM182.295 61.8159C182.348 61.842 182.402 61.867 182.456 61.8921C182.402 61.867 182.348 61.842 182.295 61.8159ZM70.2598 61.8276C70.2937 61.8442 70.328 61.8603 70.3623 61.8765C70.328 61.8603 70.2937 61.8442 70.2598 61.8276ZM78.9629 61.7983C78.9987 61.7798 79.034 61.7607 79.0693 61.7417C79.034 61.7607 78.9987 61.7798 78.9629 61.7983ZM191.022 61.7983C191.059 61.7795 191.095 61.7601 191.131 61.7407C191.095 61.7601 191.059 61.7795 191.022 61.7983ZM69.9863 61.688C70.0289 61.7109 70.072 61.7332 70.1152 61.7554C70.072 61.7332 70.0289 61.7109 69.9863 61.688ZM104.576 61.6606C104.633 61.6932 104.69 61.7242 104.747 61.7554C104.69 61.7242 104.633 61.6932 104.576 61.6606ZM182.046 61.688C182.088 61.7109 182.132 61.7332 182.175 61.7554C182.132 61.7332 182.088 61.7109 182.046 61.688ZM170.179 61.7417C170.239 61.711 170.3 61.6799 170.359 61.6479C170.3 61.6799 170.239 61.711 170.179 61.7417ZM161.479 61.646C161.538 61.6772 161.597 61.7068 161.656 61.7368C161.597 61.7068 161.538 61.6772 161.479 61.646ZM127.065 61.6401C127.119 61.6686 127.173 61.6957 127.227 61.7231C127.173 61.6957 127.119 61.6686 127.065 61.6401ZM191.293 61.6509C191.332 61.6284 191.37 61.6047 191.408 61.5815C191.37 61.6047 191.332 61.6284 191.293 61.6509ZM79.2383 61.647C79.2695 61.629 79.3003 61.6107 79.3311 61.5923C79.3003 61.6107 79.2695 61.629 79.2383 61.647ZM181.81 61.5552C181.848 61.5779 181.887 61.6005 181.927 61.6226C181.887 61.6005 181.848 61.5779 181.81 61.5552ZM69.751 61.5562C69.7826 61.5747 69.8146 61.5927 69.8467 61.6108C69.8146 61.5927 69.7826 61.5747 69.751 61.5562ZM104.263 61.4692C104.299 61.4927 104.336 61.5157 104.373 61.5386C104.336 61.5157 104.299 61.4927 104.263 61.4692ZM170.574 61.5288C170.637 61.4932 170.7 61.4575 170.762 61.4204C170.7 61.4575 170.637 61.4932 170.574 61.5288ZM126.667 61.4155C126.725 61.4502 126.784 61.4827 126.843 61.5161C126.784 61.4827 126.725 61.4502 126.667 61.4155ZM161.086 61.4233C161.139 61.4551 161.193 61.4854 161.247 61.5161C161.193 61.4854 161.139 61.4551 161.086 61.4233ZM191.515 61.5161C191.562 61.486 191.61 61.4555 191.656 61.4243C191.61 61.4555 191.562 61.486 191.515 61.5161ZM79.4609 61.5122C79.5067 61.4833 79.552 61.4542 79.5967 61.4243C79.552 61.4542 79.5067 61.4833 79.4609 61.5122ZM69.4941 61.3979C69.5387 61.4265 69.5834 61.4551 69.6289 61.4829C69.5834 61.4551 69.5387 61.4265 69.4941 61.3979ZM181.559 61.4019C181.598 61.427 181.638 61.4515 181.678 61.4761C181.638 61.4515 181.598 61.427 181.559 61.4019ZM103.925 61.2407C103.974 61.2762 104.025 61.3108 104.075 61.3452C104.025 61.3108 103.974 61.2762 103.925 61.2407ZM79.7129 61.3442C79.7525 61.3164 79.7914 61.288 79.8301 61.2593C79.7914 61.288 79.7525 61.3163 79.7129 61.3442ZM191.772 61.3442C191.814 61.3149 191.855 61.2846 191.896 61.2544C191.855 61.2846 191.814 61.3149 191.772 61.3442ZM69.2705 61.2485C69.3115 61.2771 69.3527 61.3056 69.3945 61.3335C69.3527 61.3056 69.3115 61.2771 69.2705 61.2485ZM181.318 61.2407C181.363 61.2721 181.408 61.303 181.454 61.3335C181.408 61.303 181.363 61.2721 181.318 61.2407ZM170.948 61.3062C171.017 61.2627 171.086 61.2185 171.153 61.1733C171.086 61.2185 171.017 61.2627 170.948 61.3062ZM126.266 61.1606C126.337 61.2087 126.41 61.2552 126.483 61.3013C126.41 61.2552 126.337 61.2087 126.266 61.1606ZM160.708 61.1851C160.758 61.218 160.808 61.2497 160.858 61.2817C160.808 61.2497 160.758 61.218 160.708 61.1851ZM191.996 61.1782C192.044 61.1412 192.091 61.1042 192.137 61.0659C192.091 61.1042 192.044 61.1412 191.996 61.1782ZM181.104 61.0845C181.143 61.1141 181.183 61.1434 181.223 61.1724C181.183 61.1434 181.143 61.1141 181.104 61.0845ZM79.9492 61.1685C79.985 61.1404 80.0198 61.1113 80.0547 61.0825C80.0198 61.1113 79.985 61.1404 79.9492 61.1685ZM69.0605 61.0962C69.0887 61.1175 69.1169 61.1388 69.1455 61.1597C69.1169 61.1388 69.0887 61.1175 69.0605 61.0962ZM103.621 61.0122C103.673 61.0534 103.726 61.0934 103.779 61.1333C103.726 61.0934 103.673 61.0534 103.621 61.0122ZM171.311 61.0659C171.383 61.0158 171.454 60.9647 171.524 60.9126C171.454 60.9646 171.383 61.0158 171.311 61.0659ZM125.911 60.9116C125.98 60.9624 126.05 61.012 126.12 61.061C126.05 61.012 125.98 60.9624 125.911 60.9116ZM160.319 60.9136C160.381 60.959 160.443 61.0034 160.506 61.0474C160.443 61.0034 160.381 60.959 160.319 60.9136ZM180.895 60.9185C180.93 60.9477 180.966 60.9767 181.002 61.0054C180.966 60.9767 180.93 60.9477 180.895 60.9185ZM192.219 60.9946C192.267 60.9528 192.315 60.911 192.361 60.8677C192.315 60.911 192.267 60.9528 192.219 60.9946ZM80.1631 60.9917C80.2101 60.9509 80.2565 60.9099 80.3018 60.8677C80.2565 60.9099 80.2101 60.9509 80.1631 60.9917ZM68.8467 60.9272C68.8725 60.9485 68.8985 60.9698 68.9248 60.9907C68.8985 60.9698 68.8725 60.9485 68.8467 60.9272ZM103.319 60.7603C103.376 60.8104 103.435 60.8593 103.493 60.9077C103.435 60.8592 103.376 60.8104 103.319 60.7603ZM68.5967 60.7104C68.6413 60.7513 68.6864 60.7918 68.7324 60.8315C68.6864 60.7918 68.6413 60.7513 68.5967 60.7104ZM180.692 60.7427C180.721 60.7684 180.749 60.7945 180.778 60.8198C180.749 60.7945 180.721 60.7684 180.692 60.7427ZM80.3652 60.8071C80.4096 60.7643 80.4526 60.7204 80.4951 60.6763C80.4526 60.7204 80.4096 60.7643 80.3652 60.8071ZM192.436 60.7974C192.474 60.7596 192.512 60.7209 192.55 60.6821C192.512 60.7209 192.474 60.7596 192.436 60.7974ZM171.685 60.7925C171.749 60.7425 171.813 60.6917 171.877 60.6401C171.813 60.6917 171.749 60.7426 171.685 60.7925ZM159.968 60.6411C160.024 60.6864 160.08 60.7309 160.137 60.7749C160.08 60.7309 160.024 60.6864 159.968 60.6411ZM125.566 60.645C125.62 60.6887 125.675 60.7314 125.729 60.7739C125.675 60.7314 125.62 60.6887 125.566 60.645ZM103.054 60.5161C103.107 60.5674 103.161 60.6177 103.216 60.6675C103.161 60.6177 103.107 60.5674 103.054 60.5161ZM68.4199 60.5415C68.4571 60.5784 68.4949 60.6148 68.5332 60.6509C68.4949 60.6148 68.4571 60.5784 68.4199 60.5415ZM180.479 60.5415C180.516 60.5772 180.552 60.6129 180.589 60.6479C180.552 60.6129 180.516 60.5772 180.479 60.5415ZM80.5635 60.605C80.6002 60.5653 80.6356 60.5246 80.6709 60.4839C80.6356 60.5246 80.6002 60.5653 80.5635 60.605ZM192.643 60.5845C192.67 60.5543 192.697 60.5234 192.724 60.4927C192.697 60.5234 192.67 60.5543 192.643 60.5845ZM172.031 60.5112C172.092 60.4594 172.153 60.4073 172.213 60.354C172.153 60.4073 172.092 60.4594 172.031 60.5112ZM159.633 60.356C159.687 60.4039 159.741 60.4509 159.796 60.4976C159.741 60.4509 159.687 60.4039 159.633 60.356ZM125.219 60.3481C125.273 60.3971 125.329 60.445 125.385 60.4927C125.329 60.445 125.273 60.3971 125.219 60.3481ZM180.295 60.3511C180.332 60.3913 180.37 60.4309 180.408 60.4702C180.37 60.4309 180.332 60.3913 180.295 60.3511ZM68.2568 60.3735C68.2827 60.4013 68.3085 60.4292 68.335 60.4565C68.3085 60.4292 68.2827 60.4013 68.2568 60.3735ZM80.7588 60.3804C80.7866 60.3464 80.8131 60.3115 80.8398 60.2769C80.8131 60.3115 80.7866 60.3464 80.7588 60.3804ZM192.825 60.3735C192.851 60.342 192.875 60.309 192.899 60.2769C192.875 60.309 192.851 60.342 192.825 60.3735ZM102.781 60.2397C102.821 60.2822 102.862 60.3242 102.902 60.3657C102.862 60.3242 102.821 60.2822 102.781 60.2397ZM74.1963 60.2583V60.2573V60.2583ZM68.0459 60.1353C68.0809 60.1772 68.116 60.2191 68.1523 60.2603C68.116 60.2191 68.0809 60.1772 68.0459 60.1353ZM180.129 60.1626C180.156 60.1952 180.184 60.2282 180.212 60.2603C180.184 60.2282 180.156 60.1952 180.129 60.1626ZM124.881 60.0298C124.938 60.0861 124.995 60.1419 125.054 60.1968C124.995 60.1419 124.938 60.0861 124.881 60.0298ZM172.386 60.1968C172.444 60.1418 172.502 60.0862 172.56 60.0298C172.502 60.0862 172.444 60.1419 172.386 60.1968ZM159.284 60.0298C159.34 60.0846 159.396 60.1385 159.453 60.1919C159.396 60.1385 159.34 60.0846 159.284 60.0298ZM188.043 60.1353C187.973 60.1496 187.902 60.1622 187.83 60.1743C187.902 60.1622 187.973 60.1496 188.043 60.1353ZM80.9268 60.1626C80.9622 60.1137 80.9969 60.0644 81.0303 60.0142C80.9969 60.0644 80.9622 60.1137 80.9268 60.1626ZM192.986 60.1626C193.022 60.1137 193.056 60.0644 193.09 60.0142C193.056 60.0644 193.022 60.1137 192.986 60.1626ZM102.533 59.9634C102.578 60.0155 102.623 60.0668 102.669 60.1177C102.623 60.0668 102.578 60.0155 102.533 59.9634ZM67.8984 59.9497C67.9294 59.9902 67.96 60.031 67.9922 60.0708C67.96 60.031 67.9294 59.9902 67.8984 59.9497ZM179.973 59.9683C179.993 59.9953 180.014 60.0226 180.035 60.0493C180.014 60.0226 179.993 59.9953 179.973 59.9683ZM81.0859 59.9302C81.1176 59.8802 81.1471 59.829 81.1768 59.7778C81.1471 59.829 81.1176 59.8802 81.0859 59.9302ZM193.146 59.9302C193.177 59.8802 193.207 59.829 193.236 59.7778C193.207 59.829 193.177 59.8802 193.146 59.9302ZM172.688 59.9009C172.753 59.8348 172.816 59.7676 172.879 59.6997C172.816 59.7676 172.753 59.8349 172.688 59.9009ZM124.582 59.7212C124.633 59.7758 124.684 59.8299 124.735 59.8833C124.684 59.8299 124.633 59.7758 124.582 59.7212ZM158.965 59.6997C159.022 59.7617 159.08 59.8229 159.139 59.8833C159.08 59.8229 159.022 59.7617 158.965 59.6997ZM92.7803 59.7778C92.8867 59.8059 92.9972 59.8295 93.1133 59.8413L93.3574 59.853L93.1133 59.8403C92.9973 59.8285 92.8865 59.8058 92.7803 59.7778ZM109.011 59.8462C108.928 59.8504 108.844 59.8521 108.761 59.8521L108.762 59.853C108.929 59.853 109.095 59.8441 109.259 59.8276L109.011 59.8462ZM67.7441 59.7368C67.7709 59.7756 67.7973 59.8148 67.8252 59.853C67.7973 59.8148 67.771 59.7756 67.7441 59.7368ZM108.374 59.8384C108.493 59.8461 108.612 59.8515 108.733 59.8521C108.612 59.8515 108.493 59.8461 108.374 59.8384ZM102.295 59.6694C102.334 59.7206 102.374 59.7716 102.415 59.8218C102.374 59.7716 102.334 59.7206 102.295 59.6694ZM110.904 59.3755C110.611 59.5114 110.303 59.6211 109.986 59.7007L110.223 59.6353C110.456 59.5646 110.684 59.4774 110.904 59.3755ZM193.281 59.7007C193.319 59.6318 193.355 59.5618 193.39 59.4907C193.355 59.5618 193.319 59.6318 193.281 59.7007ZM81.2227 59.6997C81.251 59.6484 81.2774 59.596 81.3037 59.5435C81.2774 59.596 81.251 59.6484 81.2227 59.6997ZM67.5957 59.5103C67.624 59.556 67.6519 59.602 67.6816 59.647C67.6519 59.602 67.624 59.556 67.5957 59.5103ZM179.655 59.5103C179.681 59.5522 179.707 59.594 179.734 59.6353C179.707 59.594 179.681 59.5522 179.655 59.5103ZM172.998 59.5688C173.055 59.5052 173.11 59.4407 173.165 59.3755C173.11 59.4407 173.055 59.5052 172.998 59.5688ZM158.686 59.3833C158.734 59.4405 158.782 59.4972 158.832 59.5532C158.782 59.4972 158.734 59.4405 158.686 59.3833ZM124.284 59.3833C124.329 59.4372 124.375 59.4906 124.422 59.5435C124.375 59.4906 124.329 59.4372 124.284 59.3833ZM102.069 59.3618C102.108 59.417 102.147 59.4718 102.187 59.5259C102.147 59.4718 102.108 59.417 102.069 59.3618ZM193.406 59.4575C193.441 59.3845 193.473 59.3102 193.504 59.2349C193.473 59.3102 193.441 59.3845 193.406 59.4575ZM81.3535 59.4438C81.3788 59.39 81.4016 59.3349 81.4248 59.2798C81.4016 59.3349 81.3788 59.39 81.3535 59.4438ZM67.4697 59.2954C67.4937 59.3386 67.5178 59.3818 67.543 59.4243C67.5178 59.3818 67.4937 59.3386 67.4697 59.2954ZM179.529 59.2954C179.553 59.3386 179.577 59.3818 179.603 59.4243C179.577 59.3818 179.553 59.3386 179.529 59.2954ZM78.3057 58.7886C78.1715 58.9772 78.0069 59.1545 77.8115 59.3159C78.0069 59.1545 78.1715 58.9772 78.3057 58.7886ZM111.741 58.8911C111.61 58.984 111.474 59.071 111.335 59.1519C111.474 59.071 111.61 58.984 111.741 58.8911ZM101.836 59.0063C101.88 59.0784 101.926 59.1498 101.973 59.2202C101.926 59.1498 101.88 59.0784 101.836 59.0063ZM123.988 59.0122C124.04 59.0803 124.092 59.1477 124.146 59.2144C124.092 59.1477 124.04 59.0803 123.988 59.0122ZM173.303 59.2085C173.348 59.1525 173.392 59.0956 173.436 59.0386C173.392 59.0956 173.348 59.1525 173.303 59.2085ZM81.46 59.1968C81.4912 59.1182 81.52 59.0385 81.5469 58.9575C81.52 59.0385 81.4911 59.1182 81.46 59.1968ZM193.52 59.1968C193.551 59.1182 193.58 59.0385 193.606 58.9575C193.58 59.0385 193.551 59.1182 193.52 59.1968ZM158.408 59.0386C158.446 59.0877 158.484 59.1367 158.522 59.1851C158.484 59.1367 158.446 59.0877 158.408 59.0386ZM81.5566 58.9302C81.5787 58.8621 81.5982 58.7929 81.6172 58.7231C81.5982 58.7929 81.5787 58.8621 81.5566 58.9302ZM193.616 58.9302C193.638 58.8621 193.658 58.7929 193.677 58.7231C193.658 58.7929 193.638 58.8621 193.616 58.9302ZM101.666 58.7173C101.701 58.7806 101.737 58.8436 101.774 58.9058C101.737 58.8436 101.701 58.7806 101.666 58.7173ZM123.736 58.6626C123.783 58.7298 123.829 58.7968 123.877 58.8628C123.829 58.7968 123.783 58.7298 123.736 58.6626ZM173.585 58.8403C173.628 58.7818 173.669 58.7222 173.71 58.6626C173.669 58.7222 173.628 58.7818 173.585 58.8403ZM158.149 58.6851C158.182 58.7318 158.215 58.7786 158.248 58.8247C158.215 58.7786 158.182 58.7318 158.149 58.6851ZM131.57 47.6265C128.477 47.6265 126.075 50.0979 126.075 53.3071C126.076 56.2604 128.453 58.7552 131.57 58.7554C134.488 58.7553 136.926 56.5064 136.927 53.353C136.927 49.841 134.453 47.6265 131.57 47.6265ZM165.923 47.6274C162.887 47.6274 160.427 50.0404 160.427 53.1685C160.427 56.3472 162.891 58.7551 165.922 58.7554C168.953 58.7551 171.417 56.3465 171.417 53.1675C171.417 50.04 168.958 47.6279 165.923 47.6274ZM179.103 58.2837C179.148 58.436 179.2 58.5856 179.259 58.7319C179.2 58.5856 179.148 58.436 179.103 58.2837ZM78.4541 58.5522C78.4279 58.5997 78.3999 58.6466 78.3701 58.6929C78.3999 58.6466 78.4279 58.5997 78.4541 58.5522ZM81.7363 58.1323C81.7127 58.3068 81.6813 58.4769 81.6396 58.6421C81.6813 58.4769 81.7127 58.3068 81.7363 58.1323ZM193.758 58.3706C193.773 58.2922 193.785 58.2127 193.796 58.1323C193.785 58.2127 193.773 58.2922 193.758 58.3706ZM70.2568 58.2388V58.2397C70.2986 58.37 70.3598 58.4963 70.4375 58.6187C70.3597 58.4962 70.2986 58.3692 70.2568 58.2388ZM136.032 58.0942C135.848 58.2684 135.655 58.4317 135.452 58.5825C135.655 58.4318 135.848 58.2683 136.032 58.0942ZM101.488 58.3813C101.517 58.4384 101.545 58.4951 101.575 58.5513C101.545 58.4951 101.517 58.4384 101.488 58.3813ZM123.492 58.2896C123.535 58.3587 123.578 58.4276 123.623 58.4956C123.578 58.4276 123.535 58.3587 123.492 58.2896ZM173.831 58.4839C173.873 58.42 173.914 58.3555 173.955 58.2905C173.914 58.3555 173.873 58.42 173.831 58.4839ZM157.889 58.2905C157.926 58.3497 157.963 58.409 158.001 58.4673C157.963 58.409 157.926 58.3497 157.889 58.2905ZM101.32 58.021C101.349 58.0878 101.378 58.1545 101.409 58.2202C101.378 58.1545 101.349 58.0878 101.32 58.021ZM123.27 57.9116C123.305 57.9748 123.34 58.0378 123.377 58.1001C123.34 58.0378 123.305 57.9748 123.27 57.9116ZM157.646 57.8794C157.684 57.9488 157.723 58.0181 157.764 58.0864C157.723 58.0181 157.684 57.9488 157.646 57.8794ZM174.08 58.0864C174.121 58.0181 174.159 57.9488 174.198 57.8794C174.159 57.9488 174.121 58.0181 174.08 58.0864ZM91.2441 57.7661C91.2436 57.7593 91.2436 57.7524 91.2432 57.7456C91.2436 57.7524 91.2436 57.7593 91.2441 57.7661ZM101.173 57.6597C101.197 57.7242 101.222 57.7884 101.248 57.8521C101.222 57.7884 101.197 57.7242 101.173 57.6597ZM78.7109 57.063C78.7299 57.1868 78.7392 57.3175 78.7393 57.4556H78.7402C78.7402 57.3171 78.73 57.1861 78.7109 57.062V57.063ZM123.042 57.4771C123.081 57.5563 123.12 57.6354 123.161 57.7134C123.12 57.6354 123.081 57.5563 123.042 57.4771ZM174.292 57.7085C174.336 57.6249 174.38 57.5406 174.422 57.4556C174.38 57.5406 174.336 57.6249 174.292 57.7085ZM157.438 57.4878C157.471 57.5529 157.503 57.6179 157.537 57.6821C157.503 57.6179 157.471 57.5529 157.438 57.4878ZM171.389 49.4263C171.507 49.6025 171.617 49.7849 171.719 49.9731C171.972 50.4439 172.171 50.9508 172.307 51.4858C172.361 51.6999 172.405 51.9185 172.438 52.1411C172.472 52.3639 172.494 52.5906 172.506 52.8208C172.512 52.9357 172.515 53.0519 172.515 53.1685C172.515 53.2865 172.512 53.4037 172.506 53.52C172.494 53.7527 172.472 53.9817 172.438 54.2065C172.405 54.4313 172.361 54.6517 172.307 54.8677C172.171 55.4082 171.973 55.9196 171.719 56.394C171.617 56.5837 171.507 56.7675 171.389 56.9448C171.33 57.0334 171.268 57.1203 171.205 57.2056C171.089 57.3618 170.966 57.512 170.838 57.6567C171.88 56.4829 172.515 54.9194 172.515 53.1675C172.515 51.7671 172.099 50.4838 171.389 49.4263ZM190.799 57.4556H190.8H190.799ZM101.017 57.2056C101.048 57.3078 101.082 57.4091 101.117 57.5093C101.082 57.4091 101.048 57.3078 101.017 57.2056ZM122.856 57.0767C122.892 57.1585 122.928 57.2401 122.966 57.3208C122.928 57.2401 122.892 57.1585 122.856 57.0767ZM174.499 57.2974C174.541 57.2077 174.581 57.117 174.621 57.0259C174.581 57.117 174.541 57.2077 174.499 57.2974ZM157.239 57.063C157.271 57.1355 157.302 57.2082 157.336 57.2798C157.302 57.2082 157.271 57.1355 157.239 57.063ZM100.91 56.8286C100.938 56.938 100.967 57.0466 101 57.1538C100.967 57.0466 100.938 56.938 100.91 56.8286ZM122.686 56.6558C122.716 56.7365 122.747 56.8172 122.779 56.897C122.747 56.8172 122.716 56.7365 122.686 56.6558ZM174.684 56.8804C174.721 56.79 174.756 56.6987 174.791 56.6069C174.756 56.6987 174.721 56.79 174.684 56.8804ZM157.053 56.6069C157.086 56.6953 157.119 56.7836 157.155 56.8706C157.119 56.7836 157.086 56.6953 157.053 56.6069ZM100.811 56.3979C100.836 56.5225 100.863 56.6459 100.894 56.7681C100.863 56.6459 100.836 56.5225 100.811 56.3979ZM78.5664 56.5493C78.4992 56.3928 78.4132 56.2508 78.3125 56.1206C78.3797 56.2075 78.4405 56.2996 78.4932 56.3979C78.5193 56.4468 78.5431 56.4974 78.5654 56.5493H78.5664ZM122.533 56.2222C122.563 56.3135 122.593 56.4045 122.625 56.4946C122.593 56.4045 122.563 56.3135 122.533 56.2222ZM156.904 56.186C156.933 56.2737 156.961 56.3613 156.992 56.4478C156.961 56.3613 156.933 56.2737 156.904 56.186ZM174.852 56.4478C174.884 56.3578 174.913 56.2665 174.942 56.1753C174.913 56.2665 174.884 56.3578 174.852 56.4478ZM100.741 56.0034C100.761 56.1322 100.782 56.2599 100.808 56.3862C100.782 56.2599 100.761 56.1322 100.741 56.0034ZM137.626 55.6636C137.699 55.4613 137.763 55.2535 137.817 55.0405C137.763 55.2535 137.699 55.4613 137.626 55.6636ZM190.267 55.9937C190.193 55.9122 190.112 55.8366 190.025 55.7651C190.112 55.8366 190.193 55.9122 190.267 55.9937ZM122.414 55.8237C122.435 55.9014 122.456 55.9792 122.479 56.0562C122.456 55.9792 122.435 55.9014 122.414 55.8237ZM175.002 55.9946C175.032 55.8945 175.06 55.7934 175.087 55.6919C175.06 55.7934 175.032 55.8945 175.002 55.9946ZM156.78 55.7739C156.8 55.8454 156.818 55.9171 156.84 55.9878C156.818 55.9171 156.8 55.8454 156.78 55.7739ZM100.688 55.5884C100.701 55.7174 100.718 55.8453 100.736 55.9722C100.718 55.8453 100.701 55.7174 100.688 55.5884ZM103.575 55.2612C103.587 55.3864 103.605 55.5096 103.625 55.6313C103.605 55.5096 103.587 55.3864 103.575 55.2612ZM122.294 55.3354C122.314 55.4269 122.333 55.5184 122.355 55.6089C122.333 55.5184 122.314 55.4269 122.294 55.3354ZM100.646 54.7358C100.646 55.0166 100.66 55.2931 100.687 55.5649C100.66 55.2931 100.646 55.0166 100.646 54.7358ZM175.125 55.5522C175.143 55.4805 175.158 55.4079 175.175 55.3354C175.158 55.4079 175.143 55.4805 175.125 55.5522ZM156.661 55.2993C156.678 55.3754 156.694 55.4515 156.713 55.5269C156.694 55.4515 156.678 55.3754 156.661 55.2993ZM185.037 54.2817C185.24 54.3315 185.445 54.3791 185.65 54.4233C185.86 54.4684 186.07 54.511 186.28 54.5513C187.024 54.6896 187.845 54.821 188.581 55.0483C188.704 55.0862 188.824 55.1267 188.941 55.1704C189.118 55.2361 189.287 55.3087 189.446 55.3901C188.544 54.9298 187.334 54.7472 186.281 54.5513C185.865 54.4715 185.448 54.3824 185.037 54.2817ZM122.199 54.8423C122.217 54.9496 122.235 55.0565 122.256 55.1626C122.235 55.0565 122.217 54.9496 122.199 54.8423ZM156.564 54.8071C156.579 54.8957 156.594 54.9841 156.611 55.0718C156.594 54.9841 156.579 54.8957 156.564 54.8071ZM122.129 54.3257C122.143 54.4569 122.158 54.5876 122.178 54.7173C122.158 54.5876 122.143 54.4569 122.129 54.3257ZM156.485 54.2485C156.499 54.3697 156.514 54.4902 156.531 54.6099C156.514 54.4902 156.499 54.3697 156.485 54.2485ZM122.073 53.3062C122.073 53.1384 122.076 52.9717 122.084 52.8062C122.076 52.9717 122.073 53.1384 122.073 53.3062ZM184.442 54.1255C184.591 54.1674 184.742 54.2054 184.894 54.2437C184.742 54.2054 184.591 54.1674 184.442 54.1255ZM156.457 53.9312C156.462 54 156.465 54.0688 156.472 54.1372C156.465 54.0688 156.462 54 156.457 53.9312ZM183.863 53.9487C183.97 53.9835 184.077 54.0159 184.186 54.0483C184.077 54.0159 183.97 53.9835 183.863 53.9487ZM159.363 53.8657C159.367 53.8997 159.372 53.9334 159.376 53.9673C159.371 53.9263 159.365 53.8855 159.361 53.8442L159.363 53.8657ZM125.005 52.689C124.988 52.8921 124.978 53.0979 124.978 53.3062C124.978 53.4171 124.981 53.5275 124.986 53.6372L124.978 53.3062C124.978 53.0979 124.988 52.8921 125.005 52.689ZM183.268 53.7388C183.319 53.7586 183.371 53.7773 183.423 53.7964C183.371 53.7773 183.319 53.7586 183.268 53.7388ZM138.025 53.3521C138.025 52.4543 137.883 51.6229 137.626 50.8716C137.7 51.0865 137.763 51.308 137.817 51.5356C137.844 51.6493 137.869 51.7646 137.891 51.8813C137.934 52.1147 137.968 52.354 137.99 52.5991C138.013 52.8445 138.024 53.0955 138.024 53.3521H138.025ZM183.012 53.6362C183.059 53.656 183.107 53.6757 183.155 53.6948C183.107 53.6757 183.059 53.656 183.012 53.6362ZM182.731 53.5151C182.782 53.538 182.833 53.5604 182.884 53.5825C182.833 53.5604 182.782 53.538 182.731 53.5151ZM182.418 53.3647C182.484 53.3981 182.551 53.4315 182.619 53.4634C182.551 53.4315 182.484 53.3981 182.418 53.3647ZM182.191 53.2466C182.254 53.2805 182.317 53.3137 182.381 53.3462C182.317 53.3137 182.254 53.2805 182.191 53.2466ZM181.932 53.0981C181.985 53.1302 182.039 53.162 182.094 53.1929C182.039 53.162 181.985 53.1302 181.932 53.0981ZM181.667 52.9321C181.655 52.924 181.642 52.9169 181.63 52.9087L181.615 52.8989C181.632 52.9104 181.65 52.9208 181.667 52.9321ZM125.047 52.2935C125.032 52.4007 125.02 52.5088 125.01 52.6177C125.02 52.5088 125.032 52.4007 125.047 52.2935ZM156.473 52.2007C156.469 52.2367 156.467 52.2729 156.464 52.3091C156.467 52.2729 156.469 52.2367 156.473 52.2007ZM180.789 52.2134C180.806 52.2303 180.823 52.2465 180.84 52.2632C180.823 52.2465 180.806 52.2303 180.789 52.2134ZM122.179 51.8286C122.163 51.9373 122.151 52.0468 122.139 52.1567C122.151 52.0468 122.163 51.9373 122.179 51.8286ZM180.596 52.0054C180.622 52.036 180.65 52.0653 180.678 52.0952C180.65 52.0653 180.622 52.036 180.596 52.0054ZM156.532 51.7241C156.522 51.7941 156.515 51.8646 156.506 51.9351C156.515 51.8646 156.522 51.7941 156.532 51.7241ZM180.429 51.8003C180.455 51.8344 180.483 51.8675 180.51 51.9009C180.483 51.8675 180.455 51.8344 180.429 51.8003ZM159.848 50.5552C159.723 50.8542 159.618 51.1649 159.537 51.4858C159.618 51.1649 159.723 50.8542 159.848 50.5552ZM180.268 51.5767C180.293 51.6137 180.319 51.6499 180.345 51.686C180.319 51.6499 180.293 51.6137 180.268 51.5767ZM122.258 51.3638C122.241 51.4482 122.228 51.5334 122.214 51.6187C122.228 51.5334 122.241 51.4482 122.258 51.3638ZM156.618 51.2437C156.598 51.342 156.581 51.4411 156.564 51.5405C156.581 51.4411 156.598 51.342 156.618 51.2437ZM180.111 51.3247C180.138 51.3709 180.165 51.4165 180.193 51.4614C180.165 51.4165 180.138 51.3709 180.111 51.3247ZM179.988 51.0952C180.012 51.1427 180.036 51.1896 180.062 51.2358C180.036 51.1896 180.012 51.1427 179.988 51.0952ZM122.356 50.9097C122.336 50.994 122.319 51.0793 122.301 51.1646C122.319 51.0793 122.336 50.994 122.356 50.9097ZM156.716 50.8159C156.702 50.8713 156.69 50.9272 156.677 50.9829C156.69 50.9271 156.702 50.8713 156.716 50.8159ZM179.871 50.8374C179.888 50.8788 179.905 50.92 179.924 50.9604C179.905 50.92 179.888 50.8788 179.871 50.8374ZM183.25 50.5239C183.403 50.6419 183.583 50.7569 183.795 50.8706C183.583 50.757 183.403 50.6419 183.25 50.5239ZM179.779 50.5981C179.792 50.6349 179.805 50.6715 179.818 50.7075C179.805 50.6715 179.792 50.6349 179.779 50.5981ZM122.484 50.4351C122.467 50.4936 122.452 50.5528 122.436 50.6118C122.452 50.5528 122.467 50.4936 122.484 50.4351ZM156.839 50.3716C156.825 50.4178 156.813 50.4647 156.8 50.5112C156.813 50.4647 156.825 50.4178 156.839 50.3716ZM179.676 50.2603C179.69 50.3156 179.705 50.3704 179.722 50.4243C179.705 50.3704 179.69 50.3156 179.676 50.2603ZM70.7891 50.1431C70.7459 50.0916 70.7082 50.0392 70.6729 49.9878C70.7082 50.0392 70.7459 50.0916 70.7891 50.1431ZM122.627 49.9917C122.596 50.0804 122.568 50.1703 122.54 50.2603C122.568 50.1703 122.596 50.0804 122.627 49.9917ZM179.609 49.9731C179.622 50.0378 179.635 50.1017 179.65 50.1646C179.635 50.1017 179.622 50.0378 179.609 49.9731ZM156.991 49.9126C156.963 49.991 156.937 50.0705 156.911 50.1499C156.937 50.0705 156.963 49.991 156.991 49.9126ZM179.558 49.6636C179.566 49.7255 179.574 49.7868 179.584 49.8472C179.574 49.7868 179.566 49.7255 179.558 49.6636ZM122.794 49.5474C122.757 49.6386 122.723 49.731 122.688 49.8237C122.723 49.731 122.757 49.6386 122.794 49.5474ZM157.156 49.4868C157.124 49.5654 157.094 49.6454 157.063 49.7251C157.094 49.6454 157.124 49.5654 157.156 49.4868ZM179.517 49.2632C179.523 49.3597 179.53 49.4544 179.541 49.5474C179.53 49.4544 179.523 49.3597 179.517 49.2632ZM122.97 49.1392C122.932 49.222 122.896 49.306 122.86 49.3901C122.896 49.306 122.932 49.222 122.97 49.1392ZM157.343 49.0688C157.306 49.1468 157.271 49.226 157.236 49.3052C157.271 49.226 157.306 49.1468 157.343 49.0688ZM161.977 47.8276C161.638 48.0798 161.326 48.3648 161.042 48.6772C161.326 48.3647 161.638 48.0798 161.977 47.8276ZM179.541 48.2622C179.517 48.4619 179.504 48.6681 179.504 48.8804C179.504 48.6681 179.517 48.4619 179.541 48.2622ZM182.426 48.6138C182.414 48.7012 182.408 48.7902 182.408 48.8804H182.409C182.409 48.7902 182.414 48.7012 182.426 48.6138ZM123.168 48.7319C123.128 48.8097 123.089 48.8882 123.051 48.9673C123.089 48.8882 123.128 48.8097 123.168 48.7319ZM157.553 48.6528C157.509 48.7342 157.468 48.8171 157.427 48.8999C157.468 48.8171 157.509 48.7342 157.553 48.6528ZM133.765 46.9058C134.748 47.2576 135.627 47.846 136.327 48.6313C135.627 47.8459 134.748 47.2576 133.765 46.9058ZM67.4814 48.2622C67.4594 48.4432 67.4484 48.6295 67.4463 48.8208C67.4484 48.6294 67.4594 48.4433 67.4814 48.2622ZM70.3779 48.5405C70.3811 48.5222 70.385 48.504 70.3887 48.4858C70.385 48.504 70.3811 48.5222 70.3779 48.5405ZM123.389 48.3286C123.353 48.3905 123.319 48.4533 123.284 48.5161C123.319 48.4533 123.353 48.3905 123.389 48.3286ZM157.775 48.2622C157.731 48.336 157.689 48.4108 157.646 48.4858C157.689 48.4108 157.731 48.336 157.775 48.2622ZM182.479 48.355C182.467 48.3969 182.457 48.4392 182.448 48.4819C182.457 48.4392 182.467 48.3969 182.479 48.355ZM193.427 48.3267V48.3276V48.3267ZM123.629 47.9351C123.587 47.9998 123.547 48.0655 123.507 48.1313C123.547 48.0655 123.587 47.9998 123.629 47.9351ZM158.015 47.8823C157.971 47.948 157.929 48.0147 157.887 48.0815C157.929 48.0147 157.971 47.948 158.015 47.8823ZM179.587 47.9634C179.58 47.9982 179.576 48.0336 179.57 48.0688C179.576 48.0336 179.58 47.9982 179.587 47.9634ZM81.2061 47.811H81.207H81.2061ZM67.5254 47.9712C67.5204 47.9983 67.5182 48.0259 67.5137 48.0532C67.5182 48.0259 67.5204 47.9983 67.5254 47.9712ZM67.5908 47.6763C67.5811 47.7146 67.5732 47.7536 67.5645 47.7925C67.5732 47.7536 67.5811 47.7146 67.5908 47.6763ZM179.651 47.6714C179.641 47.7113 179.633 47.7519 179.624 47.7925C179.633 47.7519 179.641 47.7113 179.651 47.6714ZM182.821 47.6548C182.979 47.4385 183.179 47.2404 183.414 47.0649C183.179 47.2404 182.979 47.4385 182.821 47.6548ZM123.883 47.561C123.841 47.6197 123.8 47.6791 123.76 47.7388C123.8 47.6791 123.841 47.6197 123.883 47.561ZM158.281 47.5015C158.236 47.5633 158.192 47.626 158.147 47.689C158.192 47.626 158.236 47.5633 158.281 47.5015ZM67.668 47.4058C67.6579 47.437 67.65 47.4689 67.6406 47.5005C67.65 47.4689 67.6579 47.437 67.668 47.4058ZM179.729 47.4038C179.718 47.4357 179.71 47.4682 179.7 47.5005C179.71 47.4682 179.718 47.4357 179.729 47.4038ZM77.1992 46.9478C77.3644 47.0508 77.5155 47.1631 77.6504 47.2837C77.5155 47.1631 77.3644 47.0509 77.1992 46.9478ZM124.16 47.1909C124.112 47.2514 124.066 47.3128 124.02 47.3745C124.066 47.3128 124.112 47.2514 124.16 47.1909ZM158.551 47.1519C158.499 47.2163 158.448 47.2823 158.397 47.3481C158.448 47.2823 158.499 47.2163 158.551 47.1519ZM80.6055 46.6235H80.6064H80.6055ZM179.829 47.1226C179.806 47.1796 179.787 47.238 179.767 47.2964C179.787 47.238 179.806 47.1796 179.829 47.1226ZM67.7617 47.1431C67.7515 47.1691 67.7431 47.1959 67.7334 47.2222C67.7431 47.1959 67.7515 47.1691 67.7617 47.1431ZM124.442 46.8511C124.388 46.9135 124.335 46.9766 124.282 47.0405C124.335 46.9766 124.388 46.9135 124.442 46.8511ZM179.938 46.8735C179.914 46.9242 179.892 46.976 179.87 47.0278C179.892 46.976 179.914 46.9242 179.938 46.8735ZM158.85 46.8022C158.791 46.8676 158.733 46.9335 158.677 47.0005C158.733 46.9335 158.791 46.8676 158.85 46.8022ZM67.8779 46.8735C67.8627 46.9059 67.8495 46.9393 67.835 46.9722C67.8495 46.9393 67.8627 46.9059 67.8779 46.8735ZM138.025 46.8511V46.8521V46.8511ZM68.0068 46.6235C67.9789 46.6742 67.9528 46.7259 67.9268 46.7778C67.9528 46.7259 67.9789 46.6742 68.0068 46.6235ZM180.066 46.6235C180.038 46.6742 180.012 46.7259 179.986 46.7778C180.012 46.7259 180.038 46.6742 180.066 46.6235ZM124.76 46.5034C124.7 46.5661 124.64 46.6295 124.582 46.6938C124.64 46.6295 124.7 46.5661 124.76 46.5034ZM159.154 46.4751C159.089 46.5412 159.026 46.6083 158.963 46.6763C159.026 46.6083 159.089 46.5412 159.154 46.4751ZM132.539 46.5991V46.6001V46.5991ZM130.881 46.563C130.795 46.5717 130.709 46.5833 130.624 46.5952C130.821 46.5676 131.02 46.5478 131.223 46.5376L130.881 46.563ZM68.1475 46.3862C68.1195 46.4302 68.0929 46.475 68.0664 46.52C68.0929 46.475 68.1195 46.4302 68.1475 46.3862ZM180.207 46.3862C180.179 46.4302 180.152 46.475 180.126 46.52C180.152 46.475 180.179 46.4302 180.207 46.3862ZM125.058 46.2065C124.997 46.2643 124.937 46.3229 124.878 46.3823C124.937 46.3229 124.997 46.2643 125.058 46.2065ZM159.446 46.1909C159.4 46.2344 159.354 46.2784 159.309 46.3228C159.354 46.2784 159.4 46.2344 159.446 46.1909ZM68.2979 46.1636C68.2719 46.1994 68.2475 46.2363 68.2227 46.2729C68.2475 46.2363 68.2719 46.1994 68.2979 46.1636ZM180.357 46.1636C180.332 46.1994 180.307 46.2363 180.282 46.2729C180.307 46.2363 180.332 46.1994 180.357 46.1636ZM68.4648 45.9458C68.4372 45.9796 68.4114 46.0148 68.3848 46.0493C68.4114 46.0148 68.4372 45.9796 68.4648 45.9458ZM180.524 45.9458C180.497 45.9796 180.471 46.0148 180.444 46.0493C180.471 46.0148 180.497 45.9796 180.524 45.9458ZM125.372 45.9204C125.326 45.9602 125.28 45.9998 125.235 46.0405C125.28 45.9998 125.326 45.9602 125.372 45.9204ZM159.828 45.8521C159.761 45.9087 159.694 45.9655 159.628 46.0239C159.694 45.9655 159.761 45.9087 159.828 45.8521ZM68.6416 45.7427C68.6184 45.7681 68.5959 45.794 68.5732 45.8198C68.5959 45.794 68.6184 45.7681 68.6416 45.7427ZM180.703 45.7397C180.679 45.766 180.656 45.7931 180.633 45.8198C180.656 45.7931 180.679 45.766 180.703 45.7397ZM125.733 45.6206C125.68 45.6622 125.628 45.7048 125.576 45.7476C125.628 45.7048 125.68 45.6622 125.733 45.6206ZM160.166 45.5796C160.096 45.633 160.027 45.6873 159.959 45.7427C160.027 45.6873 160.096 45.6331 160.166 45.5796ZM180.897 45.5386C180.866 45.5689 180.837 45.6004 180.807 45.6313C180.837 45.6004 180.866 45.5689 180.897 45.5386ZM68.8291 45.5483C68.8044 45.5726 68.78 45.5969 68.7559 45.6216C68.78 45.5969 68.8044 45.5726 68.8291 45.5483ZM126.09 45.355C126.032 45.3959 125.975 45.4368 125.918 45.479C125.975 45.4368 126.032 45.3959 126.09 45.355ZM160.506 45.3306C160.442 45.3753 160.378 45.421 160.315 45.4673C160.378 45.421 160.442 45.3753 160.506 45.3306ZM69.0449 45.3481C69.0138 45.3754 68.9835 45.4033 68.9531 45.4312C68.9835 45.4033 69.0138 45.3754 69.0449 45.3481ZM181.092 45.3589C181.069 45.379 181.047 45.3999 181.024 45.4204C181.047 45.3999 181.069 45.379 181.092 45.3589ZM78.8955 44.9214C79.0491 45.0245 79.1976 45.1327 79.3398 45.2466C79.1975 45.1327 79.0491 45.0245 78.8955 44.9214ZM69.251 45.1772C69.2224 45.1999 69.194 45.2225 69.166 45.2456C69.194 45.2225 69.2224 45.1999 69.251 45.1772ZM181.32 45.1685C181.288 45.1937 181.257 45.2197 181.226 45.2456C181.257 45.2197 181.288 45.1937 181.32 45.1685ZM126.471 45.0981C126.408 45.1381 126.346 45.1779 126.284 45.2192C126.346 45.1779 126.408 45.1381 126.471 45.0981ZM160.874 45.0864C160.817 45.1226 160.76 45.1585 160.703 45.1958C160.76 45.1585 160.817 45.1226 160.874 45.0864ZM181.549 44.9985C181.511 45.0255 181.473 45.0518 181.436 45.0796C181.473 45.0518 181.511 45.0255 181.549 44.9985ZM69.4893 44.9985C69.4529 45.0244 69.4165 45.0501 69.3809 45.0767C69.4165 45.0501 69.4529 45.0244 69.4893 44.9985ZM126.863 44.8618C126.796 44.9001 126.729 44.9381 126.663 44.978C126.729 44.9381 126.796 44.9001 126.863 44.8618ZM161.281 44.8433C161.214 44.8815 161.146 44.9197 161.079 44.9595C161.146 44.9196 161.214 44.8815 161.281 44.8433ZM69.7324 44.8335C69.6909 44.86 69.65 44.8872 69.6094 44.9146C69.65 44.8872 69.6909 44.86 69.7324 44.8335ZM181.782 44.8403C181.744 44.8648 181.706 44.8894 181.669 44.9146C181.706 44.8894 181.744 44.8648 181.782 44.8403ZM69.9883 44.6782C69.9365 44.708 69.8856 44.739 69.835 44.77C69.8856 44.739 69.9365 44.708 69.9883 44.6782ZM182.009 44.7007C181.979 44.7178 181.951 44.7359 181.922 44.7534C181.951 44.7359 181.979 44.7178 182.009 44.7007ZM127.266 44.645C127.197 44.6801 127.128 44.7148 127.06 44.7515C127.128 44.7148 127.197 44.6801 127.266 44.645ZM161.719 44.6108C161.631 44.6544 161.544 44.6985 161.458 44.7446C161.544 44.6985 161.631 44.6544 161.719 44.6108ZM70.2275 44.5474C70.1849 44.5696 70.1425 44.5918 70.1006 44.6147C70.1425 44.5918 70.1849 44.5696 70.2275 44.5474ZM182.278 44.5522C182.244 44.57 182.21 44.5877 182.177 44.606C182.21 44.5877 182.244 44.57 182.278 44.5522ZM127.664 44.4536C127.598 44.4834 127.531 44.5122 127.466 44.5435C127.531 44.5122 127.598 44.4834 127.664 44.4536ZM162.123 44.4224C162.034 44.4616 161.944 44.5006 161.856 44.5425C161.944 44.5005 162.034 44.4616 162.123 44.4224ZM76.2197 43.8169C76.8224 43.9435 77.3893 44.1302 77.9121 44.3706C77.5637 44.2104 77.1956 44.074 76.8105 43.9634C76.6181 43.9081 76.4214 43.8591 76.2207 43.8169H76.2197ZM70.4902 44.4175C70.4457 44.4384 70.4013 44.4593 70.3574 44.481C70.4013 44.4593 70.4457 44.4383 70.4902 44.4175ZM182.558 44.4146C182.511 44.4365 182.463 44.4581 182.417 44.481C182.463 44.4581 182.511 44.4365 182.558 44.4146ZM128.117 44.2642C128.038 44.2947 127.96 44.3244 127.882 44.3569C127.96 44.3244 128.038 44.2947 128.117 44.2642ZM182.843 44.2886C182.789 44.3108 182.736 44.3327 182.684 44.356C182.736 44.3327 182.789 44.3108 182.843 44.2886ZM162.53 44.2554C162.446 44.2879 162.361 44.3191 162.277 44.354C162.361 44.3191 162.446 44.2879 162.53 44.2554ZM70.7969 44.2827C70.7428 44.3051 70.689 44.3276 70.6357 44.3511C70.689 44.3276 70.7428 44.3051 70.7969 44.2827ZM71.0996 44.1646C71.0259 44.1914 70.9531 44.2197 70.8809 44.2485C70.9531 44.2197 71.0259 44.1914 71.0996 44.1646ZM183.095 44.189C183.05 44.2056 183.006 44.2223 182.962 44.2397C183.006 44.2223 183.05 44.2056 183.095 44.189ZM128.556 44.1069C128.468 44.1358 128.381 44.1644 128.295 44.1958C128.381 44.1644 128.468 44.1358 128.556 44.1069ZM162.913 44.1177C162.848 44.1396 162.782 44.1598 162.718 44.1831C162.782 44.1598 162.848 44.1396 162.913 44.1177ZM71.3936 44.064C71.3184 44.0882 71.2438 44.113 71.1699 44.1392C71.2438 44.113 71.3184 44.0882 71.3936 44.064ZM183.402 44.0815C183.356 44.0969 183.309 44.1113 183.263 44.1274C183.309 44.1113 183.356 44.0969 183.402 44.0815ZM128.986 43.9761C128.905 43.9986 128.824 44.0198 128.744 44.0444C128.824 44.0198 128.905 43.9986 128.986 43.9761ZM71.6875 43.9751C71.6117 43.9965 71.5366 44.0192 71.4619 44.0425C71.5366 44.0192 71.6117 43.9965 71.6875 43.9751ZM183.702 43.9888C183.646 44.0049 183.59 44.0205 183.535 44.0376C183.59 44.0205 183.646 44.0049 183.702 43.9888ZM163.283 44.0005C163.243 44.0121 163.203 44.0225 163.163 44.0347C163.203 44.0225 163.243 44.0121 163.283 44.0005ZM71.9932 43.895C71.9142 43.9142 71.8357 43.9343 71.7578 43.9556C71.8357 43.9343 71.9142 43.9142 71.9932 43.895ZM184.01 43.9058C183.952 43.9201 183.894 43.9342 183.837 43.9497C183.894 43.9342 183.952 43.9201 184.01 43.9058ZM129.442 43.8608C129.358 43.8799 129.273 43.8981 129.189 43.9194C129.273 43.8981 129.358 43.8799 129.442 43.8608ZM163.777 43.8716C163.719 43.8851 163.661 43.8971 163.604 43.9116C163.661 43.8971 163.719 43.8851 163.777 43.8716ZM72.249 43.8374C72.1886 43.8502 72.1282 43.8625 72.0684 43.8765C72.1282 43.8625 72.1886 43.8502 72.249 43.8374ZM184.324 43.8335C184.259 43.8471 184.195 43.8615 184.131 43.8765C184.195 43.8615 184.259 43.8471 184.324 43.8335ZM130.02 43.7485C129.895 43.7685 129.772 43.7893 129.649 43.814C129.772 43.7893 129.895 43.7685 130.02 43.7485ZM164.405 43.7476C164.282 43.7675 164.16 43.7883 164.038 43.813C164.16 43.7883 164.282 43.7675 164.405 43.7476ZM184.6 43.7798C184.546 43.7893 184.493 43.7987 184.44 43.8091C184.493 43.7987 184.546 43.7893 184.6 43.7798ZM72.6035 43.7681C72.5309 43.7806 72.4586 43.794 72.3867 43.8081C72.4586 43.794 72.5309 43.7806 72.6035 43.7681ZM72.9033 43.7222C72.8312 43.7323 72.7591 43.7417 72.6875 43.7534C72.7591 43.7417 72.8312 43.7323 72.9033 43.7222ZM184.879 43.7349C184.843 43.7402 184.807 43.7438 184.771 43.7495C184.807 43.7438 184.843 43.7402 184.879 43.7349ZM130.376 43.6987C130.285 43.7098 130.195 43.7203 130.105 43.7339C130.195 43.7203 130.285 43.7098 130.376 43.6987ZM165.184 43.6558C164.95 43.6739 164.717 43.6979 164.488 43.7329C164.717 43.6979 164.95 43.6739 165.184 43.6558ZM185.283 43.6821C185.213 43.6896 185.143 43.6976 185.073 43.7065C185.143 43.6976 185.213 43.6896 185.283 43.6821ZM73.1963 43.686C73.1366 43.6926 73.0769 43.698 73.0176 43.7056C73.0769 43.698 73.1366 43.6926 73.1963 43.686ZM74.3145 43.6245C74.5364 43.6245 74.7552 43.6314 74.9707 43.646C74.7552 43.6314 74.5364 43.6245 74.3145 43.6245ZM73.9531 43.6304C73.7457 43.6375 73.5394 43.6509 73.335 43.6704C73.5394 43.6509 73.7457 43.6375 73.9531 43.6304ZM185.506 43.6606C185.467 43.6639 185.429 43.6667 185.391 43.6704C185.429 43.6667 185.467 43.6639 185.506 43.6606ZM93.1924 43.1138C93.2062 43.091 93.2199 43.0683 93.2334 43.0454C93.2199 43.0683 93.2062 43.091 93.1924 43.1138ZM90.623 42.1489C90.5732 42.2447 90.519 42.3364 90.4609 42.4243C90.519 42.3364 90.5732 42.2446 90.623 42.1489ZM93.418 42.7056C93.4249 42.6916 93.4316 42.6776 93.4385 42.6636C93.4316 42.6776 93.4249 42.6916 93.418 42.7056ZM93.5889 42.3247C93.6012 42.2941 93.6142 42.2638 93.626 42.2329C93.6142 42.2638 93.6012 42.2941 93.5889 42.3247ZM93.665 42.1245C93.6793 42.0844 93.6937 42.0442 93.707 42.0034C93.6937 42.0442 93.6792 42.0844 93.665 42.1245ZM93.7402 41.8989C93.7505 41.865 93.7599 41.8307 93.7695 41.7964C93.7599 41.8307 93.7505 41.865 93.7402 41.8989ZM91.084 40.314C91.0531 40.8148 90.9669 41.2809 90.8193 41.6958L90.9209 41.3677C91.008 41.0402 91.061 40.6867 91.084 40.314ZM93.7988 41.687C93.8074 41.6538 93.8152 41.6202 93.8232 41.5864C93.8152 41.6202 93.8074 41.6537 93.7988 41.687ZM93.8555 41.4448C93.8609 41.4193 93.866 41.3935 93.8711 41.3677C93.866 41.3935 93.8609 41.4193 93.8555 41.4448ZM93.9336 40.9888C93.9409 40.9341 93.948 40.8788 93.9541 40.8228C93.948 40.8788 93.9409 40.9341 93.9336 40.9888ZM149.407 34.1812C151.212 34.1812 152.719 35.6876 152.719 37.4927C152.719 39.3586 151.197 40.8032 149.407 40.8032C147.556 40.8031 146.097 39.3428 146.097 37.4917C146.097 35.7019 147.542 34.1813 149.407 34.1812ZM93.9854 40.4702C93.9805 40.5483 93.9748 40.6252 93.9678 40.7007C93.9753 40.6195 93.9812 40.5368 93.9863 40.4526L93.9854 40.4702ZM149.624 39.6938C149.553 39.7009 149.48 39.7056 149.407 39.7056C149.253 39.7055 149.103 39.69 148.959 39.6616C149.031 39.6757 149.104 39.6876 149.178 39.6948L149.407 39.7056C149.48 39.7056 149.553 39.7009 149.624 39.6938ZM148.754 39.6108C148.805 39.6259 148.856 39.6384 148.908 39.6499C148.856 39.6384 148.804 39.6259 148.754 39.6108ZM149.922 39.6421C149.961 39.6327 150 39.6233 150.038 39.6118C150 39.6232 149.961 39.6327 149.922 39.6421ZM150.112 39.5874C150.155 39.5729 150.198 39.5575 150.239 39.5405C150.198 39.5575 150.155 39.5729 150.112 39.5874ZM148.552 39.5396C148.594 39.5568 148.638 39.5717 148.682 39.5864C148.638 39.5717 148.594 39.5568 148.552 39.5396ZM150.303 39.5132C150.345 39.4944 150.387 39.4749 150.428 39.4536C150.387 39.4749 150.345 39.4944 150.303 39.5132ZM148.364 39.4526C148.401 39.4716 148.438 39.4884 148.476 39.5054C148.438 39.4884 148.401 39.4716 148.364 39.4526ZM150.502 39.4126C150.535 39.3939 150.567 39.3743 150.599 39.354C150.567 39.3743 150.535 39.3939 150.502 39.4126ZM148.187 39.3491C148.221 39.3712 148.256 39.3914 148.291 39.4116C148.256 39.3914 148.221 39.3712 148.187 39.3491ZM150.686 39.2954C150.712 39.2767 150.738 39.2577 150.764 39.2378C150.738 39.2576 150.712 39.2767 150.686 39.2954ZM148.025 39.2329C148.052 39.2535 148.078 39.2731 148.105 39.2925C148.078 39.2731 148.052 39.2535 148.025 39.2329ZM147.867 39.0962C147.892 39.1205 147.919 39.1435 147.945 39.1665C147.919 39.1435 147.892 39.1205 147.867 39.0962ZM150.854 39.1636C150.874 39.1455 150.895 39.1268 150.915 39.1079C150.895 39.1268 150.874 39.1455 150.854 39.1636ZM150.995 39.0308C151.02 39.005 151.045 38.9787 151.068 38.9517C151.045 38.9786 151.02 39.005 150.995 39.0308ZM147.724 38.9438C147.748 38.9721 147.772 39 147.798 39.0269C147.772 39 147.748 38.9721 147.724 38.9438ZM151.134 38.8735C151.154 38.8478 151.174 38.8211 151.193 38.7944C151.174 38.8211 151.154 38.8478 151.134 38.8735ZM147.601 38.7866C147.621 38.8159 147.643 38.8444 147.665 38.8726C147.643 38.8444 147.621 38.8159 147.601 38.7866ZM151.252 38.7134C151.274 38.6801 151.294 38.6454 151.314 38.6108C151.294 38.6454 151.274 38.6801 151.252 38.7134ZM147.491 38.6147C147.509 38.6448 147.526 38.6745 147.545 38.7036C147.526 38.6745 147.509 38.6448 147.491 38.6147ZM151.36 38.5317C151.377 38.5007 151.392 38.469 151.407 38.437C151.392 38.469 151.377 38.5007 151.36 38.5317ZM147.397 38.4312C147.412 38.462 147.425 38.4929 147.44 38.5229C147.425 38.4929 147.412 38.462 147.397 38.4312ZM151.45 38.3423C151.465 38.3068 151.477 38.2703 151.49 38.2339C151.477 38.2703 151.465 38.3068 151.45 38.3423ZM147.312 38.2134C147.326 38.2559 147.34 38.2981 147.356 38.3394C147.34 38.2981 147.326 38.2559 147.312 38.2134ZM151.522 38.1431C151.537 38.0966 151.548 38.0493 151.56 38.0015C151.548 38.0493 151.537 38.0966 151.522 38.1431ZM147.253 38.0015C147.264 38.0488 147.274 38.096 147.287 38.1421C147.274 38.096 147.264 38.0488 147.253 38.0015ZM147.207 37.2632C147.199 37.3388 147.194 37.4153 147.194 37.4927C147.194 37.6419 147.209 37.7871 147.235 37.9272C147.209 37.7871 147.194 37.6419 147.194 37.4927C147.194 37.4154 147.199 37.3387 147.207 37.2632ZM147.287 36.8608C147.276 36.8972 147.268 36.9342 147.259 36.9712C147.268 36.9342 147.276 36.8972 147.287 36.8608ZM147.358 36.6597C147.341 36.7014 147.326 36.7438 147.312 36.7866C147.326 36.7438 147.341 36.7014 147.358 36.6597ZM147.445 36.4712C147.424 36.5121 147.405 36.5539 147.386 36.5962C147.405 36.5539 147.424 36.5121 147.445 36.4712ZM147.545 36.2993C147.524 36.3313 147.505 36.364 147.486 36.397C147.505 36.364 147.524 36.3313 147.545 36.2993ZM147.662 36.1343C147.642 36.16 147.623 36.1867 147.604 36.2134C147.623 36.1867 147.642 36.16 147.662 36.1343ZM147.791 35.9839C147.772 36.0045 147.753 36.0251 147.734 36.0464C147.753 36.0251 147.772 36.0045 147.791 35.9839ZM147.947 35.8306C147.92 35.8544 147.894 35.8788 147.868 35.9038C147.894 35.8788 147.92 35.8544 147.947 35.8306ZM148.104 35.7056C148.078 35.7251 148.051 35.7445 148.025 35.7651C148.051 35.7445 148.078 35.7251 148.104 35.7056ZM63.8877 35.6938H51.9932V35.6948L63.8877 35.6938L63.8887 32.7896H63.8877V35.6938ZM148.295 35.5806C148.258 35.6021 148.221 35.6234 148.186 35.647C148.221 35.6234 148.258 35.6021 148.295 35.5806ZM148.472 35.4878C148.435 35.5051 148.398 35.5223 148.362 35.5415C148.398 35.5223 148.435 35.5051 148.472 35.4878ZM148.644 35.4155C148.614 35.4262 148.585 35.4359 148.557 35.4478C148.585 35.4359 148.614 35.4262 148.644 35.4155ZM148.843 35.354C148.816 35.361 148.789 35.3665 148.763 35.3745C148.789 35.3665 148.816 35.361 148.843 35.354ZM149.069 35.3071C149.033 35.3127 148.996 35.3174 148.96 35.3247C148.996 35.3173 149.033 35.3127 149.069 35.3071ZM187.842 62.6958C187.922 62.6875 188.002 62.6794 188.082 62.6694C188.002 62.6794 187.922 62.6875 187.842 62.6958ZM184.626 62.5747C184.729 62.5938 184.832 62.6122 184.937 62.6284C184.832 62.6122 184.729 62.5938 184.626 62.5747ZM71.9355 62.436C72.0322 62.4606 72.1299 62.4835 72.2285 62.5054C72.1299 62.4835 72.0322 62.4607 71.9355 62.436ZM193.699 58.6421C193.719 58.5654 193.734 58.4874 193.75 58.4087C193.734 58.4874 193.719 58.5654 193.699 58.6421ZM125.009 53.9487C125.008 53.9435 125.008 53.9383 125.008 53.9331C125.008 53.9383 125.008 53.9435 125.009 53.9487ZM122.121 52.3101C122.107 52.4511 122.098 52.593 122.09 52.7358C122.098 52.593 122.107 52.4511 122.121 52.3101ZM122.089 53.8394C122.097 53.9765 122.107 54.1129 122.12 54.2485C122.107 54.1129 122.097 53.9765 122.089 53.8394ZM122.089 53.8394C122.088 53.8211 122.085 53.8029 122.084 53.7847C122.085 53.8029 122.088 53.8211 122.089 53.8394ZM181.667 52.9321C181.733 52.9763 181.801 53.02 181.869 53.062C181.801 53.02 181.733 52.9763 181.667 52.9321ZM125.09 52.0317C125.074 52.1185 125.059 52.2055 125.047 52.2935C125.059 52.2055 125.074 52.1185 125.09 52.0317ZM182.439 48.5308C182.435 48.5583 182.43 48.5859 182.426 48.6138C182.43 48.5859 182.435 48.5583 182.439 48.5308ZM182.502 48.2817C182.494 48.3062 182.485 48.3302 182.479 48.355C182.485 48.3302 182.494 48.3062 182.502 48.2817ZM182.814 47.6646C182.817 47.6613 182.819 47.658 182.821 47.6548C182.819 47.658 182.817 47.6613 182.814 47.6646ZM93.8984 41.2241C93.9085 41.166 93.9172 41.107 93.9258 41.0474C93.9172 41.107 93.9084 41.166 93.8984 41.2241ZM149.631 39.6929C149.698 39.686 149.765 39.6765 149.831 39.6636C149.765 39.6764 149.698 39.686 149.631 39.6929ZM147.235 37.0708C147.223 37.1341 147.214 37.1983 147.207 37.2632C147.214 37.1983 147.223 37.1341 147.235 37.0708Z" fill="#F2EDE1"/>
</svg>
