<svg width="218" height="58" viewBox="0 0 218 58" fill="none" xmlns="http://www.w3.org/2000/svg">
<path d="M26.636 45.6817H4.91957V0H27.4793V4.42762H9.34719V20.5919H22.0678V25.0195H9.34719V41.2541H26.636V45.6817Z" fill="black"/>
<path d="M53.3516 37.5996C53.3516 42.8003 48.3617 45.6817 42.3879 45.6817C36.625 45.6817 32.0568 42.9408 30.8621 38.7943H35.7817C36.3439 40.5513 39.1551 41.8866 42.3879 41.8866C46.5344 41.8866 48.7131 39.8485 48.7131 37.5996C48.7131 34.2262 44.8477 33.7342 41.8257 33.172C36.6953 32.1881 31.4946 30.3608 31.4946 24.5276C31.4946 19.2566 36.5547 16.5157 41.9663 16.5157C47.3778 16.5157 51.5946 19.3972 52.719 23.6842H48.0806C47.5886 21.7867 44.9883 20.4514 41.9663 20.4514C38.5226 20.4514 35.9222 22.2084 35.9222 24.5276C35.9222 25.9332 36.5547 27.901 42.8096 29.0255C50.3998 30.3608 53.3516 33.1017 53.3516 37.5996Z" fill="black"/>
<path d="M73.244 45.6817H69.5894C65.5132 45.6817 61.929 42.1678 61.929 38.3024V20.9433H55.8146V16.5157H61.5073C64.7401 16.5157 66.1457 14.0559 66.1457 10.8231V6.74684H70.5733V10.8231C70.5733 13.2828 70.0111 14.8993 68.8164 16.5157H73.244V20.9433H66.3566V37.7401C66.3566 39.6377 67.5513 41.2541 69.5894 41.2541H73.244V45.6817Z" fill="black"/>
<path d="M91.6649 45.6817C84.7072 45.6817 79.2957 40.4108 79.2957 33.4531V16.5157H83.7233V33.4531C83.7233 37.951 87.167 41.2541 91.6649 41.2541C95.7411 41.2541 99.3957 37.951 99.3957 33.8748V16.5157H103.823V45.6817H99.3957V42.238C97.217 44.5573 94.9681 45.6817 91.6649 45.6817Z" fill="black"/>
<path d="M125.029 45.6817C116.876 45.6817 110.551 39.1457 110.551 31.2744C110.551 23.0517 116.876 16.5157 125.029 16.5157C129.105 16.5157 132.83 18.5538 134.868 21.4353V0H139.295V45.6817H134.868V40.7622C132.83 43.6436 129.105 45.6817 125.029 45.6817ZM125.029 41.2541C130.37 41.2541 134.868 37.1076 134.868 31.3447C134.868 25.0898 130.37 20.9433 125.029 20.9433C119.336 20.9433 114.979 25.5115 114.979 31.2744C114.979 36.686 119.336 41.2541 125.029 41.2541Z" fill="black"/>
<path d="M153.343 45.6817H148.915V20.9433H146.104V16.5157H153.343V45.6817ZM150.813 10.5419C148.915 10.5419 147.439 9.06607 147.439 7.16852C147.439 5.34125 148.915 3.7951 150.813 3.7951C152.64 3.7951 154.186 5.34125 154.186 7.16852C154.186 9.06607 152.64 10.5419 150.813 10.5419Z" fill="black"/>
<path d="M174.581 16.5157C182.523 16.5157 189.059 22.9814 189.059 31.0636C189.059 39.216 182.523 45.6817 174.581 45.6817C166.64 45.6817 160.104 39.216 160.104 31.0636C160.104 22.9814 166.64 16.5157 174.581 16.5157ZM174.581 41.2541C180.133 41.2541 184.631 36.8265 184.631 31.0636C184.631 25.3709 180.133 20.9433 174.581 20.9433C169.029 20.9433 164.531 25.3709 164.531 31.0636C164.531 36.8265 169.029 41.2541 174.581 41.2541Z" fill="black"/>
<path d="M215.736 37.5996C215.736 42.8003 210.746 45.6817 204.772 45.6817C199.009 45.6817 194.441 42.9408 193.246 38.7943H198.166C198.728 40.5513 201.539 41.8866 204.772 41.8866C208.919 41.8866 211.097 39.8485 211.097 37.5996C211.097 34.2262 207.232 33.7342 204.21 33.172C199.08 32.1881 193.879 30.3608 193.879 24.5276C193.879 19.2566 198.939 16.5157 204.351 16.5157C209.762 16.5157 213.979 19.3972 215.103 23.6842H210.465C209.973 21.7867 207.373 20.4514 204.351 20.4514C200.907 20.4514 198.307 22.2084 198.307 24.5276C198.307 25.9332 198.939 27.901 205.194 29.0255C212.784 30.3608 215.736 33.1017 215.736 37.5996Z" fill="black"/>
<path d="M0 53.8342H217.844V57.6996H0V53.8342Z" fill="black"/>
</svg>
