<svg width="251" height="225" viewBox="0 0 251 225" fill="none" xmlns="http://www.w3.org/2000/svg">
<ellipse cx="125.294" cy="112.248" rx="119.756" ry="49.686" transform="rotate(-37.4352 125.294 112.248)" fill="#471207"/>
<mask id="path-2-outside-1_123_11" maskUnits="userSpaceOnUse" x="56.4463" y="51.1511" width="138.185" height="116.961" fill="black">
<rect fill="white" x="56.4463" y="51.1511" width="138.185" height="116.961"/>
<path d="M88.4384 156.924L77.1262 165.584L58.9098 141.788L70.6612 132.792L72.4268 135.098L62.9817 142.329L69.4275 150.749L76.0538 145.676L77.8194 147.983L71.1931 153.055L77.667 161.512L86.6728 154.618L88.4384 156.924ZM99.8639 141.5C101.938 144.209 100.488 147.7 97.3759 150.082C94.3739 152.38 90.9013 152.774 88.6255 151.091L91.1881 149.129C92.1816 149.82 94.1785 149.395 95.8625 148.105C98.0224 146.452 98.3446 144.521 97.4477 143.35C96.1025 141.593 93.8929 142.878 92.0945 143.79C89.0297 145.323 85.5919 146.445 83.2658 143.407C81.1639 140.661 82.7068 137.216 85.5257 135.058C88.3446 132.9 91.6902 132.719 93.9854 134.504L91.5692 136.354C90.5563 135.561 88.6693 135.903 87.0951 137.108C85.3013 138.481 84.6474 140.433 85.5722 141.641C86.1327 142.373 87.2469 143.146 90.9535 141.238C95.4398 138.907 98.0703 139.157 99.8639 141.5ZM114.181 137.217L112.277 138.675C110.154 140.3 106.886 139.899 105.344 137.885L98.4221 128.843L95.2371 131.281L93.4715 128.975L96.4369 126.705C98.1209 125.416 97.8722 123.574 96.583 121.89L94.9575 119.766L97.2639 118.001L98.8894 120.124C99.8703 121.406 100.222 122.472 100.244 123.79L102.551 122.025L104.316 124.331L100.728 127.077L107.427 135.827C108.183 136.815 109.45 137.181 110.512 136.368L112.415 134.911L114.181 137.217ZM124.509 129.311C120.885 132.086 115.964 131.498 113.189 127.874L106.435 119.051L108.741 117.285L115.496 126.108C117.289 128.451 120.4 128.798 122.743 127.005C124.867 125.379 125.453 122.201 123.828 120.078L116.905 111.036L119.212 109.27L130.842 124.463L128.536 126.228L127.163 124.434C126.953 126.511 126.229 127.994 124.509 129.311ZM142.62 115.446C138.374 118.697 132.472 117.815 129.334 113.715C126.055 109.431 126.743 103.504 130.99 100.253C133.113 98.628 135.866 98.2043 138.077 98.8926L129.529 87.7268L131.835 85.9612L150.052 109.757L147.746 111.523L145.784 108.96C145.871 111.274 144.744 113.821 142.62 115.446ZM140.855 113.14C143.637 111.01 144.326 107.056 142.028 104.054C139.534 100.796 135.538 100.43 132.755 102.56C129.79 104.83 129.342 108.947 131.64 111.949C133.798 114.768 137.889 115.41 140.855 113.14ZM158.102 103.595L155.795 105.36L145.93 92.474L144.466 93.595L142.7 91.2887L146.471 88.402L158.102 103.595ZM142.771 86.2992C141.783 87.0559 140.425 86.8756 139.669 85.8872C138.94 84.9353 139.092 83.5414 140.081 82.7847C141.032 82.0561 142.454 82.2449 143.183 83.1967C143.94 84.1852 143.723 85.5705 142.771 86.2992ZM158.266 79.3724C162.403 76.2055 168.386 76.9672 171.609 81.1772C174.86 85.4239 174.034 91.3983 169.897 94.5651C165.76 97.732 159.777 96.9703 156.526 92.7237C153.303 88.5137 154.129 82.5393 158.266 79.3724ZM168.131 92.2588C171.023 90.0448 171.601 85.9448 169.303 82.9428C167.033 79.9775 162.924 79.4648 160.032 81.6788C157.14 83.8928 156.562 87.9928 158.832 90.9581C161.131 93.96 165.239 94.4728 168.131 92.2588ZM188.844 73.3833C190.918 76.0924 189.467 79.5832 186.356 81.9653C183.354 84.2634 179.881 84.6573 177.605 82.9738L180.168 81.012C181.161 81.703 183.158 81.2776 184.842 79.9884C187.002 78.3349 187.324 76.4045 186.428 75.233C185.082 73.4758 182.873 74.7609 181.074 75.6731C178.009 77.2064 174.572 78.3285 172.246 75.2899C170.144 72.5443 171.687 69.0987 174.506 66.9407C177.324 64.7828 180.67 64.6022 182.965 66.387L180.549 68.2367C179.536 67.4444 177.649 67.7858 176.075 68.9908C174.281 70.3641 173.627 72.3163 174.552 73.5243C175.113 74.2565 176.227 75.0294 179.933 73.1208C184.42 70.7897 187.05 71.0404 188.844 73.3833Z"/>
</mask>
<path d="M88.4384 156.924L77.1262 165.584L58.9098 141.788L70.6612 132.792L72.4268 135.098L62.9817 142.329L69.4275 150.749L76.0538 145.676L77.8194 147.983L71.1931 153.055L77.667 161.512L86.6728 154.618L88.4384 156.924ZM99.8639 141.5C101.938 144.209 100.488 147.7 97.3759 150.082C94.3739 152.38 90.9013 152.774 88.6255 151.091L91.1881 149.129C92.1816 149.82 94.1785 149.395 95.8625 148.105C98.0224 146.452 98.3446 144.521 97.4477 143.35C96.1025 141.593 93.8929 142.878 92.0945 143.79C89.0297 145.323 85.5919 146.445 83.2658 143.407C81.1639 140.661 82.7068 137.216 85.5257 135.058C88.3446 132.9 91.6902 132.719 93.9854 134.504L91.5692 136.354C90.5563 135.561 88.6693 135.903 87.0951 137.108C85.3013 138.481 84.6474 140.433 85.5722 141.641C86.1327 142.373 87.2469 143.146 90.9535 141.238C95.4398 138.907 98.0703 139.157 99.8639 141.5ZM114.181 137.217L112.277 138.675C110.154 140.3 106.886 139.899 105.344 137.885L98.4221 128.843L95.2371 131.281L93.4715 128.975L96.4369 126.705C98.1209 125.416 97.8722 123.574 96.583 121.89L94.9575 119.766L97.2639 118.001L98.8894 120.124C99.8703 121.406 100.222 122.472 100.244 123.79L102.551 122.025L104.316 124.331L100.728 127.077L107.427 135.827C108.183 136.815 109.45 137.181 110.512 136.368L112.415 134.911L114.181 137.217ZM124.509 129.311C120.885 132.086 115.964 131.498 113.189 127.874L106.435 119.051L108.741 117.285L115.496 126.108C117.289 128.451 120.4 128.798 122.743 127.005C124.867 125.379 125.453 122.201 123.828 120.078L116.905 111.036L119.212 109.27L130.842 124.463L128.536 126.228L127.163 124.434C126.953 126.511 126.229 127.994 124.509 129.311ZM142.62 115.446C138.374 118.697 132.472 117.815 129.334 113.715C126.055 109.431 126.743 103.504 130.99 100.253C133.113 98.628 135.866 98.2043 138.077 98.8926L129.529 87.7268L131.835 85.9612L150.052 109.757L147.746 111.523L145.784 108.96C145.871 111.274 144.744 113.821 142.62 115.446ZM140.855 113.14C143.637 111.01 144.326 107.056 142.028 104.054C139.534 100.796 135.538 100.43 132.755 102.56C129.79 104.83 129.342 108.947 131.64 111.949C133.798 114.768 137.889 115.41 140.855 113.14ZM158.102 103.595L155.795 105.36L145.93 92.474L144.466 93.595L142.7 91.2887L146.471 88.402L158.102 103.595ZM142.771 86.2992C141.783 87.0559 140.425 86.8756 139.669 85.8872C138.94 84.9353 139.092 83.5414 140.081 82.7847C141.032 82.0561 142.454 82.2449 143.183 83.1967C143.94 84.1852 143.723 85.5705 142.771 86.2992ZM158.266 79.3724C162.403 76.2055 168.386 76.9672 171.609 81.1772C174.86 85.4239 174.034 91.3983 169.897 94.5651C165.76 97.732 159.777 96.9703 156.526 92.7237C153.303 88.5137 154.129 82.5393 158.266 79.3724ZM168.131 92.2588C171.023 90.0448 171.601 85.9448 169.303 82.9428C167.033 79.9775 162.924 79.4648 160.032 81.6788C157.14 83.8928 156.562 87.9928 158.832 90.9581C161.131 93.96 165.239 94.4728 168.131 92.2588ZM188.844 73.3833C190.918 76.0924 189.467 79.5832 186.356 81.9653C183.354 84.2634 179.881 84.6573 177.605 82.9738L180.168 81.012C181.161 81.703 183.158 81.2776 184.842 79.9884C187.002 78.3349 187.324 76.4045 186.428 75.233C185.082 73.4758 182.873 74.7609 181.074 75.6731C178.009 77.2064 174.572 78.3285 172.246 75.2899C170.144 72.5443 171.687 69.0987 174.506 66.9407C177.324 64.7828 180.67 64.6022 182.965 66.387L180.549 68.2367C179.536 67.4444 177.649 67.7858 176.075 68.9908C174.281 70.3641 173.627 72.3163 174.552 73.5243C175.113 74.2565 176.227 75.0294 179.933 73.1208C184.42 70.7897 187.05 71.0404 188.844 73.3833Z" fill="#F2EDE1"/>
<path d="M88.4384 156.924L89.1058 157.796L89.9777 157.129L89.3103 156.257L88.4384 156.924ZM77.1262 165.584L76.2544 166.251L76.9218 167.123L77.7937 166.456L77.1262 165.584ZM58.9098 141.788L58.2423 140.916L57.3704 141.584L58.0379 142.456L58.9098 141.788ZM70.6612 132.792L71.5331 132.125L70.8657 131.253L69.9938 131.92L70.6612 132.792ZM72.4268 135.098L73.0943 135.97L73.9661 135.303L73.2987 134.431L72.4268 135.098ZM62.9817 142.329L62.3143 141.457L61.4424 142.125L62.1099 142.996L62.9817 142.329ZM69.4275 150.749L68.5557 151.416L69.2231 152.288L70.095 151.621L69.4275 150.749ZM76.0538 145.676L76.9256 145.009L76.2582 144.137L75.3863 144.805L76.0538 145.676ZM77.8194 147.983L78.4868 148.855L79.3587 148.187L78.6912 147.315L77.8194 147.983ZM71.1931 153.055L70.5257 152.184L69.6538 152.851L70.3213 153.723L71.1931 153.055ZM77.667 161.512L76.7951 162.179L77.4626 163.051L78.3344 162.384L77.667 161.512ZM86.6728 154.618L87.5447 153.95L86.8772 153.078L86.0054 153.746L86.6728 154.618ZM88.4384 156.924L87.771 156.052L76.4588 164.712L77.1262 165.584L77.7937 166.456L89.1058 157.796L88.4384 156.924ZM77.1262 165.584L77.9981 164.917L59.7816 141.121L58.9098 141.788L58.0379 142.456L76.2544 166.251L77.1262 165.584ZM58.9098 141.788L59.5772 142.66L71.3287 133.664L70.6612 132.792L69.9938 131.92L58.2423 140.916L58.9098 141.788ZM70.6612 132.792L69.7894 133.459L71.555 135.766L72.4268 135.098L73.2987 134.431L71.5331 132.125L70.6612 132.792ZM72.4268 135.098L71.7594 134.227L62.3143 141.457L62.9817 142.329L63.6492 143.201L73.0943 135.97L72.4268 135.098ZM62.9817 142.329L62.1099 142.996L68.5557 151.416L69.4275 150.749L70.2994 150.082L63.8536 141.661L62.9817 142.329ZM69.4275 150.749L70.095 151.621L76.7212 146.548L76.0538 145.676L75.3863 144.805L68.7601 149.877L69.4275 150.749ZM76.0538 145.676L75.1819 146.344L76.9475 148.65L77.8194 147.983L78.6912 147.315L76.9256 145.009L76.0538 145.676ZM77.8194 147.983L77.1519 147.111L70.5257 152.184L71.1931 153.055L71.8606 153.927L78.4868 148.855L77.8194 147.983ZM71.1931 153.055L70.3213 153.723L76.7951 162.179L77.667 161.512L78.5389 160.845L72.065 152.388L71.1931 153.055ZM77.667 161.512L78.3344 162.384L87.3402 155.49L86.6728 154.618L86.0054 153.746L76.9996 160.64L77.667 161.512ZM86.6728 154.618L85.8009 155.285L87.5665 157.592L88.4384 156.924L89.3103 156.257L87.5447 153.95L86.6728 154.618ZM88.6255 151.091L87.9581 150.219L86.7995 151.106L87.9725 151.973L88.6255 151.091ZM91.1881 149.129L91.8151 148.228L91.1571 147.77L90.5207 148.257L91.1881 149.129ZM92.0945 143.79L92.5858 144.772L92.5912 144.769L92.0945 143.79ZM93.9854 134.504L94.6529 135.376L95.7829 134.511L94.6594 133.637L93.9854 134.504ZM91.5692 136.354L90.8928 137.218L91.562 137.742L92.2367 137.225L91.5692 136.354ZM90.9535 141.238L91.4561 142.214L91.4598 142.212L90.9535 141.238ZM99.8639 141.5L98.9921 142.168C99.7833 143.201 99.9146 144.366 99.5206 145.573C99.1144 146.819 98.1378 148.116 96.7084 149.21L97.3759 150.082L98.0433 150.954C99.7256 149.666 101.03 148.027 101.608 146.254C102.199 144.444 102.018 142.508 100.736 140.833L99.8639 141.5ZM97.3759 150.082L96.7084 149.21C93.9303 151.337 91.0161 151.493 89.2785 150.208L88.6255 151.091L87.9725 151.973C90.7866 154.055 94.8176 153.424 98.0433 150.954L97.3759 150.082ZM88.6255 151.091L89.2929 151.963L91.8556 150.001L91.1881 149.129L90.5207 148.257L87.9581 150.219L88.6255 151.091ZM91.1881 149.129L90.5612 150.03C91.4162 150.625 92.5262 150.644 93.4994 150.433C94.5093 150.213 95.5753 149.708 96.5299 148.977L95.8625 148.105L95.195 147.234C94.4656 147.792 93.6912 148.144 93.0333 148.287C92.3387 148.438 91.9536 148.324 91.8151 148.228L91.1881 149.129ZM95.8625 148.105L96.5299 148.977C98.9149 147.151 99.7546 144.557 98.3196 142.683L97.4477 143.35L96.5759 144.017C96.9345 144.486 97.1299 145.752 95.195 147.234L95.8625 148.105ZM97.4477 143.35L98.3196 142.683C97.8449 142.062 97.2518 141.666 96.5777 141.488C95.9259 141.315 95.2763 141.366 94.6968 141.498C93.5843 141.752 92.4284 142.39 91.5978 142.811L92.0945 143.79L92.5912 144.769C93.559 144.278 94.4071 143.817 95.1853 143.639C95.5511 143.556 95.8186 143.558 96.0156 143.611C96.1904 143.657 96.378 143.759 96.5759 144.017L97.4477 143.35ZM92.0945 143.79L91.6032 142.808C90.0917 143.564 88.6347 144.139 87.3371 144.217C86.1266 144.29 85.0546 143.937 84.1377 142.739L83.2658 143.407L82.394 144.074C83.8032 145.915 85.613 146.521 87.4692 146.409C89.2381 146.302 91.0324 145.549 92.5858 144.772L92.0945 143.79ZM83.2658 143.407L84.1377 142.739C83.333 141.688 83.2162 140.525 83.5955 139.349C83.9869 138.135 84.9164 136.907 86.1931 135.93L85.5257 135.058L84.8582 134.186C83.3161 135.366 82.0647 136.94 81.5054 138.675C80.934 140.447 81.0968 142.38 82.394 144.074L83.2658 143.407ZM85.5257 135.058L86.1931 135.93C88.7165 133.998 91.5022 133.964 93.3114 135.371L93.9854 134.504L94.6594 133.637C91.8781 131.474 87.9726 131.802 84.8582 134.186L85.5257 135.058ZM93.9854 134.504L93.318 133.632L90.9018 135.482L91.5692 136.354L92.2367 137.225L94.6529 135.376L93.9854 134.504ZM91.5692 136.354L92.2457 135.489C91.4115 134.836 90.3336 134.731 89.3563 134.9C88.3626 135.071 87.3355 135.541 86.4277 136.236L87.0951 137.108L87.7625 137.98C88.4289 137.47 89.1324 137.167 89.729 137.064C90.342 136.958 90.714 137.079 90.8928 137.218L91.5692 136.354ZM87.0951 137.108L86.4277 136.236C85.3919 137.029 84.6277 138.031 84.2732 139.087C83.9163 140.15 83.9623 141.345 84.7003 142.309L85.5722 141.641L86.4441 140.974C86.2573 140.73 86.1678 140.344 86.3551 139.786C86.5448 139.221 87.0045 138.56 87.7625 137.98L87.0951 137.108ZM85.5722 141.641L84.7003 142.309C85.1169 142.853 85.8049 143.457 87.0207 143.526C88.1247 143.589 89.5413 143.2 91.4561 142.214L90.9535 141.238L90.4509 140.262C88.6591 141.184 87.6653 141.363 87.1454 141.334C86.7374 141.31 86.588 141.162 86.4441 140.974L85.5722 141.641ZM90.9535 141.238L91.4598 142.212C93.6383 141.08 95.2118 140.662 96.3697 140.713C97.4459 140.761 98.2656 141.219 98.9921 142.168L99.8639 141.5L100.736 140.833C99.6687 139.439 98.2762 138.6 96.4672 138.519C94.7399 138.442 92.7549 139.064 90.4472 140.263L90.9535 141.238ZM114.181 137.217L114.849 138.089L115.72 137.422L115.053 136.55L114.181 137.217ZM98.4221 128.843L99.294 128.176L98.6265 127.304L97.7547 127.971L98.4221 128.843ZM95.2371 131.281L94.3653 131.949L95.0327 132.821L95.9046 132.153L95.2371 131.281ZM93.4715 128.975L92.8041 128.103L91.9322 128.77L92.5997 129.642L93.4715 128.975ZM94.9575 119.766L94.2901 118.895L93.4182 119.562L94.0857 120.434L94.9575 119.766ZM97.2639 118.001L98.1358 117.333L97.4683 116.462L96.5965 117.129L97.2639 118.001ZM100.244 123.79L99.1464 123.809L99.1831 125.985L100.912 124.662L100.244 123.79ZM102.551 122.025L103.422 121.357L102.755 120.485L101.883 121.153L102.551 122.025ZM104.316 124.331L104.984 125.203L105.855 124.535L105.188 123.664L104.316 124.331ZM100.728 127.077L100.061 126.206L99.1892 126.873L99.8566 127.745L100.728 127.077ZM112.415 134.911L113.287 134.244L112.62 133.372L111.748 134.039L112.415 134.911ZM114.181 137.217L113.514 136.345L111.61 137.803L112.277 138.675L112.945 139.546L114.849 138.089L114.181 137.217ZM112.277 138.675L111.61 137.803C109.942 139.08 107.369 138.724 106.216 137.218L105.344 137.885L104.473 138.553C106.402 141.074 110.366 141.52 112.945 139.546L112.277 138.675ZM105.344 137.885L106.216 137.218L99.294 128.176L98.4221 128.843L97.5503 129.51L104.473 138.553L105.344 137.885ZM98.4221 128.843L97.7547 127.971L94.5697 130.409L95.2371 131.281L95.9046 132.153L99.0896 129.715L98.4221 128.843ZM95.2371 131.281L96.109 130.614L94.3434 128.307L93.4715 128.975L92.5997 129.642L94.3653 131.949L95.2371 131.281ZM93.4715 128.975L94.139 129.847L97.1043 127.577L96.4369 126.705L95.7694 125.833L92.8041 128.103L93.4715 128.975ZM96.4369 126.705L97.1043 127.577C98.1967 126.74 98.7414 125.639 98.7228 124.428C98.705 123.278 98.1824 122.173 97.4549 121.222L96.583 121.89L95.7111 122.557C96.2728 123.291 96.5191 123.948 96.527 124.462C96.534 124.916 96.361 125.38 95.7694 125.833L96.4369 126.705ZM96.583 121.89L97.4549 121.222L95.8294 119.099L94.9575 119.766L94.0857 120.434L95.7111 122.557L96.583 121.89ZM94.9575 119.766L95.625 120.638L97.9313 118.873L97.2639 118.001L96.5965 117.129L94.2901 118.895L94.9575 119.766ZM97.2639 118.001L96.392 118.668L98.0175 120.792L98.8894 120.124L99.7612 119.457L98.1358 117.333L97.2639 118.001ZM98.8894 120.124L98.0175 120.792C98.8661 121.9 99.1284 122.742 99.1464 123.809L100.244 123.79L101.342 123.772C101.316 122.202 100.874 120.911 99.7612 119.457L98.8894 120.124ZM100.244 123.79L100.912 124.662L103.218 122.896L102.551 122.025L101.883 121.153L99.5768 122.918L100.244 123.79ZM102.551 122.025L101.679 122.692L103.444 124.998L104.316 124.331L105.188 123.664L103.422 121.357L102.551 122.025ZM104.316 124.331L103.649 123.459L100.061 126.206L100.728 127.077L101.396 127.949L104.984 125.203L104.316 124.331ZM100.728 127.077L99.8566 127.745L106.555 136.494L107.427 135.827L108.298 135.16L101.6 126.41L100.728 127.077ZM107.427 135.827L106.555 136.494C107.069 137.166 107.792 137.673 108.631 137.848C109.492 138.027 110.399 137.838 111.179 137.24L110.512 136.368L109.844 135.496C109.563 135.711 109.306 135.745 109.079 135.698C108.829 135.646 108.541 135.476 108.298 135.16L107.427 135.827ZM110.512 136.368L111.179 137.24L113.083 135.783L112.415 134.911L111.748 134.039L109.844 135.496L110.512 136.368ZM112.415 134.911L111.544 135.578L113.309 137.885L114.181 137.217L115.053 136.55L113.287 134.244L112.415 134.911ZM106.435 119.051L105.768 118.179L104.896 118.846L105.563 119.718L106.435 119.051ZM108.741 117.285L109.613 116.618L108.946 115.746L108.074 116.413L108.741 117.285ZM116.905 111.036L116.238 110.164L115.366 110.831L116.033 111.703L116.905 111.036ZM119.212 109.27L120.084 108.603L119.416 107.731L118.544 108.398L119.212 109.27ZM130.842 124.463L131.51 125.335L132.381 124.667L131.714 123.795L130.842 124.463ZM128.536 126.228L127.664 126.896L128.331 127.768L129.203 127.1L128.536 126.228ZM127.163 124.434L128.034 123.767L126.349 121.566L126.07 124.324L127.163 124.434ZM124.509 129.311L123.841 128.439C120.685 130.855 116.457 130.336 114.061 127.206L113.189 127.874L112.317 128.541C115.47 132.66 121.084 133.316 125.176 130.183L124.509 129.311ZM113.189 127.874L114.061 127.206L107.307 118.383L106.435 119.051L105.563 119.718L112.317 128.541L113.189 127.874ZM106.435 119.051L107.103 119.923L109.409 118.157L108.741 117.285L108.074 116.413L105.768 118.179L106.435 119.051ZM108.741 117.285L107.87 117.953L114.624 126.775L115.496 126.108L116.367 125.441L109.613 116.618L108.741 117.285ZM115.496 126.108L114.624 126.775C116.802 129.62 120.607 130.023 123.411 127.877L122.743 127.005L122.076 126.133C120.194 127.574 117.777 127.282 116.367 125.441L115.496 126.108ZM122.743 127.005L123.411 127.877C125.962 125.923 126.733 122.067 124.699 119.411L123.828 120.078L122.956 120.745C124.173 122.336 123.771 124.835 122.076 126.133L122.743 127.005ZM123.828 120.078L124.699 119.411L117.777 110.368L116.905 111.036L116.033 111.703L122.956 120.745L123.828 120.078ZM116.905 111.036L117.573 111.907L119.879 110.142L119.212 109.27L118.544 108.398L116.238 110.164L116.905 111.036ZM119.212 109.27L118.34 109.937L129.97 125.13L130.842 124.463L131.714 123.795L120.084 108.603L119.212 109.27ZM130.842 124.463L130.175 123.591L127.868 125.356L128.536 126.228L129.203 127.1L131.51 125.335L130.842 124.463ZM128.536 126.228L129.408 125.561L128.034 123.767L127.163 124.434L126.291 125.102L127.664 126.896L128.536 126.228ZM127.163 124.434L126.07 124.324C125.975 125.262 125.771 126.005 125.432 126.643C125.096 127.276 124.598 127.86 123.841 128.439L124.509 129.311L125.176 130.183C126.14 129.445 126.864 128.629 127.372 127.673C127.878 126.72 128.14 125.684 128.255 124.545L127.163 124.434ZM138.077 98.8926L137.75 99.9409L141.048 100.968L138.949 98.2251L138.077 98.8926ZM129.529 87.7268L128.862 86.855L127.99 87.5224L128.657 88.3943L129.529 87.7268ZM131.835 85.9612L132.707 85.2938L132.04 84.4219L131.168 85.0894L131.835 85.9612ZM150.052 109.757L150.719 110.629L151.591 109.961L150.924 109.09L150.052 109.757ZM147.746 111.523L146.874 112.19L147.541 113.062L148.413 112.395L147.746 111.523ZM145.784 108.96L146.656 108.293L144.556 105.55L144.687 109.001L145.784 108.96ZM142.62 115.446L141.953 114.574C138.193 117.452 132.98 116.671 130.205 113.047L129.334 113.715L128.462 114.382C131.965 118.958 138.554 119.942 143.288 116.318L142.62 115.446ZM129.334 113.715L130.205 113.047C127.28 109.226 127.911 103.993 131.657 101.125L130.99 100.253L130.322 99.3816C125.575 103.016 124.829 109.637 128.462 114.382L129.334 113.715ZM130.99 100.253L131.657 101.125C133.502 99.7129 135.886 99.3604 137.75 99.9409L138.077 98.8926L138.403 97.8442C135.846 97.0482 132.724 97.5432 130.322 99.3816L130.99 100.253ZM138.077 98.8926L138.949 98.2251L130.401 87.0594L129.529 87.7268L128.657 88.3943L137.205 99.56L138.077 98.8926ZM129.529 87.7268L130.196 88.5987L132.503 86.8331L131.835 85.9612L131.168 85.0894L128.862 86.855L129.529 87.7268ZM131.835 85.9612L130.964 86.6287L149.18 110.424L150.052 109.757L150.924 109.09L132.707 85.2938L131.835 85.9612ZM150.052 109.757L149.384 108.885L147.078 110.651L147.746 111.523L148.413 112.395L150.719 110.629L150.052 109.757ZM147.746 111.523L148.617 110.855L146.656 108.293L145.784 108.96L144.912 109.627L146.874 112.19L147.746 111.523ZM145.784 108.96L144.687 109.001C144.76 110.953 143.798 113.162 141.953 114.574L142.62 115.446L143.288 116.318C145.689 114.48 146.982 111.594 146.881 108.919L145.784 108.96ZM140.855 113.14L141.522 114.012C144.77 111.526 145.579 106.887 142.9 103.387L142.028 104.054L141.156 104.722C143.074 107.226 142.504 110.494 140.187 112.268L140.855 113.14ZM142.028 104.054L142.9 103.387C140.047 99.6593 135.364 99.1803 132.088 101.688L132.755 102.56L133.423 103.432C135.712 101.68 139.022 101.933 141.156 104.722L142.028 104.054ZM132.755 102.56L132.088 101.688C128.614 104.348 128.123 109.161 130.768 112.616L131.64 111.949L132.512 111.282C130.561 108.733 130.966 105.312 133.423 103.432L132.755 102.56ZM131.64 111.949L130.768 112.616C133.289 115.909 138.067 116.656 141.522 114.012L140.855 113.14L140.187 112.268C137.711 114.163 134.307 113.627 132.512 111.282L131.64 111.949ZM158.102 103.595L158.769 104.467L159.641 103.799L158.973 102.927L158.102 103.595ZM155.795 105.36L154.923 106.028L155.591 106.9L156.463 106.232L155.795 105.36ZM145.93 92.474L146.802 91.8066L146.135 90.9347L145.263 91.6021L145.93 92.474ZM144.466 93.595L143.594 94.2625L144.261 95.1343L145.133 94.4669L144.466 93.595ZM142.7 91.2887L142.033 90.4168L141.161 91.0842L141.828 91.9561L142.7 91.2887ZM146.471 88.402L147.343 87.7346L146.675 86.8627L145.804 87.5302L146.471 88.402ZM158.102 103.595L157.434 102.723L155.128 104.488L155.795 105.36L156.463 106.232L158.769 104.467L158.102 103.595ZM155.795 105.36L156.667 104.693L146.802 91.8066L145.93 92.474L145.058 93.1414L154.923 106.028L155.795 105.36ZM145.93 92.474L145.263 91.6021L143.798 92.7232L144.466 93.595L145.133 94.4669L146.598 93.3459L145.93 92.474ZM144.466 93.595L145.338 92.9276L143.572 90.6212L142.7 91.2887L141.828 91.9561L143.594 94.2625L144.466 93.595ZM142.7 91.2887L143.368 92.1605L147.138 89.2739L146.471 88.402L145.804 87.5302L142.033 90.4168L142.7 91.2887ZM146.471 88.402L145.599 89.0695L157.23 104.262L158.102 103.595L158.973 102.927L147.343 87.7346L146.471 88.402ZM142.771 86.2992L142.104 85.4273C141.597 85.8154 140.928 85.7267 140.54 85.2197L139.669 85.8872L138.797 86.5546C139.922 88.0246 141.968 88.2964 143.438 87.1711L142.771 86.2992ZM139.669 85.8872L140.54 85.2197C140.171 84.7376 140.253 84.0356 140.748 83.6566L140.081 82.7847L139.413 81.9129C137.931 83.0472 137.708 85.1331 138.797 86.5546L139.669 85.8872ZM140.081 82.7847L140.748 83.6566C141.218 83.2965 141.951 83.3939 142.311 83.8642L143.183 83.1967L144.055 82.5293C142.958 81.096 140.846 80.8156 139.413 81.9129L140.081 82.7847ZM143.183 83.1967L142.311 83.8642C142.69 84.3593 142.586 85.0582 142.104 85.4273L142.771 86.2992L143.438 87.1711C144.86 86.0829 145.189 84.011 144.055 82.5293L143.183 83.1967ZM158.266 79.3724L158.934 80.2443C162.589 77.446 167.883 78.1162 170.737 81.8447L171.609 81.1772L172.481 80.5098C168.889 75.8182 162.217 74.9651 157.599 78.5005L158.266 79.3724ZM171.609 81.1772L170.737 81.8447C173.622 85.6125 172.882 90.8971 169.229 93.6933L169.897 94.5651L170.564 95.437C175.185 91.8994 176.098 85.2352 172.481 80.5098L171.609 81.1772ZM169.897 94.5651L169.229 93.6933C165.577 96.4894 160.282 95.8241 157.398 92.0562L156.526 92.7237L155.654 93.3911C159.272 98.1165 165.943 98.9746 170.564 95.437L169.897 94.5651ZM156.526 92.7237L157.398 92.0562C154.544 88.3277 155.278 83.0425 158.934 80.2443L158.266 79.3724L157.599 78.5005C152.981 82.036 152.063 88.6996 155.654 93.3911L156.526 92.7237ZM168.131 92.2588L168.799 93.1306C172.176 90.545 172.838 85.7549 170.174 82.2754L169.303 82.9428L168.431 83.6103C170.363 86.1347 169.87 89.5445 167.464 91.3869L168.131 92.2588ZM169.303 82.9428L170.174 82.2754C167.536 78.8285 162.738 78.2243 159.364 80.8069L160.032 81.6788L160.699 82.5506C163.11 80.7052 166.529 81.1265 168.431 83.6103L169.303 82.9428ZM160.032 81.6788L159.364 80.8069C155.991 83.3895 155.322 88.1787 157.961 91.6255L158.832 90.9581L159.704 90.2906C157.803 87.8068 158.289 84.396 160.699 82.5506L160.032 81.6788ZM158.832 90.9581L157.961 91.6255C160.624 95.105 165.421 95.7163 168.799 93.1306L168.131 92.2588L167.464 91.3869C165.057 93.2293 161.637 92.815 159.704 90.2906L158.832 90.9581ZM177.605 82.9738L176.938 82.1019L175.779 82.9888L176.952 83.8565L177.605 82.9738ZM180.168 81.012L180.795 80.1106L180.137 79.653L179.501 80.1402L180.168 81.012ZM181.074 75.6731L181.566 76.6551L181.571 76.6524L181.074 75.6731ZM182.965 66.387L183.633 67.2588L184.763 66.3938L183.639 65.5202L182.965 66.387ZM180.549 68.2367L179.873 69.1015L180.542 69.625L181.217 69.1085L180.549 68.2367ZM179.933 73.1208L180.436 74.0971L180.44 74.0952L179.933 73.1208ZM188.844 73.3833L187.972 74.0508C188.763 75.0844 188.894 76.2486 188.5 77.4564C188.094 78.7017 187.118 79.9992 185.688 81.0935L186.356 81.9653L187.023 82.8372C188.705 81.5493 190.01 79.9103 190.588 78.1374C191.179 76.327 190.998 74.3914 189.716 72.7159L188.844 73.3833ZM186.356 81.9653L185.688 81.0935C182.91 83.2202 179.996 83.3764 178.258 82.0911L177.605 82.9738L176.952 83.8565C179.766 85.9382 183.797 85.3066 187.023 82.8372L186.356 81.9653ZM177.605 82.9738L178.273 83.8457L180.835 81.8839L180.168 81.012L179.501 80.1402L176.938 82.1019L177.605 82.9738ZM180.168 81.012L179.541 81.9134C180.396 82.5081 181.506 82.5272 182.479 82.3158C183.489 82.0964 184.555 81.5911 185.51 80.8603L184.842 79.9884L184.175 79.1166C183.445 79.675 182.671 80.0269 182.013 80.1698C181.319 80.3207 180.933 80.2069 180.795 80.1106L180.168 81.012ZM184.842 79.9884L185.51 80.8603C187.895 79.0345 188.734 76.4401 187.299 74.5656L186.428 75.233L185.556 75.9004C185.914 76.3689 186.11 77.6354 184.175 79.1166L184.842 79.9884ZM186.428 75.233L187.299 74.5656C186.825 73.9454 186.232 73.5492 185.558 73.3707C184.906 73.1982 184.256 73.2493 183.677 73.3815C182.564 73.6353 181.408 74.2726 180.578 74.6939L181.074 75.6731L181.571 76.6524C182.539 76.1615 183.387 75.7 184.165 75.5225C184.531 75.4391 184.798 75.4414 184.995 75.4936C185.17 75.5399 185.358 75.642 185.556 75.9004L186.428 75.233ZM181.074 75.6731L180.583 74.6912C179.072 75.4473 177.615 76.0218 176.317 76.1C175.106 76.1729 174.034 75.8203 173.118 74.6225L172.246 75.2899L171.374 75.9574C172.783 77.7982 174.593 78.4038 176.449 78.292C178.218 78.1855 180.012 77.4322 181.566 76.6551L181.074 75.6731ZM172.246 75.2899L173.118 74.6225C172.313 73.5713 172.196 72.4082 172.575 71.2319C172.967 70.018 173.896 68.79 175.173 67.8126L174.506 66.9407L173.838 66.0689C172.296 67.2495 171.045 68.8233 170.485 70.558C169.914 72.3304 170.077 74.2629 171.374 75.9574L172.246 75.2899ZM174.506 66.9407L175.173 67.8126C177.696 65.8809 180.482 65.847 182.291 67.2538L182.965 66.387L183.639 65.5202C180.858 63.3575 176.952 63.6847 173.838 66.0689L174.506 66.9407ZM182.965 66.387L182.298 65.5151L179.882 67.3648L180.549 68.2367L181.217 69.1085L183.633 67.2588L182.965 66.387ZM180.549 68.2367L181.226 67.3718C180.391 66.7193 179.313 66.6144 178.336 66.7827C177.342 66.9538 176.315 67.424 175.407 68.119L176.075 68.9908L176.742 69.8627C177.409 69.3526 178.112 69.0496 178.709 68.9468C179.322 68.8413 179.694 68.9617 179.873 69.1015L180.549 68.2367ZM176.075 68.9908L175.407 68.119C174.372 68.9119 173.608 69.9138 173.253 70.9702C172.896 72.0335 172.942 73.2277 173.68 74.1918L174.552 73.5244L175.424 72.8569C175.237 72.6129 175.148 72.227 175.335 71.6689C175.525 71.1038 175.984 70.443 176.742 69.8627L176.075 68.9908ZM174.552 73.5244L173.68 74.1918C174.097 74.736 174.785 75.34 176.001 75.4091C177.105 75.4719 178.521 75.083 180.436 74.097L179.933 73.1208L179.431 72.1446C177.639 73.0672 176.645 73.2462 176.125 73.2166C175.717 73.1934 175.568 73.0449 175.424 72.8569L174.552 73.5244ZM179.933 73.1208L180.44 74.0952C182.618 72.9631 184.192 72.5447 185.35 72.5962C186.426 72.6441 187.245 73.1017 187.972 74.0508L188.844 73.3833L189.716 72.7159C188.649 71.322 187.256 70.4828 185.447 70.4024C183.72 70.3256 181.735 70.9474 179.427 72.1465L179.933 73.1208Z" fill="#F2EDE1" mask="url(#path-2-outside-1_123_11)"/>
</svg>
