<svg width="237" height="105" viewBox="0 0 237 105" fill="none" xmlns="http://www.w3.org/2000/svg">
<path d="M13.4029 91.6763H0.762251C0.254084 91.6763 0 91.4222 0 90.9776V52.5474C0 52.0393 0.190563 51.7852 0.635209 51.7852H7.17786C7.68603 51.7852 7.8766 52.0393 7.8766 52.5474V83.6092C7.8766 83.7997 7.98246 83.9268 8.17303 83.9268H13.4029C13.784 83.9268 14.1652 84.2444 14.1652 84.6255V90.9776C14.1652 91.4222 13.9111 91.6763 13.4029 91.6763Z" fill="#471207"/>
<path d="M25.9468 99.4003H18.9595C18.4725 99.4003 18.1337 98.8921 18.3878 98.384L39.0321 59.7632C39.1592 59.5092 39.4132 59.3821 39.6673 59.3821C39.9214 59.3821 40.1755 59.5092 40.3025 59.7632L60.9468 98.384C61.1798 98.8286 60.8833 99.4003 60.3751 99.4003H53.3879C53.0702 99.4003 52.8797 99.2733 52.7526 99.0192L46.9722 88.0936C46.8452 87.8395 46.4006 87.3313 45.7653 87.3313H33.5693C32.9341 87.3313 32.4895 87.8395 32.3624 88.0936L26.582 99.0192C26.455 99.2733 26.2644 99.4003 25.9468 99.4003ZM36.7454 79.7088H42.5893L40.112 75.0083C39.9849 74.7542 39.8579 74.6271 39.6673 74.6271C39.4768 74.6271 39.3497 74.7542 39.2227 75.0083L36.7454 79.7088Z" fill="#471207"/>
<path d="M84.4491 91.6763H77.9064C77.3347 91.6763 77.2077 91.3587 77.2077 90.9141V52.4839C77.2077 52.0392 77.4618 51.7852 77.9064 51.7852H88.2603C95.0571 51.7852 99.8212 56.8033 99.8212 63.6001C99.8212 70.2062 95.3747 75.3514 88.2603 75.3514H85.9101C85.5925 75.3514 85.0843 75.4785 85.0843 76.1772V90.9141C85.0843 91.2952 84.8937 91.6763 84.4491 91.6763ZM85.9313 67.9195H87.8157C89.9754 67.9195 92.0716 66.2679 92.0716 63.6001C92.0716 61.3768 90.4201 59.2806 87.7522 59.2806H85.8889C85.4019 59.2806 85.0843 59.5135 85.0843 60.0217V67.0514C85.0843 67.5172 85.2113 67.9195 85.9313 67.9195Z" fill="#471207"/>
<path d="M119.008 99.4003H106.875C106.431 99.4003 106.177 99.1462 106.177 98.7016V60.2079C106.177 59.7632 106.431 59.5092 106.875 59.5092H119.008C119.453 59.5092 119.707 59.8268 119.707 60.2714V66.4965C119.707 67.1105 119.347 67.3858 118.881 67.3858H115.578C114.54 67.3858 114.053 67.9786 114.053 68.995V73.5473C114.053 74.1825 114.307 75.0083 115.832 75.0083H117.61C117.992 75.0083 118.309 75.3259 118.309 75.707V83.1389C118.309 83.5201 117.992 83.8377 117.61 83.8377H115.832C114.307 83.8377 114.053 84.6635 114.053 85.2987V89.7451C114.053 90.5709 114.307 91.5237 115.578 91.5237H119.008C119.453 91.5237 119.707 91.7778 119.707 92.2224V98.7016C119.707 99.0827 119.453 99.4003 119.008 99.4003Z" fill="#471207"/>
<path d="M137.826 104.934C134.332 104.934 131.156 103.791 128.806 101.44C126.646 99.2808 125.566 96.5494 125.439 93.5639C125.439 93.0981 125.545 92.9287 126.011 92.9287H132.617C132.998 92.9287 133.189 93.1192 133.189 93.4368C133.189 95.0249 135.094 97.2481 137.19 97.2481C139.731 97.2481 141.637 95.4695 141.637 92.9287C141.637 90.5784 140.049 88.6728 137.254 88.6728C130.457 88.6728 125.439 83.5276 125.439 76.2227C125.439 69.7435 131.092 64.7889 137.381 64.7889C142.59 64.7889 146.909 67.965 148.815 72.7925C149.323 74.063 149.45 75.2063 149.45 76.0956C149.45 76.5403 149.259 76.7308 148.878 76.7308H142.272C141.912 76.7308 141.7 76.5403 141.637 76.2227C141.192 74.063 139.477 72.602 137.444 72.602C135.348 72.602 133.189 74.19 133.189 76.7308C133.189 78.827 134.522 80.9867 137.635 80.9867C144.241 80.9867 149.45 86.5131 149.45 92.9287C149.45 99.3443 144.051 104.934 137.826 104.934Z" fill="#471207"/>
<path d="M168.634 99.4003H156.501C156.057 99.4003 155.802 99.1462 155.802 98.7016V60.2079C155.802 59.7632 156.057 59.5092 156.501 59.5092H168.634C169.078 59.5092 169.332 59.8268 169.332 60.2714V66.4965C169.332 67.1105 168.972 67.3858 168.507 67.3858H165.204C164.166 67.3858 163.679 67.9786 163.679 68.995V73.5473C163.679 74.1825 163.933 75.0083 165.458 75.0083H167.236C167.617 75.0083 167.935 75.3259 167.935 75.707V83.1389C167.935 83.5201 167.617 83.8377 167.236 83.8377H165.458C163.933 83.8377 163.679 84.6635 163.679 85.2987V89.7451C163.679 90.5709 163.933 91.5237 165.204 91.5237H168.634C169.078 91.5237 169.332 91.7778 169.332 92.2224V98.7016C169.332 99.0827 169.078 99.4003 168.634 99.4003Z" fill="#471207"/>
<path d="M187.754 59.7888V90.9141C187.754 91.4222 187.458 91.6763 187.013 91.6763H180.618C180.174 91.6763 179.877 91.4222 179.877 90.9141V59.7888C179.877 59.7253 179.814 59.5347 179.56 59.5347H177.4C176.892 59.5347 176.638 59.3442 176.638 58.836V52.4839C176.638 51.9757 176.892 51.7852 177.4 51.7852H190.231C190.739 51.7852 190.994 51.9757 190.994 52.4839V58.836C190.994 59.3442 190.739 59.5347 190.231 59.5347H188.072C187.817 59.5347 187.754 59.7253 187.754 59.7888Z" fill="#471207"/>
<path d="M201.165 91.6763H194.178C193.691 91.6763 193.352 91.1682 193.606 90.66L214.251 52.0393C214.378 51.7852 214.632 51.6581 214.886 51.6581C215.14 51.6581 215.394 51.7852 215.521 52.0393L236.165 90.66C236.398 91.1046 236.102 91.6763 235.594 91.6763H228.606C228.289 91.6763 228.098 91.5493 227.971 91.2952L222.191 80.3696C222.064 80.1155 221.619 79.6074 220.984 79.6074H208.788C208.153 79.6074 207.708 80.1155 207.581 80.3696L201.801 91.2952C201.673 91.5493 201.483 91.6763 201.165 91.6763ZM211.964 71.9848H217.808L215.33 67.2843C215.203 67.0302 215.076 66.9032 214.886 66.9032C214.695 66.9032 214.568 67.0302 214.441 67.2843L211.964 71.9848Z" fill="#471207"/>
<path d="M72.4078 15.8279H80.3002C79.6166 14.1811 78.1562 13.0625 76.354 13.0625C74.5518 13.0625 73.0603 14.2121 72.4078 15.8279ZM76.354 24C72.936 24 70.2327 21.1103 70.2327 17.6301C70.2327 14.0257 72.936 11.1049 76.354 11.1049C79.772 11.1049 82.4753 14.0257 82.4753 17.6301H72.0971C72.0971 20.0849 74.0236 22.0424 76.354 22.0424C77.9698 22.0424 79.3991 21.1103 80.1138 19.8674H82.1024C81.2013 22.1978 79.0573 24 76.354 24ZM94.2831 20.4267C94.2831 22.726 92.077 24 89.4358 24C86.8879 24 84.8681 22.7882 84.3399 20.9549H86.515C86.7636 21.7317 88.0065 22.3221 89.4358 22.3221C91.2691 22.3221 92.2323 21.421 92.2323 20.4267C92.2323 18.9352 90.5233 18.7177 89.1872 18.4691C86.9189 18.0341 84.6196 17.2262 84.6196 14.6472C84.6196 12.3167 86.8568 11.1049 89.2494 11.1049C91.642 11.1049 93.5063 12.3789 94.0035 14.2743H91.9527C91.7352 13.4353 90.5855 12.845 89.2494 12.845C87.7268 12.845 86.5771 13.6218 86.5771 14.6472C86.5771 15.2686 86.8568 16.1386 89.6222 16.6358C92.9781 17.2262 94.2831 18.438 94.2831 20.4267ZM103.078 24H101.462C99.6601 24 98.0754 22.4464 98.0754 20.7374V13.0625H95.3721V11.1049H97.889C99.3183 11.1049 99.9398 10.0174 99.9398 8.58802V6.78581H101.897V8.58802C101.897 9.67556 101.649 10.3902 101.121 11.1049H103.078V13.0625H100.033V20.4888C100.033 21.3278 100.561 22.0424 101.462 22.0424H103.078V24ZM111.223 24C108.146 24 105.754 21.6696 105.754 18.5934V11.1049H107.711V18.5934C107.711 20.582 109.234 22.0424 111.223 22.0424C113.025 22.0424 114.64 20.582 114.64 18.7798V11.1049H116.598V24H114.64V22.4774C113.677 23.5028 112.683 24 111.223 24ZM125.973 24C122.369 24 119.573 21.1103 119.573 17.6301C119.573 13.9946 122.369 11.1049 125.973 11.1049C127.776 11.1049 129.423 12.006 130.324 13.28V3.80285H132.281V24H130.324V21.8249C129.423 23.0989 127.776 24 125.973 24ZM125.973 22.0424C128.335 22.0424 130.324 20.2091 130.324 17.6612C130.324 14.8957 128.335 13.0625 125.973 13.0625C123.457 13.0625 121.53 15.0822 121.53 17.6301C121.53 20.0227 123.457 22.0424 125.973 22.0424ZM138.492 24H136.535V13.0625H135.292V11.1049H138.492V24ZM137.373 8.46373C136.535 8.46373 135.882 7.8112 135.882 6.97224C135.882 6.16436 136.535 5.48076 137.373 5.48076C138.181 5.48076 138.865 6.16436 138.865 6.97224C138.865 7.8112 138.181 8.46373 137.373 8.46373ZM147.882 11.1049C151.393 11.1049 154.283 13.9636 154.283 17.5369C154.283 21.1413 151.393 24 147.882 24C144.371 24 141.481 21.1413 141.481 17.5369C141.481 13.9636 144.371 11.1049 147.882 11.1049ZM147.882 22.0424C150.337 22.0424 152.325 20.0849 152.325 17.5369C152.325 15.02 150.337 13.0625 147.882 13.0625C145.427 13.0625 143.439 15.02 143.439 17.5369C143.439 20.0849 145.427 22.0424 147.882 22.0424ZM166.078 20.4267C166.078 22.726 163.872 24 161.23 24C158.682 24 156.663 22.7882 156.134 20.9549H158.31C158.558 21.7317 159.801 22.3221 161.23 22.3221C163.064 22.3221 164.027 21.421 164.027 20.4267C164.027 18.9352 162.318 18.7177 160.982 18.4691C158.714 18.0341 156.414 17.2262 156.414 14.6472C156.414 12.3167 158.651 11.1049 161.044 11.1049C163.437 11.1049 165.301 12.3789 165.798 14.2743H163.747C163.53 13.4353 162.38 12.845 161.044 12.845C159.521 12.845 158.372 13.6218 158.372 14.6472C158.372 15.2686 158.651 16.1386 161.417 16.6358C164.773 17.2262 166.078 18.438 166.078 20.4267Z" fill="#471207"/>
<path d="M72.4078 15.8279L72.0497 15.6833L71.8353 16.2141H72.4078V15.8279ZM80.3002 15.8279V16.2141H80.8787L80.6569 15.6799L80.3002 15.8279ZM82.4753 17.6301V18.0163H82.8615V17.6301H82.4753ZM72.0971 17.6301V17.2439H71.7109V17.6301H72.0971ZM80.1138 19.8674V19.4812H79.8904L79.779 19.6748L80.1138 19.8674ZM82.1024 19.8674L82.4627 20.0066L82.6658 19.4812H82.1024V19.8674ZM72.4078 15.8279V16.2141H80.3002V15.8279V15.4417H72.4078V15.8279ZM80.3002 15.8279L80.6569 15.6799C79.9218 13.909 78.333 12.6763 76.354 12.6763V13.0625V13.4487C77.9795 13.4487 79.3114 14.4532 79.9435 15.976L80.3002 15.8279ZM76.354 13.0625V12.6763C74.3758 12.6763 72.7539 13.9395 72.0497 15.6833L72.4078 15.8279L72.7659 15.9725C73.3667 14.4848 74.7278 13.4487 76.354 13.4487V13.0625ZM76.354 24V23.6138C73.1666 23.6138 70.6189 20.9147 70.6189 17.6301H70.2327H69.8465C69.8465 21.3058 72.7055 24.3862 76.354 24.3862V24ZM70.2327 17.6301H70.6189C70.6189 14.2138 73.1737 11.4911 76.354 11.4911V11.1049V10.7187C72.6984 10.7187 69.8465 13.8376 69.8465 17.6301H70.2327ZM76.354 11.1049V11.4911C79.5344 11.4911 82.0891 14.2138 82.0891 17.6301H82.4753H82.8615C82.8615 13.8376 80.0096 10.7187 76.354 10.7187V11.1049ZM82.4753 17.6301V17.2439H72.0971V17.6301V18.0163H82.4753V17.6301ZM72.0971 17.6301H71.7109C71.7109 20.2873 73.7996 22.4286 76.354 22.4286V22.0424V21.6562C74.2476 21.6562 72.4833 19.8825 72.4833 17.6301H72.0971ZM76.354 22.0424V22.4286C78.1169 22.4286 79.6696 21.4147 80.4486 20.0599L80.1138 19.8674L79.779 19.6748C79.1287 20.8058 77.8227 21.6562 76.354 21.6562V22.0424ZM80.1138 19.8674V20.2536H82.1024V19.8674V19.4812H80.1138V19.8674ZM82.1024 19.8674L81.7422 19.7281C80.8885 21.936 78.8713 23.6138 76.354 23.6138V24V24.3862C79.2434 24.3862 81.5142 22.4595 82.4627 20.0066L82.1024 19.8674ZM84.3399 20.9549V20.5687H83.8267L83.9688 21.0618L84.3399 20.9549ZM86.515 20.9549L86.8828 20.8372L86.7969 20.5687H86.515V20.9549ZM89.1872 18.4691L89.1145 18.8484L89.1166 18.8488L89.1872 18.4691ZM94.0035 14.2743V14.6605H94.504L94.377 14.1763L94.0035 14.2743ZM91.9527 14.2743L91.5788 14.3712L91.6538 14.6605H91.9527V14.2743ZM89.6222 16.6358L89.5539 17.0159L89.5553 17.0162L89.6222 16.6358ZM94.2831 20.4267H93.8969C93.8969 21.4342 93.421 22.2145 92.6312 22.7573C91.8299 23.3079 90.7004 23.6138 89.4358 23.6138V24V24.3862C90.8124 24.3862 92.1065 24.0551 93.0686 23.3939C94.0422 22.7248 94.6693 21.7185 94.6693 20.4267H94.2831ZM89.4358 24V23.6138C86.987 23.6138 85.174 22.455 84.711 20.848L84.3399 20.9549L83.9688 21.0618C84.5622 23.1214 86.7887 24.3862 89.4358 24.3862V24ZM84.3399 20.9549V21.3411H86.515V20.9549V20.5687H84.3399V20.9549ZM86.515 20.9549L86.1472 21.0726C86.3182 21.6072 86.8025 22.0133 87.3683 22.2793C87.9461 22.5509 88.6713 22.7083 89.4358 22.7083V22.3221V21.9359C88.771 21.9359 88.1601 21.798 87.6969 21.5803C87.2218 21.3569 86.9603 21.0794 86.8828 20.8372L86.515 20.9549ZM89.4358 22.3221V22.7083C91.3688 22.7083 92.6185 21.7324 92.6185 20.4267H92.2323H91.8461C91.8461 21.1096 91.1694 21.9359 89.4358 21.9359V22.3221ZM92.2323 20.4267H92.6185C92.6185 19.9737 92.4866 19.596 92.2499 19.2902C92.0181 18.9907 91.7037 18.7826 91.3715 18.6306C90.7224 18.3336 89.8993 18.2087 89.2579 18.0894L89.1872 18.4691L89.1166 18.8488C89.8112 18.978 90.5107 19.0862 91.0502 19.333C91.3122 19.4529 91.5085 19.5943 91.639 19.7629C91.7645 19.925 91.8461 20.1339 91.8461 20.4267H92.2323ZM89.1872 18.4691L89.26 18.0898C88.1339 17.8738 87.0582 17.5742 86.2687 17.0419C85.5046 16.5268 85.0058 15.7943 85.0058 14.6472H84.6196H84.2334C84.2334 16.0791 84.8842 17.04 85.8369 17.6823C86.7641 18.3075 87.9723 18.6293 89.1145 18.8484L89.1872 18.4691ZM84.6196 14.6472H85.0058C85.0058 13.6244 85.4892 12.8512 86.2571 12.3196C87.0363 11.7802 88.1119 11.4911 89.2494 11.4911V11.1049V10.7187C87.9943 10.7187 86.7549 11.0355 85.8174 11.6846C84.8685 12.3415 84.2334 13.3395 84.2334 14.6472H84.6196ZM89.2494 11.1049V11.4911C91.5111 11.4911 93.1877 12.6863 93.6299 14.3723L94.0035 14.2743L94.377 14.1763C93.8249 12.0714 91.7729 10.7187 89.2494 10.7187V11.1049ZM94.0035 14.2743V13.8881H91.9527V14.2743V14.6605H94.0035V14.2743ZM91.9527 14.2743L92.3265 14.1774C92.181 13.6162 91.739 13.1856 91.1998 12.903C90.6554 12.6176 89.9709 12.4588 89.2494 12.4588V12.845V13.2312C89.864 13.2312 90.4223 13.3675 90.8412 13.5871C91.2653 13.8094 91.5068 14.0934 91.5788 14.3712L91.9527 14.2743ZM89.2494 12.845V12.4588C88.4266 12.4588 87.6795 12.6681 87.1263 13.0414C86.5708 13.4162 86.1909 13.975 86.1909 14.6472H86.5771H86.9633C86.9633 14.294 87.1583 13.9516 87.5583 13.6817C87.9605 13.4103 88.5496 13.2312 89.2494 13.2312V12.845ZM86.5771 14.6472H86.1909C86.1909 15.0368 86.2874 15.5308 86.8109 15.9809C87.3045 16.4053 88.1472 16.763 89.5539 17.0159L89.6222 16.6358L89.6906 16.2557C88.3318 16.0114 87.652 15.6855 87.3144 15.3953C87.0067 15.1307 86.9633 14.879 86.9633 14.6472H86.5771ZM89.6222 16.6358L89.5553 17.0162C91.208 17.3069 92.294 17.7419 92.963 18.3028C93.6099 18.8453 93.8969 19.5309 93.8969 20.4267H94.2831H94.6693C94.6693 19.3338 94.3039 18.4192 93.4593 17.711C92.6367 17.0212 91.3923 16.5551 89.6892 16.2554L89.6222 16.6358ZM103.078 24V24.3862H103.464V24H103.078ZM98.0754 13.0625H98.4616V12.6763H98.0754V13.0625ZM95.3721 13.0625H94.9859V13.4487H95.3721V13.0625ZM95.3721 11.1049V10.7187H94.9859V11.1049H95.3721ZM99.9398 6.78581V6.39961H99.5536V6.78581H99.9398ZM101.897 6.78581H102.284V6.39961H101.897V6.78581ZM101.121 11.1049L100.81 10.8753L100.355 11.4911H101.121V11.1049ZM103.078 11.1049H103.464V10.7187H103.078V11.1049ZM103.078 13.0625V13.4487H103.464V13.0625H103.078ZM100.033 13.0625V12.6763H99.6468V13.0625H100.033ZM103.078 22.0424H103.464V21.6562H103.078V22.0424ZM103.078 24V23.6138H101.462V24V24.3862H103.078V24ZM101.462 24V23.6138C99.8618 23.6138 98.4616 22.2216 98.4616 20.7374H98.0754H97.6892C97.6892 22.6711 99.4585 24.3862 101.462 24.3862V24ZM98.0754 20.7374H98.4616V13.0625H98.0754H97.6892V20.7374H98.0754ZM98.0754 13.0625V12.6763H95.3721V13.0625V13.4487H98.0754V13.0625ZM95.3721 13.0625H95.7583V11.1049H95.3721H94.9859V13.0625H95.3721ZM95.3721 11.1049V11.4911H97.889V11.1049V10.7187H95.3721V11.1049ZM97.889 11.1049V11.4911C98.7146 11.4911 99.3472 11.1701 99.7606 10.6125C100.161 10.072 100.326 9.3507 100.326 8.58802H99.9398H99.5536C99.5536 9.25467 99.4075 9.79182 99.1402 10.1525C98.8855 10.4959 98.4927 10.7187 97.889 10.7187V11.1049ZM99.9398 8.58802H100.326V6.78581H99.9398H99.5536V8.58802H99.9398ZM99.9398 6.78581V7.17201H101.897V6.78581V6.39961H99.9398V6.78581ZM101.897 6.78581H101.511V8.58802H101.897H102.284V6.78581H101.897ZM101.897 8.58802H101.511C101.511 9.59898 101.286 10.2318 100.81 10.8753L101.121 11.1049L101.431 11.3344C102.012 10.5486 102.284 9.75213 102.284 8.58802H101.897ZM101.121 11.1049V11.4911H103.078V11.1049V10.7187H101.121V11.1049ZM103.078 11.1049H102.692V13.0625H103.078H103.464V11.1049H103.078ZM103.078 13.0625V12.6763H100.033V13.0625V13.4487H103.078V13.0625ZM100.033 13.0625H99.6468V20.4888H100.033H100.419V13.0625H100.033ZM100.033 20.4888H99.6468C99.6468 20.9868 99.8035 21.4689 100.117 21.8325C100.436 22.2023 100.901 22.4286 101.462 22.4286V22.0424V21.6562C101.122 21.6562 100.872 21.5252 100.702 21.3279C100.527 21.1245 100.419 20.8297 100.419 20.4888H100.033ZM101.462 22.0424V22.4286H103.078V22.0424V21.6562H101.462V22.0424ZM103.078 22.0424H102.692V24H103.078H103.464V22.0424H103.078ZM105.754 11.1049V10.7187H105.368V11.1049H105.754ZM107.711 11.1049H108.098V10.7187H107.711V11.1049ZM114.64 11.1049V10.7187H114.254V11.1049H114.64ZM116.598 11.1049H116.984V10.7187H116.598V11.1049ZM116.598 24V24.3862H116.984V24H116.598ZM114.64 24H114.254V24.3862H114.64V24ZM114.64 22.4774H115.027V21.5023L114.359 22.213L114.64 22.4774ZM111.223 24V23.6138C108.354 23.6138 106.14 21.4505 106.14 18.5934H105.754H105.368C105.368 21.8886 107.939 24.3862 111.223 24.3862V24ZM105.754 18.5934H106.14V11.1049H105.754H105.368V18.5934H105.754ZM105.754 11.1049V11.4911H107.711V11.1049V10.7187H105.754V11.1049ZM107.711 11.1049H107.325V18.5934H107.711H108.098V11.1049H107.711ZM107.711 18.5934H107.325C107.325 20.8044 109.03 22.4286 111.223 22.4286V22.0424V21.6562C109.438 21.6562 108.098 20.3597 108.098 18.5934H107.711ZM111.223 22.0424V22.4286C113.214 22.4286 115.027 20.8181 115.027 18.7798H114.64H114.254C114.254 20.3459 112.835 21.6562 111.223 21.6562V22.0424ZM114.64 18.7798H115.027V11.1049H114.64H114.254V18.7798H114.64ZM114.64 11.1049V11.4911H116.598V11.1049V10.7187H114.64V11.1049ZM116.598 11.1049H116.212V24H116.598H116.984V11.1049H116.598ZM116.598 24V23.6138H114.64V24V24.3862H116.598V24ZM114.64 24H115.027V22.4774H114.64H114.254V24H114.64ZM114.64 22.4774L114.359 22.213C113.902 22.6999 113.452 23.0458 112.957 23.2721C112.464 23.4978 111.907 23.6138 111.223 23.6138V24V24.3862C111.999 24.3862 112.669 24.2537 113.279 23.9744C113.887 23.6958 114.416 23.2804 114.922 22.7419L114.64 22.4774ZM130.324 13.28L130.008 13.503L130.71 14.4948V13.28H130.324ZM130.324 3.80285V3.41665H129.937V3.80285H130.324ZM132.281 3.80285H132.667V3.41665H132.281V3.80285ZM132.281 24V24.3862H132.667V24H132.281ZM130.324 24H129.937V24.3862H130.324V24ZM130.324 21.8249H130.71V20.6101L130.008 21.6019L130.324 21.8249ZM125.973 24V23.6138C122.585 23.6138 119.959 20.8994 119.959 17.6301H119.573H119.186C119.186 21.3211 122.153 24.3862 125.973 24.3862V24ZM119.573 17.6301H119.959C119.959 14.1994 122.591 11.4911 125.973 11.4911V11.1049V10.7187C122.147 10.7187 119.186 13.7899 119.186 17.6301H119.573ZM125.973 11.1049V11.4911C127.652 11.4911 129.181 12.3331 130.008 13.503L130.324 13.28L130.639 13.057C129.664 11.6789 127.899 10.7187 125.973 10.7187V11.1049ZM130.324 13.28H130.71V3.80285H130.324H129.937V13.28H130.324ZM130.324 3.80285V4.18904H132.281V3.80285V3.41665H130.324V3.80285ZM132.281 3.80285H131.895V24H132.281H132.667V3.80285H132.281ZM132.281 24V23.6138H130.324V24V24.3862H132.281V24ZM130.324 24H130.71V21.8249H130.324H129.937V24H130.324ZM130.324 21.8249L130.008 21.6019C129.181 22.7718 127.652 23.6138 125.973 23.6138V24V24.3862C127.899 24.3862 129.664 23.426 130.639 22.0479L130.324 21.8249ZM125.973 22.0424V22.4286C128.541 22.4286 130.71 20.4296 130.71 17.6612H130.324H129.937C129.937 19.9887 128.129 21.6562 125.973 21.6562V22.0424ZM130.324 17.6612H130.71C130.71 14.6878 128.554 12.6763 125.973 12.6763V13.0625V13.4487C128.116 13.4487 129.937 15.1037 129.937 17.6612H130.324ZM125.973 13.0625V12.6763C123.231 12.6763 121.144 14.8812 121.144 17.6301H121.53H121.916C121.916 15.2831 123.682 13.4487 125.973 13.4487V13.0625ZM121.53 17.6301H121.144C121.144 20.2325 123.24 22.4286 125.973 22.4286V22.0424V21.6562C123.673 21.6562 121.916 19.813 121.916 17.6301H121.53ZM138.492 24V24.3862H138.878V24H138.492ZM136.535 24H136.148V24.3862H136.535V24ZM136.535 13.0625H136.921V12.6763H136.535V13.0625ZM135.292 13.0625H134.905V13.4487H135.292V13.0625ZM135.292 11.1049V10.7187H134.905V11.1049H135.292ZM138.492 11.1049H138.878V10.7187H138.492V11.1049ZM138.492 24V23.6138H136.535V24V24.3862H138.492V24ZM136.535 24H136.921V13.0625H136.535H136.148V24H136.535ZM136.535 13.0625V12.6763H135.292V13.0625V13.4487H136.535V13.0625ZM135.292 13.0625H135.678V11.1049H135.292H134.905V13.0625H135.292ZM135.292 11.1049V11.4911H138.492V11.1049V10.7187H135.292V11.1049ZM138.492 11.1049H138.106V24H138.492H138.878V11.1049H138.492ZM137.373 8.46373V8.07753C136.748 8.07753 136.268 7.59791 136.268 6.97224H135.882H135.496C135.496 8.0245 136.321 8.84993 137.373 8.84993V8.46373ZM135.882 6.97224H136.268C136.268 6.37239 136.753 5.86696 137.373 5.86696V5.48076V5.09456C136.316 5.09456 135.496 5.95633 135.496 6.97224H135.882ZM137.373 5.48076V5.86696C137.968 5.86696 138.479 6.37765 138.479 6.97224H138.865H139.251C139.251 5.95107 138.395 5.09456 137.373 5.09456V5.48076ZM138.865 6.97224H138.479C138.479 7.59269 137.973 8.07753 137.373 8.07753V8.46373V8.84993C138.389 8.84993 139.251 8.02972 139.251 6.97224H138.865ZM147.882 11.1049V11.4911C151.18 11.4911 153.897 14.1769 153.897 17.5369H154.283H154.669C154.669 13.7503 151.607 10.7187 147.882 10.7187V11.1049ZM154.283 17.5369H153.897C153.897 20.9293 151.179 23.6138 147.882 23.6138V24V24.3862C151.608 24.3862 154.669 21.3534 154.669 17.5369H154.283ZM147.882 24V23.6138C144.585 23.6138 141.867 20.9293 141.867 17.5369H141.481H141.095C141.095 21.3534 144.156 24.3862 147.882 24.3862V24ZM141.481 17.5369H141.867C141.867 14.1769 144.584 11.4911 147.882 11.4911V11.1049V10.7187C144.158 10.7187 141.095 13.7503 141.095 17.5369H141.481ZM147.882 22.0424V22.4286C150.552 22.4286 152.712 20.2964 152.712 17.5369H152.325H151.939C151.939 19.8733 150.122 21.6562 147.882 21.6562V22.0424ZM152.325 17.5369H152.712C152.712 14.8067 150.55 12.6763 147.882 12.6763V13.0625V13.4487C150.123 13.4487 151.939 15.2333 151.939 17.5369H152.325ZM147.882 13.0625V12.6763C145.214 12.6763 143.052 14.8067 143.052 17.5369H143.439H143.825C143.825 15.2333 145.641 13.4487 147.882 13.4487V13.0625ZM143.439 17.5369H143.052C143.052 20.2964 145.212 22.4286 147.882 22.4286V22.0424V21.6562C145.642 21.6562 143.825 19.8733 143.825 17.5369H143.439ZM156.134 20.9549V20.5687H155.621L155.763 21.0618L156.134 20.9549ZM158.31 20.9549L158.677 20.8372L158.591 20.5687H158.31V20.9549ZM160.982 18.4691L160.909 18.8484L160.911 18.8488L160.982 18.4691ZM165.798 14.2743V14.6605H166.299L166.172 14.1763L165.798 14.2743ZM163.747 14.2743L163.373 14.3712L163.448 14.6605H163.747V14.2743ZM161.417 16.6358L161.348 17.0159L161.35 17.0162L161.417 16.6358ZM166.078 20.4267H165.691C165.691 21.4342 165.216 22.2145 164.426 22.7573C163.624 23.3079 162.495 23.6138 161.23 23.6138V24V24.3862C162.607 24.3862 163.901 24.0551 164.863 23.3939C165.837 22.7248 166.464 21.7185 166.464 20.4267H166.078ZM161.23 24V23.6138C158.782 23.6138 156.969 22.455 156.506 20.848L156.134 20.9549L155.763 21.0618C156.357 23.1214 158.583 24.3862 161.23 24.3862V24ZM156.134 20.9549V21.3411H158.31V20.9549V20.5687H156.134V20.9549ZM158.31 20.9549L157.942 21.0726C158.113 21.6072 158.597 22.0133 159.163 22.2793C159.741 22.5509 160.466 22.7083 161.23 22.7083V22.3221V21.9359C160.566 21.9359 159.955 21.798 159.492 21.5803C159.016 21.3569 158.755 21.0794 158.677 20.8372L158.31 20.9549ZM161.23 22.3221V22.7083C163.163 22.7083 164.413 21.7324 164.413 20.4267H164.027H163.641C163.641 21.1096 162.964 21.9359 161.23 21.9359V22.3221ZM164.027 20.4267H164.413C164.413 19.9737 164.281 19.596 164.044 19.2902C163.813 18.9907 163.498 18.7826 163.166 18.6306C162.517 18.3336 161.694 18.2087 161.052 18.0894L160.982 18.4691L160.911 18.8488C161.606 18.978 162.305 19.0862 162.845 19.333C163.107 19.4529 163.303 19.5943 163.434 19.7629C163.559 19.925 163.641 20.1339 163.641 20.4267H164.027ZM160.982 18.4691L161.055 18.0898C159.928 17.8738 158.853 17.5742 158.063 17.0419C157.299 16.5268 156.8 15.7943 156.8 14.6472H156.414H156.028C156.028 16.0791 156.679 17.04 157.631 17.6823C158.559 18.3075 159.767 18.6293 160.909 18.8484L160.982 18.4691ZM156.414 14.6472H156.8C156.8 13.6244 157.284 12.8512 158.052 12.3196C158.831 11.7802 159.906 11.4911 161.044 11.4911V11.1049V10.7187C159.789 10.7187 158.549 11.0355 157.612 11.6846C156.663 12.3415 156.028 13.3395 156.028 14.6472H156.414ZM161.044 11.1049V11.4911C163.306 11.4911 164.982 12.6863 165.424 14.3723L165.798 14.2743L166.172 14.1763C165.62 12.0714 163.567 10.7187 161.044 10.7187V11.1049ZM165.798 14.2743V13.8881H163.747V14.2743V14.6605H165.798V14.2743ZM163.747 14.2743L164.121 14.1774C163.976 13.6162 163.534 13.1856 162.994 12.903C162.45 12.6176 161.765 12.4588 161.044 12.4588V12.845V13.2312C161.659 13.2312 162.217 13.3675 162.636 13.5871C163.06 13.8094 163.301 14.0934 163.373 14.3712L163.747 14.2743ZM161.044 12.845V12.4588C160.221 12.4588 159.474 12.6681 158.921 13.0414C158.365 13.4162 157.986 13.975 157.986 14.6472H158.372H158.758C158.758 14.294 158.953 13.9516 159.353 13.6817C159.755 13.4103 160.344 13.2312 161.044 13.2312V12.845ZM158.372 14.6472H157.986C157.986 15.0368 158.082 15.5308 158.605 15.9809C159.099 16.4053 159.942 16.763 161.348 17.0159L161.417 16.6358L161.485 16.2557C160.126 16.0114 159.447 15.6855 159.109 15.3953C158.801 15.1307 158.758 14.879 158.758 14.6472H158.372ZM161.417 16.6358L161.35 17.0162C163.003 17.3069 164.089 17.7419 164.758 18.3028C165.404 18.8453 165.691 19.5309 165.691 20.4267H166.078H166.464C166.464 19.3338 166.098 18.4192 165.254 17.711C164.431 17.0212 163.187 16.5551 161.484 16.2554L161.417 16.6358Z" fill="#471207"/>
</svg>
