<svg width="237" height="101" viewBox="0 0 237 101" fill="none" xmlns="http://www.w3.org/2000/svg">
<path d="M13.4029 87.1915H0.762251C0.254084 87.1915 0 86.9374 0 86.4927V48.0626C0 47.5544 0.190563 47.3003 0.635209 47.3003H7.17786C7.68603 47.3003 7.8766 47.5544 7.8766 48.0626V79.1243C7.8766 79.3149 7.98246 79.4419 8.17303 79.4419H13.4029C13.784 79.4419 14.1652 79.7595 14.1652 80.1406V86.4927C14.1652 86.9374 13.9111 87.1915 13.4029 87.1915Z" fill="#471207"/>
<path d="M25.9468 94.9154H18.9595C18.4725 94.9154 18.1337 94.4073 18.3878 93.8991L39.0321 55.2784C39.1592 55.0243 39.4132 54.8973 39.6673 54.8973C39.9214 54.8973 40.1755 55.0243 40.3025 55.2784L60.9468 93.8991C61.1798 94.3438 60.8833 94.9154 60.3751 94.9154H53.3879C53.0702 94.9154 52.8797 94.7884 52.7526 94.5343L46.9722 83.6087C46.8452 83.3546 46.4006 82.8465 45.7653 82.8465H33.5693C32.9341 82.8465 32.4895 83.3546 32.3624 83.6087L26.582 94.5343C26.455 94.7884 26.2644 94.9154 25.9468 94.9154ZM36.7454 75.224H42.5893L40.112 70.5234C39.9849 70.2693 39.8579 70.1423 39.6673 70.1423C39.4768 70.1423 39.3497 70.2693 39.2227 70.5234L36.7454 75.224Z" fill="#471207"/>
<path d="M84.4491 87.1914H77.9064C77.3347 87.1914 77.2077 86.8738 77.2077 86.4292V47.999C77.2077 47.5544 77.4618 47.3003 77.9064 47.3003H88.2603C95.0571 47.3003 99.8212 52.3185 99.8212 59.1152C99.8212 65.7214 95.3747 70.8666 88.2603 70.8666H85.9101C85.5925 70.8666 85.0843 70.9936 85.0843 71.6923V86.4292C85.0843 86.8103 84.8937 87.1914 84.4491 87.1914ZM85.9313 63.4346H87.8157C89.9754 63.4346 92.0716 61.7831 92.0716 59.1152C92.0716 56.892 90.4201 54.7958 87.7522 54.7958H85.8889C85.4019 54.7958 85.0843 55.0287 85.0843 55.5368V62.5665C85.0843 63.0323 85.2113 63.4346 85.9313 63.4346Z" fill="#471207"/>
<path d="M119.008 94.9154H106.875C106.431 94.9154 106.177 94.6614 106.177 94.2167V55.723C106.177 55.2784 106.431 55.0243 106.875 55.0243H119.008C119.453 55.0243 119.707 55.3419 119.707 55.7865V62.0116C119.707 62.6256 119.347 62.9009 118.881 62.9009H115.578C114.54 62.9009 114.053 63.4938 114.053 64.5101V69.0624C114.053 69.6976 114.307 70.5234 115.832 70.5234H117.61C117.992 70.5234 118.309 70.841 118.309 71.2221V78.6541C118.309 79.0352 117.992 79.3528 117.61 79.3528H115.832C114.307 79.3528 114.053 80.1786 114.053 80.8138V85.2603C114.053 86.086 114.307 87.0388 115.578 87.0388H119.008C119.453 87.0388 119.707 87.2929 119.707 87.7376V94.2167C119.707 94.5978 119.453 94.9154 119.008 94.9154Z" fill="#471207"/>
<path d="M137.826 100.449C134.332 100.449 131.156 99.3059 128.806 96.9556C126.646 94.7959 125.566 92.0645 125.439 89.079C125.439 88.6132 125.545 88.4438 126.011 88.4438H132.617C132.998 88.4438 133.189 88.6344 133.189 88.952C133.189 90.54 135.094 92.7632 137.19 92.7632C139.731 92.7632 141.637 90.9846 141.637 88.4438C141.637 86.0935 140.049 84.1879 137.254 84.1879C130.457 84.1879 125.439 79.0427 125.439 71.7378C125.439 65.2587 131.092 60.304 137.381 60.304C142.59 60.304 146.909 63.4801 148.815 68.3077C149.323 69.5781 149.45 70.7215 149.45 71.6108C149.45 72.0554 149.259 72.246 148.878 72.246H142.272C141.912 72.246 141.7 72.0554 141.637 71.7378C141.192 69.5781 139.477 68.1171 137.444 68.1171C135.348 68.1171 133.189 69.7051 133.189 72.246C133.189 74.3422 134.522 76.5019 137.635 76.5019C144.241 76.5019 149.45 82.0282 149.45 88.4438C149.45 94.8594 144.051 100.449 137.826 100.449Z" fill="#471207"/>
<path d="M168.634 94.9154H156.501C156.057 94.9154 155.802 94.6614 155.802 94.2167V55.723C155.802 55.2784 156.057 55.0243 156.501 55.0243H168.634C169.078 55.0243 169.332 55.3419 169.332 55.7865V62.0116C169.332 62.6256 168.972 62.9009 168.507 62.9009H165.204C164.166 62.9009 163.679 63.4938 163.679 64.5101V69.0624C163.679 69.6976 163.933 70.5234 165.458 70.5234H167.236C167.617 70.5234 167.935 70.841 167.935 71.2221V78.6541C167.935 79.0352 167.617 79.3528 167.236 79.3528H165.458C163.933 79.3528 163.679 80.1786 163.679 80.8138V85.2603C163.679 86.086 163.933 87.0388 165.204 87.0388H168.634C169.078 87.0388 169.332 87.2929 169.332 87.7376V94.2167C169.332 94.5978 169.078 94.9154 168.634 94.9154Z" fill="#471207"/>
<path d="M187.754 55.304V86.4292C187.754 86.9374 187.458 87.1915 187.013 87.1915H180.618C180.174 87.1915 179.877 86.9374 179.877 86.4292V55.304C179.877 55.2404 179.814 55.0499 179.56 55.0499H177.4C176.892 55.0499 176.638 54.8593 176.638 54.3511V47.9991C176.638 47.4909 176.892 47.3003 177.4 47.3003H190.231C190.739 47.3003 190.994 47.4909 190.994 47.9991V54.3511C190.994 54.8593 190.739 55.0499 190.231 55.0499H188.072C187.817 55.0499 187.754 55.2404 187.754 55.304Z" fill="#471207"/>
<path d="M201.165 87.1915H194.178C193.691 87.1915 193.352 86.6833 193.606 86.1751L214.251 47.5544C214.378 47.3003 214.632 47.1733 214.886 47.1733C215.14 47.1733 215.394 47.3003 215.521 47.5544L236.165 86.1751C236.398 86.6198 236.102 87.1915 235.594 87.1915H228.606C228.289 87.1915 228.098 87.0644 227.971 86.8103L222.191 75.8847C222.064 75.6307 221.619 75.1225 220.984 75.1225H208.788C208.153 75.1225 207.708 75.6307 207.581 75.8847L201.801 86.8103C201.673 87.0644 201.483 87.1915 201.165 87.1915ZM211.964 67.5H217.808L215.33 62.7994C215.203 62.5453 215.076 62.4183 214.886 62.4183C214.695 62.4183 214.568 62.5453 214.441 62.7994L211.964 67.5Z" fill="#471207"/>
<path d="M73.0094 15.8279H80.9018C80.2182 14.1811 78.7578 13.0625 76.9556 13.0625C75.1534 13.0625 73.6619 14.2121 73.0094 15.8279ZM76.9556 24C73.5376 24 70.8343 21.1103 70.8343 17.6301C70.8343 14.0257 73.5376 11.1049 76.9556 11.1049C80.3736 11.1049 83.0769 14.0257 83.0769 17.6301H72.6987C72.6987 20.0849 74.6252 22.0424 76.9556 22.0424C78.5714 22.0424 80.0007 21.1103 80.7154 19.8674H82.704C81.8029 22.1978 79.6589 24 76.9556 24ZM94.8847 20.4267C94.8847 22.726 92.6786 24 90.0374 24C87.4895 24 85.4697 22.7882 84.9415 20.9549H87.1166C87.3652 21.7317 88.6081 22.3221 90.0374 22.3221C91.8707 22.3221 92.8339 21.421 92.8339 20.4267C92.8339 18.9352 91.1249 18.7177 89.7888 18.4691C87.5205 18.0341 85.2212 17.2262 85.2212 14.6472C85.2212 12.3167 87.4584 11.1049 89.851 11.1049C92.2436 11.1049 94.1079 12.3789 94.6051 14.2743H92.5543C92.3368 13.4353 91.1871 12.845 89.851 12.845C88.3284 12.845 87.1787 13.6218 87.1787 14.6472C87.1787 15.2686 87.4584 16.1386 90.2238 16.6358C93.5797 17.2262 94.8847 18.438 94.8847 20.4267ZM103.68 24H102.064C100.262 24 98.677 22.4464 98.677 20.7374V13.0625H95.9737V11.1049H98.4906C99.9199 11.1049 100.541 10.0174 100.541 8.58802V6.78581H102.499V8.58802C102.499 9.67556 102.25 10.3902 101.722 11.1049H103.68V13.0625H100.635V20.4888C100.635 21.3278 101.163 22.0424 102.064 22.0424H103.68V24ZM111.824 24C108.748 24 106.355 21.6696 106.355 18.5934V11.1049H108.313V18.5934C108.313 20.582 109.835 22.0424 111.824 22.0424C113.626 22.0424 115.242 20.582 115.242 18.7798V11.1049H117.2V24H115.242V22.4774C114.279 23.5028 113.285 24 111.824 24ZM126.575 24C122.971 24 120.174 21.1103 120.174 17.6301C120.174 13.9946 122.971 11.1049 126.575 11.1049C128.377 11.1049 130.024 12.006 130.925 13.28V3.80285H132.883V24H130.925V21.8249C130.024 23.0989 128.377 24 126.575 24ZM126.575 22.0424C128.937 22.0424 130.925 20.2091 130.925 17.6612C130.925 14.8957 128.937 13.0625 126.575 13.0625C124.058 13.0625 122.132 15.0822 122.132 17.6301C122.132 20.0227 124.058 22.0424 126.575 22.0424ZM139.094 24H137.136V13.0625H135.893V11.1049H139.094V24ZM137.975 8.46373C137.136 8.46373 136.484 7.8112 136.484 6.97224C136.484 6.16436 137.136 5.48076 137.975 5.48076C138.783 5.48076 139.467 6.16436 139.467 6.97224C139.467 7.8112 138.783 8.46373 137.975 8.46373ZM148.484 11.1049C151.995 11.1049 154.885 13.9636 154.885 17.5369C154.885 21.1413 151.995 24 148.484 24C144.972 24 142.083 21.1413 142.083 17.5369C142.083 13.9636 144.972 11.1049 148.484 11.1049ZM148.484 22.0424C150.938 22.0424 152.927 20.0849 152.927 17.5369C152.927 15.02 150.938 13.0625 148.484 13.0625C146.029 13.0625 144.04 15.02 144.04 17.5369C144.04 20.0849 146.029 22.0424 148.484 22.0424Z" fill="#471207"/>
<path d="M73.0094 15.8279L72.6513 15.6833L72.4369 16.2141H73.0094V15.8279ZM80.9018 15.8279V16.2141H81.4803L81.2585 15.6799L80.9018 15.8279ZM83.0769 17.6301V18.0163H83.4631V17.6301H83.0769ZM72.6987 17.6301V17.2439H72.3125V17.6301H72.6987ZM80.7154 19.8674V19.4812H80.492L80.3806 19.6748L80.7154 19.8674ZM82.704 19.8674L83.0643 20.0066L83.2674 19.4812H82.704V19.8674ZM73.0094 15.8279V16.2141H80.9018V15.8279V15.4417H73.0094V15.8279ZM80.9018 15.8279L81.2585 15.6799C80.5234 13.909 78.9346 12.6763 76.9556 12.6763V13.0625V13.4487C78.581 13.4487 79.913 14.4532 80.5451 15.976L80.9018 15.8279ZM76.9556 13.0625V12.6763C74.9774 12.6763 73.3555 13.9395 72.6513 15.6833L73.0094 15.8279L73.3675 15.9725C73.9683 14.4848 75.3294 13.4487 76.9556 13.4487V13.0625ZM76.9556 24V23.6138C73.7682 23.6138 71.2205 20.9147 71.2205 17.6301H70.8343H70.4481C70.4481 21.3058 73.307 24.3862 76.9556 24.3862V24ZM70.8343 17.6301H71.2205C71.2205 14.2138 73.7753 11.4911 76.9556 11.4911V11.1049V10.7187C73.3 10.7187 70.4481 13.8376 70.4481 17.6301H70.8343ZM76.9556 11.1049V11.4911C80.136 11.4911 82.6907 14.2138 82.6907 17.6301H83.0769H83.4631C83.4631 13.8376 80.6112 10.7187 76.9556 10.7187V11.1049ZM83.0769 17.6301V17.2439H72.6987V17.6301V18.0163H83.0769V17.6301ZM72.6987 17.6301H72.3125C72.3125 20.2873 74.4012 22.4286 76.9556 22.4286V22.0424V21.6562C74.8492 21.6562 73.0849 19.8825 73.0849 17.6301H72.6987ZM76.9556 22.0424V22.4286C78.7185 22.4286 80.2712 21.4147 81.0502 20.0599L80.7154 19.8674L80.3806 19.6748C79.7303 20.8058 78.4243 21.6562 76.9556 21.6562V22.0424ZM80.7154 19.8674V20.2536H82.704V19.8674V19.4812H80.7154V19.8674ZM82.704 19.8674L82.3438 19.7281C81.4901 21.936 79.4729 23.6138 76.9556 23.6138V24V24.3862C79.845 24.3862 82.1158 22.4595 83.0643 20.0066L82.704 19.8674ZM84.9415 20.9549V20.5687H84.4283L84.5704 21.0618L84.9415 20.9549ZM87.1166 20.9549L87.4844 20.8372L87.3985 20.5687H87.1166V20.9549ZM89.7888 18.4691L89.7161 18.8484L89.7182 18.8488L89.7888 18.4691ZM94.6051 14.2743V14.6605H95.1056L94.9786 14.1763L94.6051 14.2743ZM92.5543 14.2743L92.1804 14.3712L92.2554 14.6605H92.5543V14.2743ZM90.2238 16.6358L90.1555 17.0159L90.1569 17.0162L90.2238 16.6358ZM94.8847 20.4267H94.4985C94.4985 21.4342 94.0226 22.2145 93.2328 22.7573C92.4315 23.3079 91.302 23.6138 90.0374 23.6138V24V24.3862C91.414 24.3862 92.7081 24.0551 93.6702 23.3939C94.6438 22.7248 95.2709 21.7185 95.2709 20.4267H94.8847ZM90.0374 24V23.6138C87.5886 23.6138 85.7756 22.455 85.3126 20.848L84.9415 20.9549L84.5704 21.0618C85.1638 23.1214 87.3903 24.3862 90.0374 24.3862V24ZM84.9415 20.9549V21.3411H87.1166V20.9549V20.5687H84.9415V20.9549ZM87.1166 20.9549L86.7488 21.0726C86.9198 21.6072 87.4041 22.0133 87.9699 22.2793C88.5477 22.5509 89.2729 22.7083 90.0374 22.7083V22.3221V21.9359C89.3726 21.9359 88.7617 21.798 88.2985 21.5803C87.8234 21.3569 87.5619 21.0794 87.4844 20.8372L87.1166 20.9549ZM90.0374 22.3221V22.7083C91.9704 22.7083 93.2201 21.7324 93.2201 20.4267H92.8339H92.4477C92.4477 21.1096 91.771 21.9359 90.0374 21.9359V22.3221ZM92.8339 20.4267H93.2201C93.2201 19.9737 93.0882 19.596 92.8515 19.2902C92.6197 18.9907 92.3053 18.7826 91.9731 18.6306C91.324 18.3336 90.5009 18.2087 89.8595 18.0894L89.7888 18.4691L89.7182 18.8488C90.4128 18.978 91.1123 19.0862 91.6517 19.333C91.9138 19.4529 92.1101 19.5943 92.2406 19.7629C92.3661 19.925 92.4477 20.1339 92.4477 20.4267H92.8339ZM89.7888 18.4691L89.8616 18.0898C88.7355 17.8738 87.6598 17.5742 86.8703 17.0419C86.1062 16.5268 85.6074 15.7943 85.6074 14.6472H85.2212H84.835C84.835 16.0791 85.4858 17.04 86.4385 17.6823C87.3657 18.3075 88.5739 18.6293 89.7161 18.8484L89.7888 18.4691ZM85.2212 14.6472H85.6074C85.6074 13.6244 86.0908 12.8512 86.8587 12.3196C87.6379 11.7802 88.7135 11.4911 89.851 11.4911V11.1049V10.7187C88.5959 10.7187 87.3565 11.0355 86.419 11.6846C85.4701 12.3415 84.835 13.3395 84.835 14.6472H85.2212ZM89.851 11.1049V11.4911C92.1127 11.4911 93.7893 12.6863 94.2315 14.3723L94.6051 14.2743L94.9786 14.1763C94.4265 12.0714 92.3745 10.7187 89.851 10.7187V11.1049ZM94.6051 14.2743V13.8881H92.5543V14.2743V14.6605H94.6051V14.2743ZM92.5543 14.2743L92.9281 14.1774C92.7826 13.6162 92.3406 13.1856 91.8014 12.903C91.257 12.6176 90.5725 12.4588 89.851 12.4588V12.845V13.2312C90.4656 13.2312 91.0239 13.3675 91.4428 13.5871C91.8668 13.8094 92.1084 14.0934 92.1804 14.3712L92.5543 14.2743ZM89.851 12.845V12.4588C89.0282 12.4588 88.2811 12.6681 87.7279 13.0414C87.1724 13.4162 86.7925 13.975 86.7925 14.6472H87.1787H87.5649C87.5649 14.294 87.7599 13.9516 88.1599 13.6817C88.5621 13.4103 89.1512 13.2312 89.851 13.2312V12.845ZM87.1787 14.6472H86.7925C86.7925 15.0368 86.889 15.5308 87.4125 15.9809C87.9061 16.4053 88.7488 16.763 90.1555 17.0159L90.2238 16.6358L90.2922 16.2557C88.9334 16.0114 88.2536 15.6855 87.916 15.3953C87.6083 15.1307 87.5649 14.879 87.5649 14.6472H87.1787ZM90.2238 16.6358L90.1569 17.0162C91.8096 17.3069 92.8956 17.7419 93.5646 18.3028C94.2115 18.8453 94.4985 19.5309 94.4985 20.4267H94.8847H95.2709C95.2709 19.3338 94.9055 18.4192 94.0609 17.711C93.2383 17.0212 91.9939 16.5551 90.2908 16.2554L90.2238 16.6358ZM103.68 24V24.3862H104.066V24H103.68ZM98.677 13.0625H99.0632V12.6763H98.677V13.0625ZM95.9737 13.0625H95.5875V13.4487H95.9737V13.0625ZM95.9737 11.1049V10.7187H95.5875V11.1049H95.9737ZM100.541 6.78581V6.39961H100.155V6.78581H100.541ZM102.499 6.78581H102.885V6.39961H102.499V6.78581ZM101.722 11.1049L101.412 10.8753L100.956 11.4911H101.722V11.1049ZM103.68 11.1049H104.066V10.7187H103.68V11.1049ZM103.68 13.0625V13.4487H104.066V13.0625H103.68ZM100.635 13.0625V12.6763H100.248V13.0625H100.635ZM103.68 22.0424H104.066V21.6562H103.68V22.0424ZM103.68 24V23.6138H102.064V24V24.3862H103.68V24ZM102.064 24V23.6138C100.463 23.6138 99.0632 22.2216 99.0632 20.7374H98.677H98.2908C98.2908 22.6711 100.06 24.3862 102.064 24.3862V24ZM98.677 20.7374H99.0632V13.0625H98.677H98.2908V20.7374H98.677ZM98.677 13.0625V12.6763H95.9737V13.0625V13.4487H98.677V13.0625ZM95.9737 13.0625H96.3599V11.1049H95.9737H95.5875V13.0625H95.9737ZM95.9737 11.1049V11.4911H98.4906V11.1049V10.7187H95.9737V11.1049ZM98.4906 11.1049V11.4911C99.3162 11.4911 99.9488 11.1701 100.362 10.6125C100.763 10.072 100.928 9.3507 100.928 8.58802H100.541H100.155C100.155 9.25467 100.009 9.79182 99.7417 10.1525C99.4871 10.4959 99.0943 10.7187 98.4906 10.7187V11.1049ZM100.541 8.58802H100.928V6.78581H100.541H100.155V8.58802H100.541ZM100.541 6.78581V7.17201H102.499V6.78581V6.39961H100.541V6.78581ZM102.499 6.78581H102.113V8.58802H102.499H102.885V6.78581H102.499ZM102.499 8.58802H102.113C102.113 9.59898 101.887 10.2318 101.412 10.8753L101.722 11.1049L102.033 11.3344C102.614 10.5486 102.885 9.75213 102.885 8.58802H102.499ZM101.722 11.1049V11.4911H103.68V11.1049V10.7187H101.722V11.1049ZM103.68 11.1049H103.294V13.0625H103.68H104.066V11.1049H103.68ZM103.68 13.0625V12.6763H100.635V13.0625V13.4487H103.68V13.0625ZM100.635 13.0625H100.248V20.4888H100.635H101.021V13.0625H100.635ZM100.635 20.4888H100.248C100.248 20.9868 100.405 21.4689 100.719 21.8325C101.038 22.2023 101.503 22.4286 102.064 22.4286V22.0424V21.6562C101.724 21.6562 101.474 21.5252 101.304 21.3279C101.128 21.1245 101.021 20.8297 101.021 20.4888H100.635ZM102.064 22.0424V22.4286H103.68V22.0424V21.6562H102.064V22.0424ZM103.68 22.0424H103.294V24H103.68H104.066V22.0424H103.68ZM106.355 11.1049V10.7187H105.969V11.1049H106.355ZM108.313 11.1049H108.699V10.7187H108.313V11.1049ZM115.242 11.1049V10.7187H114.856V11.1049H115.242ZM117.2 11.1049H117.586V10.7187H117.2V11.1049ZM117.2 24V24.3862H117.586V24H117.2ZM115.242 24H114.856V24.3862H115.242V24ZM115.242 22.4774H115.628V21.5023L114.961 22.213L115.242 22.4774ZM111.824 24V23.6138C108.955 23.6138 106.742 21.4505 106.742 18.5934H106.355H105.969C105.969 21.8886 108.54 24.3862 111.824 24.3862V24ZM106.355 18.5934H106.742V11.1049H106.355H105.969V18.5934H106.355ZM106.355 11.1049V11.4911H108.313V11.1049V10.7187H106.355V11.1049ZM108.313 11.1049H107.927V18.5934H108.313H108.699V11.1049H108.313ZM108.313 18.5934H107.927C107.927 20.8044 109.631 22.4286 111.824 22.4286V22.0424V21.6562C110.04 21.6562 108.699 20.3597 108.699 18.5934H108.313ZM111.824 22.0424V22.4286C113.816 22.4286 115.628 20.8181 115.628 18.7798H115.242H114.856C114.856 20.3459 113.437 21.6562 111.824 21.6562V22.0424ZM115.242 18.7798H115.628V11.1049H115.242H114.856V18.7798H115.242ZM115.242 11.1049V11.4911H117.2V11.1049V10.7187H115.242V11.1049ZM117.2 11.1049H116.813V24H117.2H117.586V11.1049H117.2ZM117.2 24V23.6138H115.242V24V24.3862H117.2V24ZM115.242 24H115.628V22.4774H115.242H114.856V24H115.242ZM115.242 22.4774L114.961 22.213C114.503 22.6999 114.053 23.0458 113.559 23.2721C113.066 23.4978 112.508 23.6138 111.824 23.6138V24V24.3862C112.6 24.3862 113.27 24.2537 113.88 23.9744C114.489 23.6958 115.018 23.2804 115.524 22.7419L115.242 22.4774ZM130.925 13.28L130.61 13.503L131.311 14.4948V13.28H130.925ZM130.925 3.80285V3.41665H130.539V3.80285H130.925ZM132.883 3.80285H133.269V3.41665H132.883V3.80285ZM132.883 24V24.3862H133.269V24H132.883ZM130.925 24H130.539V24.3862H130.925V24ZM130.925 21.8249H131.311V20.6101L130.61 21.6019L130.925 21.8249ZM126.575 24V23.6138C123.186 23.6138 120.56 20.8994 120.56 17.6301H120.174H119.788C119.788 21.3211 122.755 24.3862 126.575 24.3862V24ZM120.174 17.6301H120.56C120.56 14.1994 123.192 11.4911 126.575 11.4911V11.1049V10.7187C122.749 10.7187 119.788 13.7899 119.788 17.6301H120.174ZM126.575 11.1049V11.4911C128.254 11.4911 129.782 12.3331 130.61 13.503L130.925 13.28L131.241 13.057C130.266 11.6789 128.501 10.7187 126.575 10.7187V11.1049ZM130.925 13.28H131.311V3.80285H130.925H130.539V13.28H130.925ZM130.925 3.80285V4.18904H132.883V3.80285V3.41665H130.925V3.80285ZM132.883 3.80285H132.497V24H132.883H133.269V3.80285H132.883ZM132.883 24V23.6138H130.925V24V24.3862H132.883V24ZM130.925 24H131.311V21.8249H130.925H130.539V24H130.925ZM130.925 21.8249L130.61 21.6019C129.782 22.7718 128.254 23.6138 126.575 23.6138V24V24.3862C128.501 24.3862 130.266 23.426 131.241 22.0479L130.925 21.8249ZM126.575 22.0424V22.4286C129.143 22.4286 131.311 20.4296 131.311 17.6612H130.925H130.539C130.539 19.9887 128.731 21.6562 126.575 21.6562V22.0424ZM130.925 17.6612H131.311C131.311 14.6878 129.155 12.6763 126.575 12.6763V13.0625V13.4487C128.718 13.4487 130.539 15.1037 130.539 17.6612H130.925ZM126.575 13.0625V12.6763C123.833 12.6763 121.746 14.8812 121.746 17.6301H122.132H122.518C122.518 15.2831 124.284 13.4487 126.575 13.4487V13.0625ZM122.132 17.6301H121.746C121.746 20.2325 123.841 22.4286 126.575 22.4286V22.0424V21.6562C124.275 21.6562 122.518 19.813 122.518 17.6301H122.132ZM139.094 24V24.3862H139.48V24H139.094ZM137.136 24H136.75V24.3862H137.136V24ZM137.136 13.0625H137.522V12.6763H137.136V13.0625ZM135.893 13.0625H135.507V13.4487H135.893V13.0625ZM135.893 11.1049V10.7187H135.507V11.1049H135.893ZM139.094 11.1049H139.48V10.7187H139.094V11.1049ZM139.094 24V23.6138H137.136V24V24.3862H139.094V24ZM137.136 24H137.522V13.0625H137.136H136.75V24H137.136ZM137.136 13.0625V12.6763H135.893V13.0625V13.4487H137.136V13.0625ZM135.893 13.0625H136.279V11.1049H135.893H135.507V13.0625H135.893ZM135.893 11.1049V11.4911H139.094V11.1049V10.7187H135.893V11.1049ZM139.094 11.1049H138.707V24H139.094H139.48V11.1049H139.094ZM137.975 8.46373V8.07753C137.349 8.07753 136.87 7.59791 136.87 6.97224H136.484H136.097C136.097 8.0245 136.923 8.84993 137.975 8.84993V8.46373ZM136.484 6.97224H136.87C136.87 6.37239 137.355 5.86696 137.975 5.86696V5.48076V5.09456C136.918 5.09456 136.097 5.95633 136.097 6.97224H136.484ZM137.975 5.48076V5.86696C138.57 5.86696 139.08 6.37765 139.08 6.97224H139.467H139.853C139.853 5.95107 138.996 5.09456 137.975 5.09456V5.48076ZM139.467 6.97224H139.08C139.08 7.59269 138.575 8.07753 137.975 8.07753V8.46373V8.84993C138.991 8.84993 139.853 8.02972 139.853 6.97224H139.467ZM148.484 11.1049V11.4911C151.782 11.4911 154.498 14.1769 154.498 17.5369H154.885H155.271C155.271 13.7503 152.208 10.7187 148.484 10.7187V11.1049ZM154.885 17.5369H154.498C154.498 20.9293 151.78 23.6138 148.484 23.6138V24V24.3862C152.209 24.3862 155.271 21.3534 155.271 17.5369H154.885ZM148.484 24V23.6138C145.187 23.6138 142.469 20.9293 142.469 17.5369H142.083H141.697C141.697 21.3534 144.758 24.3862 148.484 24.3862V24ZM142.083 17.5369H142.469C142.469 14.1769 145.186 11.4911 148.484 11.4911V11.1049V10.7187C144.759 10.7187 141.697 13.7503 141.697 17.5369H142.083ZM148.484 22.0424V22.4286C151.153 22.4286 153.313 20.2964 153.313 17.5369H152.927H152.541C152.541 19.8733 150.723 21.6562 148.484 21.6562V22.0424ZM152.927 17.5369H153.313C153.313 14.8067 151.152 12.6763 148.484 12.6763V13.0625V13.4487C150.725 13.4487 152.541 15.2333 152.541 17.5369H152.927ZM148.484 13.0625V12.6763C145.816 12.6763 143.654 14.8067 143.654 17.5369H144.04H144.426C144.426 15.2333 146.242 13.4487 148.484 13.4487V13.0625ZM144.04 17.5369H143.654C143.654 20.2964 145.814 22.4286 148.484 22.4286V22.0424V21.6562C146.244 21.6562 144.426 19.8733 144.426 17.5369H144.04Z" fill="#471207"/>
</svg>
