<svg width="189" height="333" viewBox="0 0 189 333" fill="none" xmlns="http://www.w3.org/2000/svg">
<path d="M60.42 332.84H5.83C1.06 332.84 0 330.19 0 326.48V5.83002C0 2.12 2.12 0 5.83 0H92.22C148.93 0 188.68 41.87 188.68 98.58C188.68 153.7 151.58 196.63 92.22 196.63H72.61C69.96 196.63 65.72 197.69 65.72 203.52V326.48C65.72 329.66 64.13 332.84 60.42 332.84ZM72.7867 134.62H88.51C106.53 134.62 124.02 120.84 124.02 98.58C124.02 80.03 110.24 62.54 87.98 62.54H72.4333C68.37 62.54 65.72 64.4833 65.72 68.7233V127.377C65.72 131.263 66.78 134.62 72.7867 134.62Z" fill="#FDBB00"/>
</svg>
