<svg width="304" height="126" viewBox="0 0 304 126" fill="none" xmlns="http://www.w3.org/2000/svg">
<ellipse cx="151.538" cy="62.8719" rx="151.538" ry="62.8719" fill="#FF1935"/>
<path d="M186.103 68.8665C186.103 72.5274 188.978 75.4925 192.875 75.4925C196.336 75.4925 199.211 72.5272 199.211 69.3031V49.9583H206.837V83.4154C206.837 92.6261 199.311 99.9232 190.474 99.9232C182.82 99.9228 176.182 94.3754 174.583 86.8597L174.192 85.0228H181.998L182.328 86.099C183.453 89.7842 186.741 92.2968 190.474 92.2972C195.089 92.2972 199.211 88.3941 199.211 83.3421V81.513C198.733 81.8127 198.243 82.0756 197.729 82.2953C196.242 82.9312 194.664 83.1917 192.875 83.1917C184.777 83.1917 178.477 77.0709 178.477 68.8665V49.9583H186.103V68.8665ZM191.585 98.3578C191.219 98.3859 190.85 98.3996 190.479 98.3997C190.85 98.3996 191.219 98.3859 191.585 98.3578ZM191.652 98.3519C191.749 98.344 191.845 98.3353 191.941 98.3255C191.845 98.3353 191.749 98.344 191.652 98.3519ZM192.044 98.3138C192.135 98.3038 192.226 98.2933 192.317 98.2816C192.226 98.2933 192.135 98.3038 192.044 98.3138ZM188.585 98.2738C188.629 98.2797 188.674 98.2839 188.719 98.2894C188.674 98.2839 188.629 98.2797 188.585 98.2738ZM192.457 98.263C192.515 98.255 192.572 98.2473 192.63 98.2386C192.572 98.2473 192.515 98.255 192.457 98.263ZM187.977 98.179C188.04 98.1904 188.104 98.1988 188.168 98.2093C188.104 98.1988 188.04 98.1904 187.977 98.179ZM192.836 98.2054C192.904 98.1942 192.971 98.1824 193.039 98.1703C192.971 98.1824 192.904 98.1942 192.836 98.2054ZM193.084 98.1624C193.187 98.1436 193.289 98.1239 193.392 98.1029C193.289 98.1239 193.187 98.1436 193.084 98.1624ZM187.365 98.055C187.431 98.0697 187.497 98.0823 187.562 98.096C187.497 98.0823 187.431 98.0697 187.365 98.055ZM193.457 98.0892C193.549 98.0697 193.642 98.0499 193.733 98.0287C193.642 98.0499 193.549 98.0697 193.457 98.0892ZM193.853 97.9994C193.926 97.9817 193.999 97.9644 194.072 97.9456C193.999 97.9644 193.926 97.9818 193.853 97.9994ZM186.772 97.9095C186.837 97.9269 186.902 97.9419 186.967 97.9583C186.902 97.9419 186.837 97.9269 186.772 97.9095ZM194.2 97.9124C194.273 97.893 194.346 97.8724 194.418 97.8519C194.346 97.8724 194.273 97.8931 194.2 97.9124ZM194.582 97.804C194.637 97.7877 194.692 97.7712 194.747 97.7542C194.692 97.7712 194.637 97.7878 194.582 97.804ZM186.187 97.7386C186.241 97.7557 186.295 97.771 186.35 97.7874C186.295 97.771 186.241 97.7557 186.187 97.7386ZM194.904 97.7054C194.97 97.6845 195.035 97.6628 195.1 97.641C195.035 97.6628 194.97 97.6845 194.904 97.7054ZM185.604 97.5414C185.663 97.5625 185.722 97.5815 185.78 97.6019C185.722 97.5815 185.663 97.5625 185.604 97.5414ZM195.223 97.599C195.304 97.5709 195.384 97.5425 195.465 97.513C195.384 97.5425 195.304 97.5709 195.223 97.599ZM195.549 97.4818C195.623 97.4542 195.696 97.4255 195.77 97.3968C195.696 97.4255 195.623 97.4542 195.549 97.4818ZM185.002 97.307C185.09 97.3435 185.179 97.3786 185.269 97.4134C185.179 97.3786 185.09 97.3435 185.002 97.307ZM195.912 97.3402C195.975 97.3148 196.038 97.2893 196.101 97.263C196.038 97.2893 195.975 97.3148 195.912 97.3402ZM196.217 97.2142C196.294 97.1812 196.37 97.1469 196.446 97.1126C196.37 97.1469 196.294 97.1812 196.217 97.2142ZM184.453 97.0667C184.545 97.1092 184.638 97.1492 184.73 97.1898C184.638 97.1492 184.545 97.1092 184.453 97.0667ZM196.548 97.0667C196.614 97.0363 196.68 97.0054 196.746 96.974C196.68 97.0054 196.614 97.0363 196.548 97.0667ZM183.896 96.7953C183.986 96.8414 184.076 96.8857 184.167 96.93C184.076 96.8857 183.986 96.8414 183.896 96.7953ZM196.876 96.9115C196.947 96.8769 197.017 96.8416 197.087 96.806C197.017 96.8416 196.947 96.8769 196.876 96.9115ZM197.184 96.7572C197.248 96.7238 197.312 96.6899 197.376 96.6556C197.312 96.6899 197.248 96.7238 197.184 96.7572ZM183.378 96.515C183.45 96.5558 183.523 96.5955 183.596 96.6351C183.523 96.5955 183.45 96.5558 183.378 96.515ZM197.512 96.5824C197.565 96.5531 197.618 96.5234 197.671 96.4935C197.618 96.5234 197.565 96.5531 197.512 96.5824ZM197.835 96.3988C197.877 96.374 197.92 96.3488 197.962 96.3236C197.92 96.3488 197.877 96.374 197.835 96.3988ZM182.84 96.1947C182.917 96.2429 182.995 96.2904 183.073 96.3372C182.995 96.2904 182.917 96.2429 182.84 96.1947ZM198.126 96.2249C198.193 96.184 198.259 96.142 198.325 96.0999C198.259 96.142 198.193 96.184 198.126 96.2249ZM198.402 96.0511C198.47 96.0077 198.537 95.9637 198.604 95.9193C198.537 95.9637 198.47 96.0077 198.402 96.0511ZM182.335 95.8656C182.408 95.9153 182.482 95.9636 182.556 96.0121C182.482 95.9636 182.408 95.9153 182.335 95.8656ZM198.72 95.8412C198.77 95.8067 198.821 95.7718 198.871 95.7367C198.821 95.7718 198.77 95.8067 198.72 95.8412ZM181.844 95.5169C181.911 95.5668 181.979 95.6157 182.047 95.6644C181.979 95.6157 181.911 95.5668 181.844 95.5169ZM199.008 95.641C199.047 95.6131 199.085 95.5843 199.124 95.556C199.085 95.5843 199.047 95.6131 199.008 95.641ZM181.361 95.1429C181.427 95.1962 181.494 95.249 181.561 95.3011C181.494 95.249 181.427 95.1962 181.361 95.1429ZM180.897 94.7533C180.959 94.8068 181.02 94.8599 181.082 94.9124C181.02 94.8599 180.959 94.8068 180.897 94.7533ZM180.435 94.3304C180.5 94.3931 180.567 94.4554 180.634 94.5169C180.567 94.4554 180.501 94.3931 180.435 94.3304ZM179.997 93.8968C180.063 93.9651 180.13 94.0329 180.197 94.0999C180.13 94.0329 180.063 93.9651 179.997 93.8968ZM195.7 92.3255C195.277 92.5848 194.835 92.8134 194.378 93.0091C194.226 93.0743 194.072 93.136 193.917 93.1937C192.83 93.598 191.667 93.8167 190.474 93.8167L190.475 93.8177C192.52 93.8177 194.474 93.1732 196.117 92.057L195.7 92.3255ZM189.649 93.7835C189.777 93.7943 189.906 93.8012 190.035 93.807C189.769 93.7951 189.504 93.7736 189.243 93.7406L189.649 93.7835ZM201.609 93.2826C201.491 93.4176 201.371 93.5503 201.248 93.681C201.371 93.5503 201.491 93.4176 201.609 93.2826ZM185.486 92.4525C186.492 93.0456 187.603 93.4618 188.777 93.6683C187.603 93.4619 186.492 93.0455 185.486 92.4525ZM179.592 93.4622C179.651 93.5279 179.71 93.593 179.77 93.6576C179.71 93.593 179.651 93.5279 179.592 93.4622ZM179.205 93.0121C179.25 93.0662 179.294 93.1207 179.34 93.1742C179.294 93.1207 179.25 93.0662 179.205 93.0121ZM201.99 92.8285C202.016 92.7966 202.042 92.7649 202.067 92.7328C202.042 92.7649 202.016 92.7966 201.99 92.8285ZM178.849 92.5648C178.88 92.6055 178.911 92.6464 178.942 92.6869C178.911 92.6464 178.88 92.6055 178.849 92.5648ZM202.158 92.6165C202.205 92.557 202.25 92.4971 202.296 92.4369C202.25 92.4971 202.205 92.557 202.158 92.6165ZM202.771 91.7669C202.815 91.7021 202.859 91.6372 202.901 91.5716C202.859 91.6372 202.815 91.7021 202.771 91.7669ZM178.443 92.0091C178.493 92.08 178.541 92.1511 178.592 92.221C178.541 92.1511 178.493 92.08 178.443 92.0091ZM182.908 90.2767C183.386 90.8389 183.919 91.3465 184.5 91.7894C183.919 91.3466 183.386 90.8389 182.908 90.2767ZM178.062 91.432C178.125 91.5322 178.188 91.6323 178.253 91.7308C178.188 91.6323 178.125 91.5322 178.062 91.432ZM202.992 91.429C203.024 91.3795 203.056 91.3306 203.087 91.2806C203.056 91.3306 203.024 91.3795 202.992 91.429ZM177.807 91.013C177.842 91.074 177.878 91.1352 177.914 91.1956C177.878 91.1352 177.842 91.074 177.807 91.013ZM200.731 83.3421C200.731 86.2883 199.532 88.9081 197.649 90.7904C199.532 88.9082 200.731 86.2891 200.731 83.3431V83.3421ZM203.176 91.1341C203.209 91.0781 203.242 91.0217 203.275 90.9652C203.242 91.0217 203.209 91.0781 203.176 91.1341ZM203.373 90.7962C203.407 90.7355 203.442 90.6749 203.476 90.6136C203.442 90.6749 203.407 90.7355 203.373 90.7962ZM177.528 90.5169C177.549 90.556 177.57 90.5953 177.591 90.6341C177.57 90.5953 177.549 90.556 177.528 90.5169ZM203.511 90.5492C203.553 90.4704 203.594 90.3905 203.636 90.3109C203.594 90.3905 203.553 90.4704 203.511 90.5492ZM203.687 90.2142C203.721 90.1458 203.756 90.0772 203.79 90.0081C203.756 90.0772 203.721 90.1458 203.687 90.2142ZM177.177 89.8167C177.222 89.9124 177.266 90.0084 177.312 90.1029C177.266 90.0084 177.222 89.9124 177.177 89.8167ZM181.479 88.0882C181.797 88.744 182.182 89.3564 182.619 89.9203C182.182 89.3562 181.798 88.7433 181.479 88.0872V88.0882ZM203.852 89.8812C203.885 89.811 203.918 89.7401 203.95 89.6693C203.918 89.7401 203.885 89.811 203.852 89.8812ZM203.997 89.5658C204.027 89.499 204.057 89.4319 204.086 89.3646C204.057 89.4319 204.027 89.499 203.997 89.5658ZM176.939 89.2865C176.976 89.3718 177.01 89.4578 177.048 89.5423C177.01 89.4578 176.976 89.3718 176.939 89.2865ZM204.146 89.2249C204.176 89.1526 204.206 89.0801 204.235 89.0072C204.206 89.0801 204.176 89.1526 204.146 89.2249ZM204.278 88.8988C204.307 88.8251 204.336 88.7514 204.364 88.6771C204.336 88.7514 204.307 88.8251 204.278 88.8988ZM204.52 88.2455C204.483 88.3529 204.444 88.4595 204.405 88.5658C204.444 88.4594 204.483 88.3529 204.52 88.2455ZM204.642 87.8675C204.745 87.5365 204.837 87.2006 204.917 86.8597C204.837 87.2005 204.744 87.5365 204.642 87.8675ZM205.006 86.4515C205.156 85.7239 205.253 84.9764 205.293 84.2122C205.253 84.9763 205.156 85.7239 205.006 86.4515ZM110.505 32.8636C118.396 32.8639 124.901 39.2865 124.901 47.2611C124.901 55.1686 118.39 61.586 110.505 61.5863H103.078V83.1917H95.4521V32.8636H110.505ZM135.817 83.1917H128.191V32.8636H135.817V83.1917ZM172.657 83.1917H165.031V80.2787C162.644 82.1181 159.637 83.1917 156.149 83.1917C147.07 83.1917 139.788 75.7972 139.788 66.6107C139.788 57.3565 147.065 49.9583 156.149 49.9583C159.636 49.9584 162.644 51.0306 165.031 52.8695V49.9583H172.657V83.1917ZM101.557 60.0648V81.6693H101.558V60.0648H101.557ZM134.296 81.6693H134.297V34.3851H134.296V81.6693ZM166.551 76.5785V81.6693H166.552V76.5775L166.551 76.5785ZM192.21 81.6537C192.22 81.6541 192.229 81.6542 192.239 81.6546C192.229 81.6542 192.22 81.6541 192.21 81.6537ZM155.009 81.6263C155.105 81.6336 155.201 81.6384 155.297 81.6439C155.201 81.6384 155.105 81.6336 155.009 81.6263ZM154.259 81.5492C154.485 81.5781 154.714 81.6019 154.943 81.6205C154.714 81.6019 154.485 81.5781 154.259 81.5492ZM191.56 81.6087C191.575 81.6101 191.59 81.6113 191.604 81.6126C191.59 81.6113 191.575 81.6101 191.56 81.6087ZM190.911 81.5326C190.936 81.5361 190.961 81.5389 190.986 81.5423C190.961 81.5389 190.936 81.5361 190.911 81.5326ZM153.917 81.5013C153.996 81.5133 154.075 81.5238 154.154 81.5345C154.075 81.5238 153.996 81.5133 153.917 81.5013ZM153.533 81.4388C153.605 81.4516 153.676 81.4623 153.748 81.474C153.676 81.4623 153.605 81.4516 153.533 81.4388ZM190.305 81.4339C190.312 81.4353 190.32 81.4365 190.327 81.4378C190.32 81.4365 190.312 81.4353 190.305 81.4339ZM153.205 81.3753C153.25 81.3843 153.294 81.3931 153.339 81.4017C153.294 81.3931 153.25 81.3843 153.205 81.3753ZM152.824 81.2933C152.887 81.3076 152.949 81.3208 153.012 81.3343C152.949 81.3208 152.887 81.3076 152.824 81.2933ZM189.669 81.2982C189.694 81.3042 189.72 81.3099 189.745 81.3158C189.72 81.3099 189.694 81.3042 189.669 81.2982ZM152.501 81.2152C152.536 81.2242 152.572 81.2328 152.607 81.2415C152.572 81.2328 152.536 81.2242 152.501 81.2152ZM152.118 81.1126C152.179 81.1299 152.24 81.146 152.302 81.1624C152.24 81.146 152.179 81.1299 152.118 81.1126ZM189.081 81.1439C189.095 81.148 189.11 81.1525 189.124 81.1566C189.11 81.1525 189.095 81.148 189.081 81.1439ZM151.766 81.0072C151.839 81.0298 151.912 81.052 151.985 81.0736C151.912 81.052 151.839 81.0298 151.766 81.0072ZM188.476 80.9544C188.502 80.9634 188.528 80.972 188.555 80.9808C188.528 80.972 188.502 80.9634 188.476 80.9544ZM151.452 80.9066C151.51 80.9261 151.569 80.9444 151.628 80.9632C151.569 80.9444 151.51 80.9261 151.452 80.9066ZM151.107 80.7855C151.156 80.8031 151.204 80.8202 151.253 80.8372C151.204 80.8202 151.156 80.8031 151.107 80.7855ZM187.917 80.7503C187.931 80.7557 187.944 80.7607 187.958 80.766C187.944 80.7607 187.931 80.7557 187.917 80.7503ZM150.787 80.6654C150.828 80.6814 150.87 80.6966 150.911 80.7122C150.87 80.6966 150.828 80.6814 150.787 80.6654ZM150.44 80.5257C150.489 80.5463 150.539 80.5662 150.588 80.5863C150.539 80.5662 150.489 80.5463 150.44 80.5257ZM187.354 80.514C187.372 80.5217 187.389 80.5288 187.406 80.5365C187.389 80.5288 187.372 80.5217 187.354 80.514ZM150.143 80.3958C150.173 80.4095 150.204 80.4234 150.234 80.4369C150.204 80.4234 150.173 80.4095 150.143 80.3958ZM149.777 80.2269C149.826 80.2503 149.875 80.2734 149.924 80.2962C149.875 80.2734 149.826 80.2503 149.777 80.2269ZM186.802 80.2494C186.821 80.259 186.839 80.2691 186.858 80.2787C186.839 80.2691 186.821 80.259 186.802 80.2494ZM149.46 80.0697C149.522 80.1014 149.585 80.1326 149.647 80.1634C149.585 80.1326 149.522 80.1014 149.46 80.0697ZM186.262 79.9574C186.288 79.9725 186.314 79.9883 186.341 80.0033C186.314 79.9883 186.288 79.9725 186.262 79.9574ZM149.14 79.9017C149.198 79.9331 149.256 79.9638 149.314 79.9945C149.256 79.9638 149.198 79.9331 149.14 79.9017ZM148.794 79.7083C148.867 79.7506 148.941 79.7924 149.015 79.8333C148.941 79.7924 148.867 79.7506 148.794 79.7083ZM185.771 79.6615C185.786 79.671 185.8 79.6813 185.815 79.6908C185.8 79.6813 185.786 79.671 185.771 79.6615ZM148.531 79.5531C148.597 79.5926 148.662 79.6317 148.729 79.6703C148.662 79.6317 148.597 79.5926 148.531 79.5531ZM148.258 79.3841C148.292 79.406 148.327 79.428 148.361 79.4496C148.327 79.428 148.292 79.406 148.258 79.3841ZM185.263 79.3216C185.284 79.3366 185.305 79.3517 185.326 79.3665C185.305 79.3517 185.284 79.3366 185.263 79.3216ZM147.893 79.1449C147.957 79.1883 148.021 79.2313 148.086 79.2738C148.021 79.2313 147.957 79.1883 147.893 79.1449ZM147.658 78.9818C147.712 79.0196 147.765 79.0579 147.819 79.0951C147.765 79.0579 147.712 79.0196 147.658 78.9818ZM200.731 78.3236C200.482 78.5732 200.233 78.805 199.986 79.0238C200.233 78.8052 200.482 78.5731 200.731 78.3236ZM184.802 78.9808C184.814 78.9904 184.827 78.9996 184.839 79.0091C184.827 78.9996 184.814 78.9904 184.802 78.9808ZM147.396 78.7923C147.43 78.8176 147.464 78.8435 147.498 78.8685C147.464 78.8435 147.43 78.8176 147.396 78.7923ZM147.126 78.5892C147.157 78.6132 147.188 78.6377 147.219 78.6615C147.188 78.6377 147.157 78.6132 147.126 78.5892ZM146.528 78.0999C146.579 78.1433 146.629 78.1871 146.68 78.2298C146.629 78.1871 146.579 78.1433 146.528 78.0999ZM146.228 77.8343C146.287 77.8888 146.347 77.943 146.408 77.9964C146.347 77.943 146.287 77.8888 146.228 77.8343ZM145.663 77.2943C145.822 77.4547 145.985 77.611 146.15 77.764C145.985 77.611 145.822 77.4547 145.663 77.2943ZM164.421 73.0648C163.299 74.517 161.804 75.6353 160.106 76.3197C159.952 76.3819 159.796 76.4405 159.639 76.4955C158.536 76.8802 157.359 77.0853 156.149 77.0853L155.885 77.0794C155.973 77.0817 156.061 77.0863 156.149 77.0863C159.605 77.0862 162.804 75.4097 164.718 72.6605L164.421 73.0648ZM144.929 76.4955C145.081 76.6739 145.238 76.849 145.398 77.0199C145.238 76.849 145.081 76.6739 144.929 76.4955ZM192.436 77.0033L192.875 77.014L192.435 77.0023C192.305 76.996 192.177 76.9866 192.05 76.9749C192.177 76.9866 192.306 76.997 192.436 77.0033ZM182.356 76.4359C182.368 76.4526 182.381 76.4691 182.393 76.4857C182.381 76.4691 182.368 76.4526 182.356 76.4359ZM144.691 76.2122C144.721 76.2485 144.751 76.2837 144.781 76.3197C144.751 76.2837 144.721 76.2485 144.691 76.2122ZM182.025 75.9476C182.038 75.9666 182.05 75.9853 182.062 76.0042C182.05 75.9853 182.038 75.9666 182.025 75.9476ZM144.255 75.6478C144.275 75.6746 144.295 75.7012 144.314 75.7279C144.295 75.7012 144.275 75.6746 144.255 75.6478ZM156.149 57.5843C151.344 57.5843 147.414 61.4583 147.414 66.6107C147.414 71.6836 151.337 75.5658 156.149 75.5658C160.894 75.5656 165.031 71.8989 165.031 66.6839C165.031 61.23 160.872 57.5844 156.149 57.5843ZM181.709 75.4281C181.717 75.4423 181.725 75.4568 181.733 75.471C181.725 75.4568 181.717 75.4423 181.709 75.4281ZM144.068 75.389C144.085 75.4123 144.102 75.4352 144.118 75.4583C144.102 75.4352 144.085 75.4123 144.068 75.389ZM143.863 75.0902C143.878 75.1124 143.893 75.1345 143.908 75.1566C143.893 75.1345 143.878 75.1124 143.863 75.0902ZM181.434 74.9232C181.438 74.9326 181.443 74.9421 181.448 74.9515C181.443 74.9421 181.438 74.9326 181.434 74.9232ZM143.674 74.8011C143.696 74.8355 143.718 74.8695 143.74 74.9037C143.718 74.8695 143.696 74.8355 143.674 74.8011ZM143.466 74.4652C143.499 74.521 143.534 74.5759 143.568 74.6312C143.534 74.5759 143.499 74.521 143.466 74.4652ZM181.156 74.3519C181.166 74.3727 181.175 74.3936 181.185 74.4144C181.175 74.3936 181.166 74.3727 181.156 74.3519ZM143.272 74.1312C143.316 74.2082 143.36 74.2846 143.405 74.3607C143.36 74.2846 143.316 74.2082 143.272 74.1312ZM143.103 73.8226C143.145 73.9019 143.189 73.9805 143.232 74.0589C143.189 73.9805 143.145 73.9019 143.103 73.8226ZM142.954 73.5394C142.989 73.6085 143.025 73.677 143.062 73.7455C143.025 73.677 142.989 73.6085 142.954 73.5394ZM142.787 73.1996C142.817 73.2627 142.848 73.3254 142.879 73.388C142.848 73.3254 142.817 73.2627 142.787 73.1996ZM180.708 73.2191C180.715 73.2405 180.722 73.2622 180.729 73.2835C180.722 73.2622 180.715 73.2405 180.708 73.2191ZM142.641 72.8831C142.67 72.9479 142.7 73.0122 142.729 73.0765C142.7 73.0122 142.67 72.9479 142.641 72.8831ZM142.503 72.5658C142.529 72.6271 142.554 72.6885 142.581 72.7494C142.554 72.6885 142.529 72.6271 142.503 72.5658ZM180.527 72.6507C180.532 72.668 180.538 72.6852 180.543 72.7025C180.538 72.6852 180.532 72.668 180.527 72.6507ZM142.334 72.1478C142.367 72.2335 142.401 72.3188 142.436 72.4037C142.401 72.3188 142.367 72.2335 142.334 72.1478ZM166.426 68.3529C166.316 69.0711 166.137 69.7572 165.896 70.4066C165.715 70.8939 165.499 71.3603 165.252 71.804H165.253C165.829 70.769 166.234 69.6099 166.426 68.3529ZM142.087 71.4613C142.121 71.5654 142.158 71.6688 142.194 71.7718C142.158 71.6688 142.121 71.5654 142.087 71.4613ZM200.581 70.7513C200.563 70.8363 200.541 70.9201 200.521 71.0042C200.541 70.9201 200.563 70.8363 200.581 70.7513ZM141.701 70.0863C141.75 70.2961 141.803 70.504 141.859 70.7103C141.803 70.504 141.749 70.2961 141.701 70.0863ZM200.672 70.2005C200.678 70.154 200.685 70.1076 200.69 70.0609L200.691 70.0492C200.686 70.0998 200.678 70.1501 200.672 70.2005ZM141.614 69.6839C141.633 69.7764 141.653 69.8685 141.673 69.9603C141.653 69.8685 141.633 69.7764 141.614 69.6839ZM141.539 69.2855C141.558 69.3924 141.578 69.4988 141.599 69.6048C141.578 69.4988 141.558 69.3924 141.539 69.2855ZM179.999 51.4808H184.582V68.8665C184.582 69.0071 184.586 69.1467 184.593 69.2855L184.583 68.8665V51.4798H179.999V51.4808ZM141.437 68.6078C141.352 67.9551 141.31 67.2889 141.31 66.6117C141.31 65.5569 141.412 64.529 141.609 63.5384V63.5374C141.412 64.5281 141.309 65.5558 141.309 66.6107C141.309 67.2883 141.352 67.9548 141.437 68.6078ZM145.94 67.6429C145.948 67.7257 145.959 67.8078 145.969 67.89C145.959 67.8078 145.948 67.7257 145.94 67.6429ZM145.893 66.6117C145.893 66.8656 145.904 67.1168 145.921 67.3656C145.916 67.297 145.91 67.2285 145.906 67.1595L145.893 66.6107V66.6117ZM166.551 66.6839H166.552H166.551ZM141.775 62.8031C141.867 62.4384 141.969 62.079 142.086 61.7259C141.931 62.1963 141.798 62.6776 141.688 63.1683L141.775 62.8031ZM147.128 61.5218H147.129H147.128ZM147.927 60.2406H147.928H147.927ZM112.349 59.93C112.362 59.9281 112.375 59.9271 112.388 59.9251C112.375 59.9271 112.362 59.9281 112.349 59.93ZM113.529 59.7025C113.542 59.6993 113.555 59.6959 113.568 59.6927C113.555 59.6959 113.542 59.6993 113.529 59.7025ZM143.27 59.0433C143.151 59.2546 143.037 59.4692 142.928 59.6869L143.096 59.3626C143.21 59.1481 143.328 58.9368 143.452 58.7289L143.27 59.0433ZM114.102 59.5501C114.118 59.5455 114.133 59.5402 114.149 59.5355C114.133 59.5402 114.118 59.5455 114.102 59.5501ZM152.152 56.8724C150.925 57.3952 149.821 58.1554 148.894 59.1009C149.241 58.7463 149.614 58.418 150.009 58.1185C150.14 58.0187 150.274 57.9217 150.41 57.8285C150.683 57.6418 150.965 57.4684 151.256 57.3089C151.547 57.1493 151.846 57.0042 152.153 56.8734L152.152 56.8724ZM114.665 59.3714C114.685 59.3646 114.705 59.3569 114.725 59.3499C114.705 59.3569 114.685 59.3646 114.665 59.3714ZM116.272 58.6937C116.289 58.6854 116.306 58.6777 116.322 58.6693C116.306 58.6777 116.289 58.6854 116.272 58.6937ZM116.726 58.4535C116.811 58.4063 116.895 58.358 116.979 58.3089C116.895 58.358 116.811 58.4062 116.726 58.4535ZM117.237 58.1556C117.346 58.089 117.452 58.0202 117.559 57.9505C117.452 58.0202 117.346 58.089 117.237 58.1556ZM117.736 57.8324C117.835 57.7652 117.932 57.6961 118.029 57.6263C117.932 57.6961 117.835 57.7652 117.736 57.8324ZM118.239 57.474C118.325 57.4091 118.41 57.3417 118.494 57.2747C118.41 57.3417 118.325 57.4091 118.239 57.474ZM118.709 57.1029C118.832 57.0012 118.953 56.8974 119.072 56.7914C118.953 56.8974 118.832 57.0012 118.709 57.1029ZM144.92 56.6761V56.6751V56.6761ZM119.999 55.8802C119.729 56.1734 119.447 56.4547 119.151 56.722C119.447 56.4547 119.729 56.1734 119.999 55.8802ZM166.551 56.5716L166.552 56.5726V51.4808L166.551 51.4798V56.5716ZM154.079 56.2718V56.2728V56.2718ZM157.399 56.139C157.325 56.1302 157.251 56.1199 157.177 56.1126L157.161 56.1117C157.241 56.1193 157.32 56.1296 157.399 56.139ZM166.163 56.0775C166.147 56.0578 166.131 56.0375 166.115 56.0179C166.131 56.0375 166.147 56.0578 166.163 56.0775ZM166.046 55.9359C165.99 55.8702 165.935 55.805 165.878 55.7406C165.935 55.805 165.99 55.8702 166.046 55.9359ZM145.901 55.6292C146.073 55.4628 146.248 55.2999 146.428 55.1419C146.248 55.2999 146.073 55.4628 145.901 55.6292ZM120.223 55.6283C120.282 55.5607 120.342 55.494 120.399 55.4251C120.342 55.494 120.282 55.5607 120.223 55.6283ZM111.191 55.4496C110.965 55.4681 110.736 55.4808 110.505 55.4808H101.558V38.9691H110.505C111.651 38.9691 112.742 39.201 113.734 39.6205C113.858 39.6729 113.981 39.7283 114.102 39.7865C115.068 40.2521 115.931 40.8996 116.645 41.6849C115.128 40.0159 112.94 38.9682 110.505 38.9681H101.557V55.4818H110.505C110.736 55.4818 110.965 55.4681 111.191 55.4496ZM165.494 55.3226C165.466 55.2935 165.438 55.2645 165.41 55.2357C165.438 55.2645 165.466 55.2935 165.494 55.3226ZM120.552 55.2347C120.624 55.1447 120.697 55.0552 120.768 54.9632C120.697 55.0552 120.624 55.1447 120.552 55.2347ZM165.265 55.0902C165.237 55.0626 165.21 55.0344 165.182 55.0072C165.21 55.0344 165.237 55.0626 165.265 55.0902ZM165.037 54.8695C164.981 54.8169 164.925 54.7648 164.868 54.7132C164.925 54.7648 164.981 54.8169 165.037 54.8695ZM120.965 54.6956C121.017 54.623 121.07 54.5506 121.121 54.4769C121.07 54.5506 121.017 54.623 120.965 54.6956ZM164.804 54.6556C164.749 54.6067 164.694 54.558 164.639 54.5101C164.694 54.558 164.749 54.6067 164.804 54.6556ZM147.548 54.2494V54.2484V54.2494ZM164.497 54.39C164.469 54.3661 164.44 54.3423 164.411 54.3187C164.44 54.3423 164.469 54.3661 164.497 54.39ZM121.288 54.2269C121.342 54.1457 121.395 54.0643 121.446 53.9818C121.395 54.0643 121.342 54.1457 121.288 54.2269ZM164.231 54.1732C164.194 54.1437 164.157 54.1144 164.119 54.0853C164.157 54.1144 164.194 54.1437 164.231 54.1732ZM103.078 53.9603H110.505C114.256 53.9601 117.275 50.9219 117.275 47.2611C117.275 43.5188 114.247 40.4898 110.505 40.4896H103.078V53.9603ZM163.942 53.9515C163.893 53.9149 163.844 53.879 163.794 53.8431C163.844 53.879 163.893 53.9149 163.942 53.9515ZM163.695 53.7718C163.649 53.7392 163.602 53.7072 163.556 53.6751C163.602 53.7072 163.649 53.7392 163.695 53.7718ZM121.687 53.5843C121.699 53.562 121.712 53.5394 121.725 53.5169C121.712 53.5394 121.699 53.562 121.687 53.5843ZM149.064 53.2894V53.2904V53.2894ZM162.176 52.8568C162.068 52.8025 161.96 52.7499 161.851 52.6986C161.96 52.7499 162.068 52.8025 162.176 52.8568ZM161.76 52.6576C161.681 52.6214 161.602 52.5857 161.522 52.5511C161.602 52.5857 161.681 52.6214 161.76 52.6576ZM161.349 52.4779C161.306 52.4603 161.264 52.4423 161.222 52.4251C161.264 52.4423 161.306 52.4603 161.349 52.4779ZM161.017 52.3451C160.964 52.3249 160.911 52.305 160.857 52.2855C160.911 52.305 160.964 52.3249 161.017 52.3451ZM160.716 52.2347C160.65 52.2115 160.584 52.1886 160.518 52.1664C160.584 52.1886 160.65 52.2115 160.716 52.2347ZM160.345 52.1097C160.287 52.0912 160.228 52.0727 160.17 52.055C160.228 52.0727 160.287 52.0912 160.345 52.1097ZM160.009 52.0081C159.939 51.9879 159.868 51.9687 159.797 51.9496C159.868 51.9687 159.939 51.9879 160.009 52.0081ZM159.656 51.9124C159.584 51.8937 159.511 51.8753 159.438 51.8578C159.511 51.8753 159.584 51.8937 159.656 51.9124ZM159.292 51.8236C159.214 51.8059 159.136 51.7891 159.058 51.7728C159.136 51.7891 159.214 51.8059 159.292 51.8236ZM158.912 51.7435C158.858 51.7328 158.803 51.7223 158.748 51.7122C158.803 51.7223 158.858 51.7328 158.912 51.7435ZM158.51 51.6703C158.451 51.6606 158.392 51.6519 158.333 51.6429C158.392 51.6519 158.451 51.6606 158.51 51.6703ZM156.149 51.4798C155.764 51.4798 155.382 51.4949 155.004 51.5238C154.752 51.543 154.502 51.5692 154.254 51.6009C154.874 51.5216 155.507 51.4808 156.149 51.4808V51.4798ZM158.173 51.6185C158.1 51.6084 158.027 51.5992 157.954 51.5902C158.027 51.5992 158.1 51.6084 158.173 51.6185ZM200.731 51.4808L205.314 51.4798H200.731V51.4808ZM122.656 51.4798C122.665 51.4538 122.675 51.4278 122.684 51.4017C122.675 51.4278 122.665 51.4538 122.656 51.4798ZM122.84 50.9212C122.851 50.8846 122.861 50.8477 122.872 50.8109C122.861 50.8477 122.851 50.8846 122.84 50.9212ZM122.999 50.3412C123.006 50.3141 123.013 50.2872 123.02 50.2601C123.013 50.2872 123.006 50.3141 122.999 50.3412ZM123.128 49.7718C123.136 49.7341 123.143 49.6964 123.15 49.6585C123.143 49.6964 123.136 49.7341 123.128 49.7718ZM123.235 49.1664C123.24 49.1345 123.245 49.1026 123.25 49.0706C123.245 49.1026 123.24 49.1345 123.235 49.1664ZM118.786 47.681C118.761 48.1755 118.689 48.6587 118.578 49.1273C118.72 48.5268 118.798 47.9023 118.798 47.2611L118.786 47.681ZM123.365 47.846C123.364 47.8773 123.364 47.9086 123.362 47.9398C123.363 47.9326 123.364 47.9255 123.364 47.9183L123.365 47.846ZM123.181 44.9994C123.311 45.7334 123.381 46.4891 123.381 47.2611C123.381 46.489 123.311 45.7334 123.181 44.9994ZM118.755 46.4124V46.4134V46.4124ZM117.106 42.2415C117.363 42.5779 117.594 42.934 117.797 43.308C117.988 43.6606 118.155 44.0283 118.295 44.4095V44.4085C118.008 43.6234 117.604 42.8948 117.106 42.2415ZM123.04 44.3187C123.021 44.2383 123.002 44.1582 122.981 44.0785C123.002 44.1582 123.021 44.2383 123.04 44.3187ZM122.859 43.6361C122.843 43.5796 122.826 43.5233 122.809 43.4671C122.826 43.5233 122.843 43.5796 122.859 43.6361ZM122.661 43.0208C122.648 42.9823 122.634 42.9439 122.62 42.9056C122.634 42.9439 122.648 42.9823 122.661 43.0208ZM122.436 42.4242C122.426 42.4004 122.416 42.3766 122.406 42.3529C122.416 42.3766 122.426 42.4004 122.436 42.4242ZM122.199 41.8802C122.183 41.8453 122.167 41.8105 122.15 41.7757C122.167 41.8105 122.183 41.8453 122.199 41.8802ZM121.925 41.3236C121.911 41.2971 121.897 41.2708 121.883 41.2445C121.897 41.2708 121.911 41.2971 121.925 41.3236ZM121.63 40.7894C121.615 40.7646 121.601 40.7399 121.586 40.7152C121.601 40.7399 121.615 40.7646 121.63 40.7894ZM121.411 40.433C121.35 40.3356 121.288 40.2385 121.225 40.1429C121.288 40.2385 121.35 40.3356 121.411 40.433ZM121.062 39.9085C121.002 39.8217 120.941 39.735 120.878 39.6497C120.941 39.735 121.002 39.8217 121.062 39.9085ZM120.711 39.4281C120.641 39.3372 120.569 39.2475 120.497 39.1585C120.569 39.2475 120.641 39.3372 120.711 39.4281ZM120.318 38.9437C120.25 38.8637 120.181 38.7847 120.111 38.7064C120.181 38.7847 120.25 38.8637 120.318 38.9437ZM119.908 38.4837C119.84 38.4106 119.77 38.3385 119.7 38.2669C119.77 38.3385 119.84 38.4106 119.908 38.4837ZM119.476 38.0423C119.409 37.9771 119.341 37.9127 119.272 37.849C119.341 37.9127 119.409 37.9771 119.476 38.0423ZM119.016 37.6156C118.953 37.5607 118.89 37.5071 118.827 37.4535C118.89 37.5071 118.953 37.5607 119.016 37.6156ZM118.565 37.2357C118.49 37.175 118.414 37.1159 118.337 37.057C118.414 37.116 118.49 37.175 118.565 37.2357ZM118.079 36.8626C118.005 36.8085 117.93 36.756 117.854 36.7035C117.93 36.756 118.005 36.8085 118.079 36.8626ZM117.58 36.516C117.498 36.4617 117.415 36.4092 117.331 36.3568C117.415 36.4092 117.498 36.4617 117.58 36.516ZM117.076 36.1986C116.982 36.1425 116.887 36.0892 116.791 36.0355C116.887 36.0892 116.982 36.1425 117.076 36.1986ZM116.482 35.8646C116.47 35.8582 116.458 35.8514 116.446 35.8451C116.458 35.8514 116.47 35.8582 116.482 35.8646ZM115.946 35.597C115.93 35.5894 115.914 35.5821 115.897 35.5746C115.914 35.5821 115.93 35.5894 115.946 35.597ZM115.399 35.3568C115.375 35.3467 115.351 35.3365 115.326 35.3265C115.351 35.3365 115.375 35.3467 115.399 35.3568ZM114.227 34.9359C114.219 34.9335 114.211 34.9314 114.203 34.929C114.211 34.9314 114.219 34.9335 114.227 34.9359ZM112.741 34.5814C112.7 34.5741 112.659 34.5678 112.617 34.5609C112.659 34.5678 112.7 34.5741 112.741 34.5814ZM112.416 34.5277C112.409 34.5266 112.401 34.5259 112.394 34.5247C112.401 34.5259 112.409 34.5266 112.416 34.5277ZM111.488 34.4232C111.462 34.4212 111.436 34.4192 111.409 34.4173C111.436 34.4192 111.462 34.4212 111.488 34.4232ZM200.983 93.9554C200.953 93.9864 200.922 94.0175 200.892 94.0482C200.922 94.0175 200.953 93.9864 200.983 93.9554ZM202.357 92.3548C202.412 92.2812 202.466 92.2069 202.52 92.1322C202.466 92.2069 202.412 92.2812 202.357 92.3548ZM202.568 92.0619C202.62 91.989 202.671 91.916 202.722 91.8421C202.671 91.916 202.62 91.989 202.568 92.0619ZM204.521 88.2376C204.557 88.1331 204.591 88.0278 204.624 87.9222C204.591 88.0278 204.557 88.1331 204.521 88.2376ZM204.937 86.7757C204.955 86.6937 204.973 86.6112 204.99 86.5287C204.973 86.6112 204.955 86.6937 204.937 86.7757ZM144.48 75.9456C144.538 76.0194 144.596 76.0927 144.654 76.1654C144.596 76.0927 144.538 76.0194 144.48 75.9456ZM142.218 71.8382C142.255 71.942 142.294 72.0451 142.334 72.1478C142.294 72.0451 142.255 71.942 142.218 71.8382ZM141.886 70.804C141.913 70.9021 141.942 70.9998 141.972 71.097C141.942 70.9998 141.913 70.9021 141.886 70.804ZM141.984 71.138C142.017 71.243 142.05 71.3476 142.084 71.4515C142.05 71.3476 142.017 71.243 141.984 71.138ZM141.492 68.9974C141.505 69.0816 141.519 69.1656 141.533 69.2494C141.519 69.1656 141.505 69.0816 141.492 68.9974ZM162.199 52.8695C162.191 52.8654 162.184 52.8608 162.176 52.8568C162.184 52.8608 162.191 52.8654 162.199 52.8695ZM123.143 44.7943C123.135 44.7532 123.127 44.7122 123.118 44.6712C123.127 44.7122 123.135 44.7532 123.143 44.7943ZM123.112 44.6429C123.093 44.5488 123.072 44.455 123.051 44.3617C123.072 44.455 123.093 44.5488 123.112 44.6429Z" fill="#F2EDE1"/>
</svg>
