<svg width="154" height="64" viewBox="0 0 154 64" fill="none" xmlns="http://www.w3.org/2000/svg">
<ellipse cx="76.6124" cy="31.7859" rx="76.6124" ry="31.7859" fill="#FF1935"/>
<mask id="path-2-outside-1_10_363" maskUnits="userSpaceOnUse" x="47.2983" y="16.2894" width="58" height="35" fill="black">
<rect fill="white" x="47.2983" y="16.2894" width="58" height="35"/>
<path d="M51.344 41.2894H49.027V17.3841H55.8676C59.435 17.3841 62.3772 20.2895 62.3772 23.8937C62.3772 27.4611 59.435 30.3665 55.8676 30.3665H51.344V41.2894ZM51.344 19.7011V28.0495H55.8676C58.1846 28.0495 60.0603 26.1739 60.0603 23.8937C60.0603 21.5767 58.1846 19.7011 55.8676 19.7011H51.344ZM67.8959 41.2894H65.5789V17.3841H67.8959V41.2894ZM78.944 41.2894C74.7882 41.2894 71.4414 37.9059 71.4414 33.6765C71.4414 29.4103 74.7882 26.0268 78.944 26.0268C81.2242 26.0268 83.0263 27.0198 84.2032 28.6012V26.0268H86.5202V41.2894H84.2032V38.715C83.0263 40.2964 81.2242 41.2894 78.944 41.2894ZM78.944 38.9724C81.7391 38.9724 84.2032 36.8026 84.2032 33.7133C84.2032 30.5136 81.7391 28.3438 78.944 28.3438C76.0754 28.3438 73.7584 30.6607 73.7584 33.6765C73.7584 36.6554 76.0754 38.9724 78.944 38.9724ZM96.2978 49.7482C92.8039 49.7482 89.7514 47.2106 89.0158 43.7535H91.4432C92.1051 45.9234 94.0543 47.4312 96.2978 47.4312C99.0561 47.4312 101.483 45.1142 101.483 42.1353V39.5976C100.27 40.8113 99.1664 41.2894 97.5114 41.2894C93.8337 41.2894 91.0018 38.5311 91.0018 34.8166V26.0268H93.3188V34.8166C93.3188 37.0968 95.1209 38.9356 97.5114 38.9356C99.6813 38.9356 101.483 37.0968 101.483 35.0372V26.0268H103.8V42.1721C103.8 46.4015 100.343 49.7482 96.2978 49.7482Z"/>
</mask>
<path d="M51.344 41.2894H49.027V17.3841H55.8676C59.435 17.3841 62.3772 20.2895 62.3772 23.8937C62.3772 27.4611 59.435 30.3665 55.8676 30.3665H51.344V41.2894ZM51.344 19.7011V28.0495H55.8676C58.1846 28.0495 60.0603 26.1739 60.0603 23.8937C60.0603 21.5767 58.1846 19.7011 55.8676 19.7011H51.344ZM67.8959 41.2894H65.5789V17.3841H67.8959V41.2894ZM78.944 41.2894C74.7882 41.2894 71.4414 37.9059 71.4414 33.6765C71.4414 29.4103 74.7882 26.0268 78.944 26.0268C81.2242 26.0268 83.0263 27.0198 84.2032 28.6012V26.0268H86.5202V41.2894H84.2032V38.715C83.0263 40.2964 81.2242 41.2894 78.944 41.2894ZM78.944 38.9724C81.7391 38.9724 84.2032 36.8026 84.2032 33.7133C84.2032 30.5136 81.7391 28.3438 78.944 28.3438C76.0754 28.3438 73.7584 30.6607 73.7584 33.6765C73.7584 36.6554 76.0754 38.9724 78.944 38.9724ZM96.2978 49.7482C92.8039 49.7482 89.7514 47.2106 89.0158 43.7535H91.4432C92.1051 45.9234 94.0543 47.4312 96.2978 47.4312C99.0561 47.4312 101.483 45.1142 101.483 42.1353V39.5976C100.27 40.8113 99.1664 41.2894 97.5114 41.2894C93.8337 41.2894 91.0018 38.5311 91.0018 34.8166V26.0268H93.3188V34.8166C93.3188 37.0968 95.1209 38.9356 97.5114 38.9356C99.6813 38.9356 101.483 37.0968 101.483 35.0372V26.0268H103.8V42.1721C103.8 46.4015 100.343 49.7482 96.2978 49.7482Z" fill="#F2EDE1"/>
<path d="M51.344 41.2894V42.0586H52.1133V41.2894H51.344ZM49.027 41.2894H48.2578V42.0586H49.027V41.2894ZM49.027 17.3841V16.6148H48.2578V17.3841H49.027ZM51.344 30.3665V29.5973H50.5748V30.3665H51.344ZM51.344 19.7011V18.9318H50.5748V19.7011H51.344ZM51.344 28.0495H50.5748V28.8188H51.344V28.0495ZM51.344 41.2894V40.5201H49.027V41.2894V42.0586H51.344V41.2894ZM49.027 41.2894H49.7963V17.3841H49.027H48.2578V41.2894H49.027ZM49.027 17.3841V18.1533H55.8676V17.3841V16.6148H49.027V17.3841ZM55.8676 17.3841V18.1533C59.013 18.1533 61.608 20.7172 61.608 23.8937H62.3772H63.1465C63.1465 19.8618 59.8571 16.6148 55.8676 16.6148V17.3841ZM62.3772 23.8937H61.608C61.608 27.0306 59.0159 29.5973 55.8676 29.5973V30.3665V31.1358C59.8542 31.1358 63.1465 27.8916 63.1465 23.8937H62.3772ZM55.8676 30.3665V29.5973H51.344V30.3665V31.1358H55.8676V30.3665ZM51.344 30.3665H50.5748V41.2894H51.344H52.1133V30.3665H51.344ZM51.344 19.7011H50.5748V28.0495H51.344H52.1133V19.7011H51.344ZM51.344 28.0495V28.8188H55.8676V28.0495V27.2803H51.344V28.0495ZM55.8676 28.0495V28.8188C58.605 28.8188 60.8295 26.6031 60.8295 23.8937H60.0603H59.291C59.291 25.7446 57.7642 27.2803 55.8676 27.2803V28.0495ZM60.0603 23.8937H60.8295C60.8295 21.1519 58.6095 18.9318 55.8676 18.9318V19.7011V20.4703C57.7598 20.4703 59.291 22.0016 59.291 23.8937H60.0603ZM55.8676 19.7011V18.9318H51.344V19.7011V20.4703H55.8676V19.7011ZM67.8959 41.2894V42.0586H68.6651V41.2894H67.8959ZM65.5789 41.2894H64.8096V42.0586H65.5789V41.2894ZM65.5789 17.3841V16.6148H64.8096V17.3841H65.5789ZM67.8959 17.3841H68.6651V16.6148H67.8959V17.3841ZM67.8959 41.2894V40.5201H65.5789V41.2894V42.0586H67.8959V41.2894ZM65.5789 41.2894H66.3481V17.3841H65.5789H64.8096V41.2894H65.5789ZM65.5789 17.3841V18.1533H67.8959V17.3841V16.6148H65.5789V17.3841ZM67.8959 17.3841H67.1266V41.2894H67.8959H68.6651V17.3841H67.8959ZM84.2032 28.6012L83.5861 29.0604L84.9724 30.9234V28.6012H84.2032ZM84.2032 26.0268V25.2575H83.4339V26.0268H84.2032ZM86.5202 26.0268H87.2894V25.2575H86.5202V26.0268ZM86.5202 41.2894V42.0586H87.2894V41.2894H86.5202ZM84.2032 41.2894H83.4339V42.0586H84.2032V41.2894ZM84.2032 38.715H84.9724V36.3928L83.5861 38.2557L84.2032 38.715ZM78.944 41.2894V40.5201C75.2227 40.5201 72.2107 37.4908 72.2107 33.6765H71.4414H70.6722C70.6722 38.3209 74.3536 42.0586 78.944 42.0586V41.2894ZM71.4414 33.6765H72.2107C72.2107 29.8229 75.2252 26.796 78.944 26.796V26.0268V25.2575C74.3512 25.2575 70.6722 28.9977 70.6722 33.6765H71.4414ZM78.944 26.0268V26.796C80.9784 26.796 82.5528 27.672 83.5861 29.0604L84.2032 28.6012L84.8203 28.1419C83.4998 26.3676 81.47 25.2575 78.944 25.2575V26.0268ZM84.2032 28.6012H84.9724V26.0268H84.2032H83.4339V28.6012H84.2032ZM84.2032 26.0268V26.796H86.5202V26.0268V25.2575H84.2032V26.0268ZM86.5202 26.0268H85.7509V41.2894H86.5202H87.2894V26.0268H86.5202ZM86.5202 41.2894V40.5201H84.2032V41.2894V42.0586H86.5202V41.2894ZM84.2032 41.2894H84.9724V38.715H84.2032H83.4339V41.2894H84.2032ZM84.2032 38.715L83.5861 38.2557C82.5528 39.6442 80.9784 40.5201 78.944 40.5201V41.2894V42.0586C81.47 42.0586 83.4998 40.9486 84.8203 39.1742L84.2032 38.715ZM78.944 38.9724V39.7417C82.1355 39.7417 84.9724 37.2553 84.9724 33.7133H84.2032H83.4339C83.4339 36.3498 81.3427 38.2032 78.944 38.2032V38.9724ZM84.2032 33.7133H84.9724C84.9724 30.0714 82.1464 27.5745 78.944 27.5745V28.3438V29.113C81.3318 29.113 83.4339 30.9558 83.4339 33.7133H84.2032ZM78.944 28.3438V27.5745C75.6365 27.5745 72.9891 30.25 72.9891 33.6765H73.7584H74.5277C74.5277 31.0714 76.5142 29.113 78.944 29.113V28.3438ZM73.7584 33.6765H72.9891C72.9891 37.0697 75.64 39.7417 78.944 39.7417V38.9724V38.2032C76.5108 38.2032 74.5277 36.2412 74.5277 33.6765H73.7584ZM89.0158 43.7535V42.9842H88.0657L88.2634 43.9136L89.0158 43.7535ZM91.4432 43.7535L92.1789 43.529L92.0127 42.9842H91.4432V43.7535ZM101.483 39.5976H102.253V37.7405L100.939 39.0537L101.483 39.5976ZM91.0018 26.0268V25.2575H90.2326V26.0268H91.0018ZM93.3188 26.0268H94.0881V25.2575H93.3188V26.0268ZM101.483 26.0268V25.2575H100.714V26.0268H101.483ZM103.8 26.0268H104.57V25.2575H103.8V26.0268ZM96.2978 49.7482V48.979C93.1797 48.979 90.4309 46.7077 89.7683 43.5934L89.0158 43.7535L88.2634 43.9136C89.0719 47.7134 92.4282 50.5174 96.2978 50.5174V49.7482ZM89.0158 43.7535V44.5227H91.4432V43.7535V42.9842H89.0158V43.7535ZM91.4432 43.7535L90.7074 43.978C91.4629 46.4544 93.6984 48.2005 96.2978 48.2005V47.4312V46.662C94.4103 46.662 92.7474 45.3923 92.1789 43.529L91.4432 43.7535ZM96.2978 47.4312V48.2005C99.4809 48.2005 102.253 45.5391 102.253 42.1353H101.483H100.714C100.714 44.6894 98.6312 46.662 96.2978 46.662V47.4312ZM101.483 42.1353H102.253V39.5976H101.483H100.714V42.1353H101.483ZM101.483 39.5976L100.939 39.0537C100.38 39.6136 99.8796 39.9694 99.3605 40.1913C98.8437 40.4123 98.2619 40.5201 97.5114 40.5201V41.2894V42.0586C98.4159 42.0586 99.2133 41.9275 99.9653 41.606C100.715 41.2854 101.374 40.7954 102.027 40.1416L101.483 39.5976ZM97.5114 41.2894V40.5201C94.2499 40.5201 91.7711 38.0977 91.7711 34.8166H91.0018H90.2326C90.2326 38.9645 93.4175 42.0586 97.5114 42.0586V41.2894ZM91.0018 34.8166H91.7711V26.0268H91.0018H90.2326V34.8166H91.0018ZM91.0018 26.0268V26.796H93.3188V26.0268V25.2575H91.0018V26.0268ZM93.3188 26.0268H92.5495V34.8166H93.3188H94.0881V26.0268H93.3188ZM93.3188 34.8166H92.5495C92.5495 37.5261 94.7005 39.7049 97.5114 39.7049V38.9356V38.1664C95.5413 38.1664 94.0881 36.6675 94.0881 34.8166H93.3188ZM97.5114 38.9356V39.7049C100.101 39.7049 102.253 37.5262 102.253 35.0372H101.483H100.714C100.714 36.6673 99.2611 38.1664 97.5114 38.1664V38.9356ZM101.483 35.0372H102.253V26.0268H101.483H100.714V35.0372H101.483ZM101.483 26.0268V26.796H103.8V26.0268V25.2575H101.483V26.0268ZM103.8 26.0268H103.031V42.1721H103.8H104.57V26.0268H103.8ZM103.8 42.1721H103.031C103.031 45.9742 99.9209 48.979 96.2978 48.979V49.7482V50.5174C100.766 50.5174 104.57 46.8287 104.57 42.1721H103.8Z" fill="#F2EDE1" mask="url(#path-2-outside-1_10_363)"/>
</svg>
