<svg width="154" height="64" viewBox="0 0 154 64" fill="none" xmlns="http://www.w3.org/2000/svg">
<ellipse cx="76.6124" cy="31.7859" rx="76.6124" ry="31.7859" fill="#FCC3C3"/>
<path d="M94.0879 34.8164C94.088 36.6672 95.5416 38.166 97.5117 38.166C99.2611 38.1657 100.715 36.667 100.715 35.0371V25.2568H104.57V42.1719C104.57 46.8283 100.766 50.5173 96.2979 50.5176C92.4284 50.5175 89.0721 47.7128 88.2637 43.9131L88.0664 42.9844H92.0127L92.1797 43.5283C92.7481 45.3916 94.4105 46.662 96.2979 46.6621C98.6311 46.6618 100.715 44.6887 100.715 42.1348V41.21C100.474 41.3614 100.225 41.4944 99.9658 41.6055C99.214 41.9269 98.416 42.0585 97.5117 42.0586C93.4178 42.0586 90.2325 38.9643 90.2324 34.8164V25.2568H94.0879V34.8164ZM97.0283 49.7109C96.7874 49.7351 96.5438 49.748 96.2979 49.748C96.5438 49.748 96.7874 49.7351 97.0283 49.7109ZM95.6514 49.7188C95.678 49.7211 95.7048 49.7215 95.7314 49.7236C95.7048 49.7215 95.678 49.7211 95.6514 49.7188ZM97.2998 49.6768C97.3297 49.6726 97.3598 49.6695 97.3896 49.665C97.3598 49.6695 97.3297 49.6726 97.2998 49.6768ZM95.0342 49.6357C95.0562 49.6397 95.0785 49.6428 95.1006 49.6465C95.0785 49.6428 95.0562 49.6397 95.0342 49.6357ZM97.5586 49.6357C97.6295 49.6233 97.7002 49.6111 97.7705 49.5967C97.7002 49.6111 97.6295 49.6233 97.5586 49.6357ZM94.7188 49.5723C94.7641 49.5825 94.8098 49.5913 94.8555 49.6006C94.8098 49.5913 94.7641 49.5825 94.7188 49.5723ZM97.8994 49.5684C97.9683 49.5529 98.0372 49.5379 98.1055 49.5205C98.0372 49.5379 97.9683 49.5529 97.8994 49.5684ZM94.4131 49.4961C94.4694 49.5114 94.5262 49.5251 94.583 49.5391C94.5262 49.5251 94.4694 49.5114 94.4131 49.4961ZM98.2852 49.4697C98.3461 49.4525 98.4074 49.4367 98.4678 49.418C98.4074 49.4367 98.3461 49.4525 98.2852 49.4697ZM94.1016 49.4043C94.1691 49.4259 94.2374 49.4452 94.3057 49.4648C94.2374 49.4452 94.1691 49.4259 94.1016 49.4043ZM98.5859 49.3789C98.6585 49.3551 98.7311 49.3317 98.8027 49.3057C98.7311 49.3317 98.6585 49.3551 98.5859 49.3789ZM93.8291 49.3115C93.8879 49.3329 93.9474 49.3522 94.0068 49.3721C93.9474 49.3522 93.8879 49.3329 93.8291 49.3115ZM93.5244 49.1924C93.573 49.2125 93.6219 49.2319 93.6709 49.251C93.6219 49.2319 93.573 49.2125 93.5244 49.1924ZM98.958 49.2451C99.017 49.2222 99.0764 49.2002 99.1348 49.1758C99.0764 49.2002 99.017 49.2222 98.958 49.2451ZM93.248 49.0703C93.3008 49.0948 93.3539 49.1184 93.4072 49.1416C93.3539 49.1184 93.3008 49.0948 93.248 49.0703ZM99.2939 49.1055C99.3489 49.081 99.4037 49.0561 99.458 49.0303C99.4037 49.0561 99.3489 49.081 99.2939 49.1055ZM92.9746 48.9375C93.0208 48.9613 93.0675 48.984 93.1143 49.0068C93.0675 48.984 93.0208 48.9613 92.9746 48.9375ZM99.6094 48.9561C99.669 48.9261 99.7284 48.8958 99.7871 48.8643C99.7284 48.8958 99.669 48.9261 99.6094 48.9561ZM92.6895 48.7832C92.7398 48.8119 92.7908 48.8396 92.8418 48.8672C92.7908 48.8396 92.7398 48.8119 92.6895 48.7832ZM99.9346 48.7822C99.9823 48.7552 100.03 48.7282 100.077 48.7002C100.03 48.7282 99.9823 48.7552 99.9346 48.7822ZM92.4453 48.6377C92.486 48.663 92.5272 48.6874 92.5684 48.7119C92.5272 48.6874 92.486 48.663 92.4453 48.6377ZM100.252 48.5918C100.301 48.5607 100.351 48.5303 100.399 48.498C100.351 48.5303 100.301 48.5607 100.252 48.5918ZM92.1904 48.4717C92.2205 48.4921 92.2509 48.5122 92.2812 48.5322C92.2509 48.5122 92.2205 48.4921 92.1904 48.4717ZM100.522 48.4141C100.58 48.3744 100.636 48.3342 100.692 48.293C100.636 48.3342 100.58 48.3744 100.522 48.4141ZM91.9268 48.2842C91.964 48.3118 92.0014 48.3392 92.0391 48.3662C92.0014 48.3392 91.964 48.3118 91.9268 48.2842ZM91.6768 48.0898C91.7182 48.1234 91.7597 48.1568 91.8018 48.1895C91.7597 48.1568 91.7182 48.1234 91.6768 48.0898ZM100.83 48.1885C100.872 48.1559 100.914 48.1233 100.956 48.0898C100.914 48.1233 100.872 48.1559 100.83 48.1885ZM91.4512 47.8994C91.4869 47.9308 91.5232 47.9615 91.5596 47.9922C91.5232 47.9615 91.4869 47.9308 91.4512 47.8994ZM101.11 47.9629C101.153 47.9266 101.195 47.8897 101.237 47.8525C101.195 47.8897 101.153 47.9266 101.11 47.9629ZM91.2178 47.6865C91.2523 47.7194 91.2871 47.7519 91.3223 47.7842C91.2871 47.7519 91.2523 47.7194 91.2178 47.6865ZM101.362 47.7393C101.413 47.6926 101.463 47.6456 101.512 47.5977C101.463 47.6456 101.413 47.6926 101.362 47.7393ZM91.0029 47.4736C91.0374 47.5092 91.0723 47.5443 91.1074 47.5791C91.0723 47.5443 91.0374 47.5092 91.0029 47.4736ZM101.613 47.4951C101.669 47.439 101.724 47.383 101.777 47.3252C101.724 47.383 101.669 47.439 101.613 47.4951ZM95.8809 47.4131C96.0185 47.4247 96.1577 47.4316 96.2979 47.4316C96.3838 47.4316 96.4694 47.4293 96.5547 47.4248V47.4238C96.4694 47.4283 96.3838 47.4307 96.2979 47.4307C96.1578 47.4307 96.0184 47.4246 95.8809 47.4131ZM98.499 46.918C98.2735 47.0278 98.0398 47.1213 97.7998 47.1973C98.1201 47.0959 98.4291 46.9637 98.7227 46.8027L98.499 46.918ZM90.8105 47.2676C90.8275 47.2864 90.8442 47.3055 90.8613 47.3242C90.8442 47.3055 90.8275 47.2864 90.8105 47.2676ZM101.853 47.2412C101.902 47.1867 101.95 47.1312 101.997 47.0752C101.95 47.1312 101.902 47.1867 101.853 47.2412ZM94.5469 47.1104C94.6558 47.1516 94.7659 47.1901 94.8779 47.2236L94.6855 47.1611C94.639 47.1451 94.5929 47.1278 94.5469 47.1104ZM90.5889 47.0098C90.6171 47.0441 90.645 47.0785 90.6738 47.1123C90.645 47.0785 90.6171 47.0441 90.5889 47.0098ZM102.102 46.9502C102.137 46.9063 102.172 46.8621 102.207 46.8174C102.172 46.8621 102.137 46.9063 102.102 46.9502ZM90.3877 46.7539C90.4188 46.7951 90.4496 46.8364 90.4814 46.877C90.4496 46.8364 90.4188 46.7951 90.3877 46.7539ZM102.33 46.6562C102.365 46.609 102.398 46.5608 102.432 46.5127C102.398 46.5608 102.365 46.609 102.33 46.6562ZM90.1973 46.4922C90.2306 46.5405 90.2645 46.5883 90.2988 46.6357C90.2645 46.5883 90.2306 46.5405 90.1973 46.4922ZM93.2773 46.4062V46.4053V46.4062ZM99.5518 46.2393C99.4872 46.2926 99.4214 46.3443 99.3545 46.3945C99.4884 46.2939 99.618 46.1872 99.7422 46.0742L99.5518 46.2393ZM102.521 46.3848C102.557 46.3298 102.592 46.2738 102.628 46.2178C102.593 46.2738 102.557 46.3298 102.521 46.3848ZM90.0225 46.2256C90.0532 46.2743 90.0835 46.3232 90.1152 46.3711C90.0835 46.3232 90.0532 46.2743 90.0225 46.2256ZM89.8799 45.9893C89.902 46.0274 89.9235 46.0658 89.9463 46.1035C89.9235 46.0658 89.902 46.0274 89.8799 45.9893ZM102.727 46.0586C102.751 46.0172 102.776 45.9755 102.8 45.9336C102.776 45.9755 102.751 46.0172 102.727 46.0586ZM102.905 45.7441C102.928 45.7012 102.95 45.6577 102.973 45.6143C102.95 45.6577 102.928 45.7012 102.905 45.7441ZM92.4102 45.5684V45.5674V45.5684ZM103.063 45.4316C103.093 45.3693 103.122 45.3065 103.15 45.2432C103.122 45.3065 103.093 45.3693 103.063 45.4316ZM103.21 45.1055C103.241 45.0319 103.27 44.9576 103.299 44.8828C103.27 44.9576 103.241 45.0319 103.21 45.1055ZM103.34 44.7754C103.379 44.6697 103.415 44.563 103.449 44.4551C103.415 44.563 103.379 44.6697 103.34 44.7754ZM100.953 44.4551H100.954H100.953ZM103.8 42.1719C103.8 42.958 103.679 43.7135 103.459 44.4229C103.642 43.8327 103.758 43.2106 103.791 42.5654C103.798 42.4352 103.801 42.3039 103.801 42.1719V26.0264H103.8V42.1719ZM101.476 42.4121H101.477H101.476ZM55.8682 16.6143C59.8572 16.6146 63.1463 19.8621 63.1465 23.8936C63.1464 27.8911 59.8544 31.1354 55.8682 31.1357H52.1133V42.0586H48.2568V16.6143H55.8682ZM68.665 42.0586H64.8096V16.6143H68.665V42.0586ZM87.29 42.0586H83.4346V40.5859C82.2275 41.5158 80.7072 42.0585 78.9443 42.0586C74.3539 42.0586 70.6729 38.3202 70.6729 33.6758C70.6732 28.9973 74.3517 25.2568 78.9443 25.2568C80.7069 25.2569 82.2276 25.7989 83.4346 26.7285V25.2568H87.29V42.0586ZM51.3438 30.3662V41.2891H51.3447V30.3662H51.3438ZM67.8955 41.2891H67.8965V17.3838H67.8955V41.2891ZM86.5195 26.0264H86.5205H86.5195ZM96.8408 41.2578C96.9529 41.2683 97.0658 41.277 97.1797 41.2822L97.5117 41.2891L97.1689 41.2812C97.0587 41.2761 96.9493 41.268 96.8408 41.2578ZM77.8027 41.2021C78.0423 41.2388 78.2856 41.264 78.5322 41.2773C78.2856 41.264 78.0423 41.2388 77.8027 41.2021ZM96.5029 41.2178C96.5863 41.2297 96.6704 41.2391 96.7549 41.248C96.6704 41.2391 96.5863 41.2297 96.5029 41.2178ZM96.21 41.1689C96.275 41.1811 96.3405 41.1918 96.4062 41.2021C96.3405 41.1918 96.275 41.1811 96.21 41.1689ZM77.4473 41.1387C77.5358 41.1567 77.6252 41.1717 77.7148 41.1865C77.6252 41.1717 77.5358 41.1567 77.4473 41.1387ZM95.8848 41.1006C95.9252 41.1102 95.9661 41.118 96.0068 41.127C95.9661 41.118 95.9252 41.1102 95.8848 41.1006ZM77.0859 41.0557C77.1489 41.0718 77.2127 41.0851 77.2764 41.0996C77.2127 41.0851 77.149 41.0718 77.0859 41.0557ZM95.5771 41.0195C95.624 41.0331 95.6714 41.045 95.7188 41.0576C95.6714 41.045 95.624 41.0331 95.5771 41.0195ZM76.7285 40.9551C76.804 40.9785 76.8806 40.9985 76.957 41.0195C76.8806 40.9985 76.804 40.9785 76.7285 40.9551ZM95.2715 40.9219C95.3171 40.9375 95.3631 40.9521 95.4092 40.9668C95.3631 40.9521 95.3171 40.9375 95.2715 40.9219ZM76.3994 40.8438C76.4456 40.8605 76.4924 40.8757 76.5391 40.8916C76.4924 40.8757 76.4456 40.8605 76.3994 40.8438ZM94.9805 40.8145C95.034 40.8357 95.0883 40.8551 95.1426 40.875C95.0883 40.8551 95.034 40.8357 94.9805 40.8145ZM76.0547 40.708C76.1103 40.7314 76.1664 40.7533 76.2227 40.7754C76.1664 40.7533 76.1103 40.7314 76.0547 40.708ZM94.6787 40.6855C94.7316 40.7098 94.7851 40.733 94.8389 40.7559C94.7851 40.733 94.7316 40.7098 94.6787 40.6855ZM94.4092 40.5537C94.4676 40.5838 94.5264 40.6132 94.5859 40.6416C94.5264 40.6132 94.4676 40.5838 94.4092 40.5537ZM75.7393 40.5674C75.7854 40.5894 75.8323 40.6098 75.8789 40.6309C75.8323 40.6098 75.7854 40.5894 75.7393 40.5674ZM100.93 40.1025C100.708 40.287 100.487 40.4477 100.262 40.5859C100.487 40.4477 100.708 40.287 100.93 40.1025ZM94.1494 40.4131C94.1951 40.4394 94.2417 40.464 94.2881 40.4893C94.2417 40.464 94.1951 40.4394 94.1494 40.4131ZM75.4189 40.4053C75.4583 40.4264 75.4983 40.4463 75.5381 40.4668C75.4983 40.4463 75.4583 40.4264 75.4189 40.4053ZM93.8867 40.2529C93.9286 40.2799 93.9711 40.306 94.0137 40.332C93.9711 40.306 93.9286 40.2799 93.8867 40.2529ZM75.1016 40.2246C75.1466 40.2518 75.1926 40.2775 75.2383 40.3037C75.1926 40.2775 75.1466 40.2518 75.1016 40.2246ZM93.6514 40.0938C93.6791 40.1134 93.7073 40.1322 93.7354 40.1514C93.7073 40.1322 93.6791 40.1134 93.6514 40.0938ZM74.7988 40.0312C74.8424 40.0605 74.8865 40.0889 74.9307 40.1172C74.8865 40.0889 74.8424 40.0605 74.7988 40.0312ZM93.3945 39.9014C93.4297 39.9291 93.4652 39.9564 93.501 39.9834C93.4652 39.9564 93.4297 39.9291 93.3945 39.9014ZM74.5049 39.8242C74.5538 39.8605 74.6035 39.8956 74.6533 39.9307C74.6035 39.8956 74.5538 39.8605 74.5049 39.8242ZM93.1709 39.7168C93.1972 39.7397 93.2242 39.7617 93.251 39.7842C93.2242 39.7617 93.1972 39.7397 93.1709 39.7168ZM74.2148 39.5977C74.2646 39.6385 74.3154 39.6782 74.3662 39.7178C74.3154 39.6782 74.2646 39.6386 74.2148 39.5977ZM92.9473 39.5127C92.9747 39.539 93.0023 39.565 93.0303 39.5908C93.0023 39.565 92.9747 39.539 92.9473 39.5127ZM73.9395 39.3594C73.9943 39.4091 74.0501 39.4578 74.1064 39.5059C74.0501 39.4578 73.9943 39.4091 73.9395 39.3594ZM92.7168 39.2793C92.7494 39.3141 92.782 39.3488 92.8154 39.3828C92.782 39.3488 92.7494 39.3141 92.7168 39.2793ZM73.7061 39.1387C73.7465 39.1786 73.7877 39.2178 73.8291 39.2568C73.7877 39.2178 73.7465 39.1786 73.7061 39.1387ZM92.5186 39.0576C92.551 39.0957 92.5838 39.1336 92.6172 39.1709C92.5838 39.1336 92.551 39.0957 92.5186 39.0576ZM73.4443 38.8672C73.4817 38.9079 73.5194 38.9484 73.5576 38.9883C73.5194 38.9484 73.4817 38.9079 73.4443 38.8672ZM78.9434 38.9727L78.9443 38.9717L78.9434 38.9727ZM96.6992 38.8613C96.8908 38.8965 97.0875 38.92 97.2891 38.9297C97.0877 38.92 96.8906 38.8965 96.6992 38.8613ZM97.7783 38.9248C97.6901 38.931 97.6013 38.9355 97.5117 38.9355C97.6013 38.9355 97.6901 38.931 97.7783 38.9248ZM92.3174 38.8086C92.3489 38.8497 92.3806 38.8904 92.4131 38.9307C92.3806 38.8904 92.3489 38.8497 92.3174 38.8086ZM80.2217 38.8184V38.8174V38.8184ZM73.1982 38.585C73.2415 38.6371 73.2855 38.6884 73.3301 38.7393C73.2855 38.6884 73.2415 38.6371 73.1982 38.585ZM92.1357 38.5586C92.1704 38.6088 92.2051 38.6589 92.2412 38.708C92.2051 38.6589 92.1704 38.6088 92.1357 38.5586ZM72.998 38.333C73.0302 38.3753 73.0627 38.4174 73.0957 38.459C73.0627 38.4174 73.0302 38.3753 72.998 38.333ZM91.9873 38.334C92.0095 38.3694 92.0318 38.4046 92.0547 38.4395C92.0318 38.4046 92.0095 38.3694 91.9873 38.334ZM78.9443 29.1123C76.5148 29.1123 74.5287 31.0711 74.5283 33.6758C74.5283 36.2405 76.5111 38.2031 78.9443 38.2031C81.3428 38.2029 83.4346 36.3493 83.4346 33.7129C83.4344 30.9559 81.3318 29.1126 78.9443 29.1123ZM94.7441 37.9375C94.6664 37.8711 94.5909 37.8024 94.5186 37.7305C94.5909 37.8024 94.6664 37.8711 94.7441 37.9375ZM91.8281 38.0645C91.8489 38.1016 91.8691 38.1391 91.8906 38.1758C91.8691 38.1391 91.8489 38.1016 91.8281 38.0645ZM72.7793 38.0293C72.8114 38.0762 72.8438 38.1228 72.877 38.1689C72.8438 38.1228 72.8114 38.0762 72.7793 38.0293ZM82.2432 37.8311C82.1777 37.8828 82.1108 37.9329 82.043 37.9814C82.1789 37.8841 82.3105 37.7809 82.4365 37.6709L82.2432 37.8311ZM91.6973 37.8174C91.7095 37.8417 91.7209 37.8665 91.7334 37.8906C91.7209 37.8665 91.7095 37.8417 91.6973 37.8174ZM72.582 37.7266C72.615 37.78 72.6484 37.8332 72.6826 37.8857C72.6484 37.8332 72.615 37.78 72.582 37.7266ZM91.5391 37.4785C91.5633 37.5349 91.5875 37.5911 91.6133 37.6465C91.5875 37.5911 91.5633 37.5349 91.5391 37.4785ZM72.3896 37.3955C72.4237 37.4574 72.4575 37.5193 72.4932 37.5801C72.4575 37.5193 72.4237 37.4574 72.3896 37.3955ZM83.2754 36.7344C83.1787 36.8733 83.0759 37.007 82.9668 37.1348C83.0759 37.007 83.1787 36.8733 83.2754 36.7344ZM91.418 37.1758C91.4406 37.2367 91.463 37.2975 91.4873 37.3574C91.463 37.2975 91.4406 37.2367 91.418 37.1758ZM72.2314 37.0918C72.259 37.1478 72.2866 37.2036 72.3154 37.2588C72.2866 37.2036 72.259 37.1478 72.2314 37.0918ZM91.334 36.9365C91.3483 36.9804 91.3627 37.024 91.3779 37.0674C91.3627 37.024 91.3483 36.9804 91.334 36.9365ZM72.0713 36.7451C72.0994 36.8103 72.1274 36.8753 72.1572 36.9395C72.1274 36.8753 72.0994 36.8103 72.0713 36.7451ZM91.248 36.6504C91.2578 36.6855 91.2661 36.721 91.2764 36.7559C91.2661 36.721 91.2578 36.6855 91.248 36.6504ZM71.9365 36.4121C71.9608 36.4767 71.9858 36.5408 72.0117 36.6045C71.9858 36.5408 71.9608 36.4767 71.9365 36.4121ZM71.8174 36.0693C71.8388 36.1357 71.8596 36.2021 71.8828 36.2676C71.8597 36.2021 71.8388 36.1357 71.8174 36.0693ZM91.1025 35.9961C91.1104 36.0421 91.1172 36.0882 91.126 36.1338C91.1172 36.0882 91.1104 36.0421 91.1025 35.9961ZM71.6953 35.6543C71.7187 35.7438 71.743 35.8328 71.7695 35.9209C71.743 35.8328 71.7187 35.7438 71.6953 35.6543ZM93.3906 35.5957C93.3987 35.639 93.4085 35.6818 93.418 35.7246C93.4085 35.6818 93.3987 35.639 93.3906 35.5957ZM71.6211 35.3408C71.6379 35.4183 71.6537 35.4957 71.6729 35.5723C71.6537 35.4957 71.6379 35.4183 71.6211 35.3408ZM101.469 35.3408C101.464 35.4007 101.457 35.4602 101.449 35.5195C101.457 35.4602 101.464 35.4007 101.469 35.3408ZM71.5498 34.9707C71.5617 35.0423 71.573 35.1137 71.5869 35.1846C71.573 35.1137 71.5617 35.0423 71.5498 34.9707ZM93.3184 34.8164H93.3193V26.0264H93.3184V34.8164ZM73.8486 34.6758C73.8345 34.5983 73.8214 34.5202 73.8105 34.4414C73.8214 34.5202 73.8345 34.5982 73.8486 34.6758ZM84.1455 32.8867C84.1828 33.1535 84.2031 33.4291 84.2031 33.7129C84.2031 33.9059 84.1926 34.0957 84.1738 34.2812H84.1748C84.1935 34.0957 84.2031 33.9059 84.2031 33.7129C84.2031 33.4291 84.1828 33.1535 84.1455 32.8867ZM71.4414 33.6768V33.6758C71.4414 33.8514 71.4486 34.0257 71.46 34.1982C71.4486 34.026 71.4414 33.8521 71.4414 33.6768ZM73.7578 33.6768L73.7588 33.6758L73.7578 33.6768ZM84.0625 32.4355C84.0931 32.5723 84.1199 32.7115 84.1406 32.8535C84.1199 32.7115 84.0931 32.5723 84.0625 32.4355ZM71.8945 31.0293C71.8106 31.2644 71.7383 31.5053 71.6768 31.751C71.7383 31.5053 71.8106 31.2644 71.8945 31.0293ZM74.3828 31.1035H74.3838H74.3828ZM72.7188 29.3809C72.5169 29.6858 72.3364 30.0069 72.1787 30.3418L72.3447 30.0117C72.4599 29.7949 72.5842 29.5841 72.7188 29.3809ZM56.4238 30.3408C56.4545 30.3382 56.4851 30.3361 56.5156 30.333C56.4851 30.3361 56.4545 30.3382 56.4238 30.3408ZM56.6562 30.3164C56.7127 30.3095 56.7691 30.3033 56.8252 30.2949C56.7691 30.3033 56.7127 30.3095 56.6562 30.3164ZM57.0205 30.2617C57.0577 30.255 57.0949 30.2485 57.1318 30.2412C57.0949 30.2485 57.0577 30.255 57.0205 30.2617ZM57.2871 30.207C57.3403 30.1951 57.3936 30.1841 57.4463 30.1709C57.3936 30.1841 57.3403 30.1951 57.2871 30.207ZM57.5996 30.1289C57.644 30.1166 57.6884 30.105 57.7324 30.0918C57.6884 30.105 57.644 30.1166 57.5996 30.1289ZM57.8936 30.04C57.9426 30.0239 57.9915 30.0075 58.04 29.9902C57.9915 30.0075 57.9426 30.0239 57.8936 30.04ZM58.1729 29.9414C58.2233 29.9222 58.2734 29.9022 58.3232 29.8818C58.2734 29.9022 58.2233 29.9222 58.1729 29.9414ZM58.4688 29.8203C58.513 29.801 58.5569 29.7811 58.6006 29.7607C58.5569 29.7811 58.513 29.8009 58.4688 29.8203ZM58.7471 29.6914C58.7913 29.6695 58.8352 29.6469 58.8789 29.624C58.8352 29.6469 58.7913 29.6695 58.7471 29.6914ZM59.0215 29.5479C59.0627 29.5249 59.1029 29.5003 59.1436 29.4766C59.1029 29.5003 59.0627 29.5249 59.0215 29.5479ZM59.2715 29.4004C59.3194 29.3709 59.367 29.3412 59.4141 29.3105C59.367 29.3412 59.3194 29.3709 59.2715 29.4004ZM76.042 29.2363H76.043H76.042ZM59.5254 29.2363C59.582 29.1978 59.638 29.1584 59.6934 29.1182C59.638 29.1584 59.582 29.1978 59.5254 29.2363ZM59.7715 29.0605C59.8153 29.0277 59.8584 28.9939 59.9014 28.96C59.8584 28.9939 59.8153 29.0277 59.7715 29.0605ZM60.0146 28.8701C60.0497 28.8411 60.0837 28.8109 60.1182 28.7812C60.0837 28.8109 60.0497 28.8411 60.0146 28.8701ZM60.46 28.4678L60.6631 28.2568C60.6648 28.255 60.6662 28.2528 60.668 28.251C60.6002 28.3247 60.5311 28.3972 60.46 28.4678ZM77.6465 28.5068V28.5078V28.5068ZM83.9805 28.3193C84.0567 28.4111 84.1315 28.5044 84.2031 28.6006C84.1315 28.5044 84.0567 28.4111 83.9805 28.3193ZM78.4131 28.3701V28.3711V28.3701ZM83.8975 28.2236C83.8466 28.1647 83.796 28.1058 83.7432 28.0488C83.796 28.1058 83.8466 28.1647 83.8975 28.2236ZM60.7393 28.1699C60.7827 28.1211 60.8262 28.0725 60.8682 28.0225C60.8262 28.0725 60.7827 28.1211 60.7393 28.1699ZM51.3438 28.0498H55.8672C56.0008 28.0498 56.1332 28.0425 56.2637 28.0303C56.1335 28.0424 56.0016 28.0488 55.8682 28.0488H51.3447V19.7012H51.3438V28.0498ZM57.0615 27.876C56.8786 27.9301 56.6905 27.972 56.498 28.001C56.6906 27.972 56.8786 27.9301 57.0615 27.876ZM83.6133 27.916C83.577 27.879 83.5411 27.8417 83.5039 27.8057C83.5411 27.8417 83.577 27.879 83.6133 27.916ZM60.9551 27.9141C60.9886 27.8723 61.0222 27.8307 61.0547 27.7881C61.0222 27.8307 60.9886 27.8723 60.9551 27.9141ZM83.4023 27.71C83.342 27.6539 83.2812 27.5985 83.2188 27.5449C83.2812 27.5985 83.342 27.6539 83.4023 27.71ZM61.167 27.6367C61.1919 27.602 61.217 27.5674 61.2412 27.5322C61.217 27.5674 61.1919 27.602 61.167 27.6367ZM83.1396 27.4795C83.0808 27.4307 83.0216 27.3826 82.9609 27.3359C83.0216 27.3826 83.0808 27.4307 83.1396 27.4795ZM61.3105 27.4268C61.3427 27.3781 61.3754 27.3298 61.4062 27.2803C61.3754 27.3298 61.3427 27.3781 61.3105 27.4268ZM75.0479 27.124V27.125V27.124ZM52.1133 27.2803H55.8682C57.7643 27.2799 59.2909 25.7442 59.291 23.8936C59.2909 22.0018 57.7599 20.4701 55.8682 20.4697H52.1133V27.2803ZM82.8428 27.248C82.7867 27.207 82.7304 27.1662 82.6729 27.127C82.7304 27.1662 82.7867 27.207 82.8428 27.248ZM61.4844 27.1504C61.5115 27.1045 61.5384 27.0584 61.5645 27.0117C61.5384 27.0584 61.5115 27.1044 61.4844 27.1504ZM82.5293 27.0332C82.48 27.0016 82.4302 26.9707 82.3799 26.9404C82.4302 26.9707 82.48 27.0016 82.5293 27.0332ZM61.623 26.9023C61.6496 26.8525 61.6759 26.8025 61.7012 26.752C61.6759 26.8025 61.6496 26.8525 61.623 26.9023ZM82.2314 26.8535C82.1782 26.8235 82.1246 26.7941 82.0703 26.7656C82.1246 26.7941 82.1782 26.8235 82.2314 26.8535ZM81.9141 26.6865C81.8526 26.6565 81.7903 26.6277 81.7275 26.5996C81.7903 26.6277 81.8526 26.6565 81.9141 26.6865ZM61.7676 26.6162C61.7907 26.5671 61.813 26.5176 61.835 26.4678C61.813 26.5176 61.7907 26.5671 61.7676 26.6162ZM81.5967 26.542C81.5259 26.5122 81.4542 26.4844 81.3818 26.457C81.4542 26.4844 81.5259 26.5122 81.5967 26.542ZM81.2578 26.4102C81.1769 26.3815 81.0946 26.3557 81.0117 26.3301C81.0946 26.3557 81.1769 26.3815 81.2578 26.4102ZM61.8789 26.3643C61.9082 26.2944 61.937 26.2243 61.9639 26.1533C61.937 26.2243 61.9082 26.2944 61.8789 26.3643ZM80.9062 26.2969C80.8227 26.2726 80.7378 26.2516 80.6523 26.2305C80.7378 26.2516 80.8227 26.2726 80.9062 26.2969ZM80.5332 26.2012C80.4585 26.1842 80.3828 26.1698 80.3066 26.1553C80.3828 26.1698 80.4585 26.1842 80.5332 26.2012ZM80.1436 26.124C80.0681 26.1115 79.9918 26.1019 79.915 26.0918C79.9918 26.1019 80.0681 26.1115 80.1436 26.124ZM61.9902 26.0791C62.0173 26.0047 62.044 25.9301 62.0684 25.8545C62.044 25.9301 62.0173 26.0047 61.9902 26.0791ZM78.9434 26.0264C79.2247 26.0264 79.4992 26.0418 79.7656 26.0713C79.6343 26.0568 79.5012 26.0455 79.3662 26.0381C79.2275 26.0304 79.0868 26.0264 78.9443 26.0264H78.9434ZM62.0967 25.7646C62.1179 25.6955 62.1374 25.6258 62.1562 25.5557C62.1374 25.6258 62.1179 25.6955 62.0967 25.7646ZM62.1777 25.4775C62.1943 25.4129 62.2091 25.3477 62.2236 25.2822C62.2091 25.3477 62.1943 25.4129 62.1777 25.4775ZM59.832 25.2383C59.8682 25.1341 59.9009 25.0285 59.9287 24.9209C59.9009 25.0285 59.8682 25.1342 59.832 25.2383ZM62.25 25.1592C62.2609 25.1051 62.2707 25.0507 62.2803 24.9961C62.2707 25.0507 62.2609 25.1051 62.25 25.1592ZM62.3027 22.9102C62.3515 23.2308 62.3769 23.5591 62.377 23.8936C62.377 24.2186 62.3518 24.5382 62.3047 24.8506C62.3357 24.6453 62.3583 24.4367 62.3691 24.2256C62.3748 24.1157 62.3779 24.0048 62.3779 23.8936C62.3779 23.5591 62.3516 23.2308 62.3027 22.9102ZM59.8057 22.4512V22.4521V22.4512ZM62.1699 22.2637C62.1451 22.168 62.1178 22.0734 62.0889 21.9795C62.1178 22.0734 62.1451 22.168 62.1699 22.2637ZM62.0449 21.8447C62.0252 21.7854 62.0048 21.7265 61.9834 21.668C62.0048 21.7265 62.0252 21.7854 62.0449 21.8447ZM61.958 21.6016C61.9297 21.5268 61.901 21.4523 61.8701 21.3789C61.901 21.4523 61.9297 21.5268 61.958 21.6016ZM61.8027 21.2266C61.7859 21.1894 61.7694 21.1521 61.752 21.1152C61.7694 21.1521 61.7859 21.1894 61.8027 21.2266ZM61.6777 20.9658C61.6536 20.9181 61.6298 20.8703 61.6045 20.8232C61.6298 20.8703 61.6536 20.9181 61.6777 20.9658ZM61.5488 20.7227C61.5143 20.6611 61.4788 20.6003 61.4424 20.54C61.4788 20.6003 61.5143 20.6611 61.5488 20.7227ZM58.042 20.3086C58.1572 20.3785 58.2694 20.4528 58.377 20.5332C58.2694 20.4528 58.1572 20.3786 58.042 20.3086ZM61.3896 20.4561C61.3566 20.4033 61.3236 20.3506 61.2891 20.2988C61.3235 20.3506 61.3566 20.4033 61.3896 20.4561ZM61.209 20.1826C61.1737 20.1321 61.1382 20.0817 61.1016 20.0322C61.1382 20.0817 61.1737 20.1321 61.209 20.1826ZM61.0303 19.9385C60.9959 19.8938 60.9613 19.8494 60.9258 19.8057C60.9613 19.8494 60.9959 19.8938 61.0303 19.9385ZM56.5068 19.75C56.6455 19.7712 56.7821 19.7986 56.916 19.833L56.7129 19.7861C56.6448 19.7722 56.5761 19.7606 56.5068 19.75ZM60.8291 19.6885C60.7904 19.6429 60.7509 19.5982 60.7109 19.5537C60.7509 19.5982 60.7904 19.6429 60.8291 19.6885ZM60.6309 19.4658C60.594 19.4262 60.5564 19.3873 60.5186 19.3486C60.5564 19.3873 60.594 19.4262 60.6309 19.4658ZM60.4033 19.2334C60.3667 19.1978 60.3295 19.1627 60.292 19.1279C60.3295 19.1627 60.3667 19.1977 60.4033 19.2334ZM60.1758 19.0215C60.1455 18.9947 60.1147 18.9686 60.084 18.9424C60.1147 18.9686 60.1455 18.9947 60.1758 19.0215ZM59.9277 18.8135C59.8968 18.7887 59.8654 18.7645 59.834 18.7402C59.8654 18.7645 59.8968 18.7887 59.9277 18.8135ZM59.6992 18.6387C59.6636 18.6127 59.6279 18.5868 59.5918 18.5615C59.6279 18.5868 59.6636 18.6127 59.6992 18.6387ZM59.4326 18.4531C59.4023 18.4332 59.3715 18.414 59.3408 18.3945C59.3715 18.414 59.4023 18.4332 59.4326 18.4531ZM59.1826 18.2959C59.144 18.273 59.1045 18.2517 59.0654 18.2295C59.1045 18.2517 59.144 18.273 59.1826 18.2959ZM58.9043 18.1396C58.8752 18.1242 58.8457 18.1097 58.8164 18.0947C58.8457 18.1097 58.8752 18.1242 58.9043 18.1396ZM58.6289 18.002C58.595 17.986 58.5605 17.9714 58.5264 17.9561C58.5605 17.9714 58.595 17.986 58.6289 18.002ZM58.3467 17.8779C58.3062 17.8612 58.2655 17.8451 58.2246 17.8291C58.2655 17.8451 58.3062 17.8612 58.3467 17.8779ZM58.0654 17.7686C58.0137 17.7499 57.9615 17.7322 57.9092 17.7148C57.9615 17.7322 58.0137 17.7499 58.0654 17.7686ZM57.7686 17.6689C57.7143 17.6523 57.6594 17.6373 57.6045 17.6221C57.6594 17.6373 57.7142 17.6523 57.7686 17.6689ZM57.4619 17.583C57.4338 17.5759 57.4052 17.5702 57.377 17.5635C57.4052 17.5702 57.4338 17.5759 57.4619 17.583ZM56.8379 17.457C56.787 17.4494 56.7358 17.444 56.6846 17.4375C56.7358 17.444 56.787 17.4494 56.8379 17.457ZM55.8672 17.3838C56.0874 17.3838 56.3056 17.3954 56.5205 17.417C56.4144 17.4063 56.3076 17.398 56.2002 17.3926L55.8682 17.3838H55.8672ZM74.8477 36.9473C74.8836 36.9943 74.9196 37.0412 74.957 37.0869C74.9196 37.0412 74.8836 36.9943 74.8477 36.9473ZM71.4844 34.4951C71.4962 34.6088 71.5097 34.7219 71.5264 34.834C71.5097 34.7219 71.4962 34.6088 71.4844 34.4951ZM83.9609 32.0449C83.944 31.9889 83.9249 31.9339 83.9062 31.8789C83.9249 31.9339 83.944 31.9889 83.9609 32.0449ZM58.4951 27.127C58.5327 27.0969 58.569 27.0655 58.6055 27.0342C58.569 27.0655 58.5327 27.0969 58.4951 27.127ZM58.7783 26.8779C58.8172 26.8406 58.8552 26.8024 58.8926 26.7637C58.8552 26.8024 58.8172 26.8406 58.7783 26.8779ZM59.4111 26.1064C59.4348 26.0694 59.458 26.032 59.4805 25.9941C59.458 26.032 59.4348 26.0694 59.4111 26.1064ZM59.5039 25.9541C59.5286 25.9115 59.553 25.8687 59.5762 25.8252C59.553 25.8687 59.5286 25.9115 59.5039 25.9541ZM59.7764 25.3877C59.7898 25.3533 59.8038 25.319 59.8164 25.2842C59.8038 25.319 59.7898 25.3533 59.7764 25.3877ZM62.2881 22.8271C62.2757 22.7525 62.2629 22.6782 62.248 22.6045C62.2629 22.6782 62.2757 22.7525 62.2881 22.8271ZM62.2227 22.4883C62.206 22.413 62.1892 22.338 62.1699 22.2637C62.1892 22.338 62.206 22.413 62.2227 22.4883Z" fill="#471207"/>
</svg>
