<svg width="201" height="335" viewBox="0 0 201 335" fill="none" xmlns="http://www.w3.org/2000/svg">
<path d="M103.35 334.96C74.2 334.96 47.7 325.42 28.09 305.81C10.07 287.79 1.06 265 0 240.09C0 236.203 0.883335 234.79 4.77 234.79H59.89C63.07 234.79 64.66 236.38 64.66 239.03C64.66 252.28 80.56 270.83 98.05 270.83C119.25 270.83 135.15 255.99 135.15 234.79C135.15 215.18 121.9 199.28 98.58 199.28C41.87 199.28 0 156.35 0 95.4C0 41.34 47.17 0 99.64 0C143.1 0 179.14 26.5 195.04 66.78C199.28 77.38 200.34 86.92 200.34 94.34C200.34 98.05 198.75 99.64 195.57 99.64H140.45C137.447 99.64 135.68 98.05 135.15 95.4C131.44 77.38 117.13 65.19 100.17 65.19C82.68 65.19 64.66 78.44 64.66 99.64C64.66 117.13 75.79 135.15 101.76 135.15C156.88 135.15 200.34 181.26 200.34 234.79C200.34 288.32 155.29 334.96 103.35 334.96Z" fill="#588ACC"/>
</svg>
